<?xml version="1.0" encoding="utf-8"?>
<!-- Generator: Adobe Illustrator 28.1.0, SVG Export Plug-In . SVG Version: 6.00 Build 0)  -->
<svg version="1.1" id="圖層_1" xmlns="http://www.w3.org/2000/svg" xmlns:xlink="http://www.w3.org/1999/xlink" x="0px" y="0px"
	 viewBox="0 0 1307.1 36.1" style="enable-background:new 0 0 1307.1 36.1;" xml:space="preserve">
<style type="text/css">
	.st0{fill:#FFFFFF;}
</style>
<g id="XMLID_2048_">
	<path id="XMLID_2888_" class="st0" d="M496.5,7.9l-9,20.7l-1.6-0.7l9-20.8L496.5,7.9z"/>
	<g id="XMLID_2146_">
		<path id="XMLID_2883_" class="st0" d="M379.4,5.9v1.5h10.4v5.6h-3.1v-2.9h-10.6l1.8,0.5c-0.2,0.3-0.4,0.5-0.7,0.7h9.1v2.5
			c-1.7,1.3-3.4,2.5-5.1,3.5c0.4,0.2,0.9,0.3,1.4,0.4c1.6,0.5,4.3,1,8.1,1.5l-1.4,2.9c-0.9-0.1-1.7-0.2-2.5-0.4v8h-3.1v-0.9H372v0.9
			h-3.1V22c-0.9,0.2-1.9,0.4-2.8,0.5l-1.1-2.8c3.1-0.5,6.1-1.3,9-2.3c-1-0.5-1.8-1.1-2.6-1.7c-1,0.6-2,1.1-3,1.5l-1.6-2.9
			c3.3-1.3,5.7-2.7,7.3-4.2h-5.1v2.9H366V7.4h10V5.9H379.4z M383.5,26.1v-2.5H372v2.5C372,26.1,383.5,26.1,383.5,26.1z M383.1,21
			c-0.5-0.1-1-0.2-1.4-0.4c-1.4-0.4-2.8-0.9-4.2-1.4c-0.1,0.1-0.2,0.1-0.3,0.1c-1.5,0.7-3,1.2-4.5,1.7L383.1,21L383.1,21z
			 M377.2,15.8c0.1,0.1,0.2,0.1,0.3,0.1c1.4-0.6,2.6-1.3,3.7-2.1h-7c-0.1,0.1-0.1,0.1-0.2,0.2C375,14.7,376.1,15.3,377.2,15.8z"/>
		<path id="XMLID_2838_" class="st0" d="M405.5,6.6v19.5c0,2.3-1.1,3.4-3.3,3.4h-1.6l-0.7-2.9c0.6,0.1,1.2,0.2,1.7,0.2
			c0.6,0,1-0.6,1-1.8v-3.6h-3.1c-0.1,1.7-0.2,3.2-0.5,4.6c-0.3,1.4-0.7,2.7-1.2,3.8l-2.9-1c0.5-1.1,0.9-2.4,1.2-4
			c0.3-1.5,0.5-3.4,0.5-5.8V6.6h1.4H405.5z M402.6,12.8V9.4h-3.1v3.5H402.6z M402.6,18.7v-3.2h-3.1v3.2H402.6z M410.1,29.8H407V6.6
			h11.8c-0.1,4.3-0.5,6.7-1.4,7.5c-0.6,0.5-1.4,0.7-2.4,0.7c-0.8,0-1.7-0.1-2.7-0.2l-0.6-2.8c0.9,0.2,1.9,0.2,2.8,0.2
			c0.3,0,0.5,0,0.6-0.2c0.2-0.3,0.3-1.2,0.5-2.5h-5.4v6.5h9.5v2.1c-0.7,2.9-1.6,5.1-2.6,6.7c1,0.9,2.1,1.7,3.5,2.5l-2.3,2.7
			c-1.1-0.8-2.2-1.7-3.1-2.7c-1.1,1.2-2.4,2.1-3.7,2.7l-1.3-2.4L410.1,29.8L410.1,29.8L410.1,29.8z M410.1,19.3v7.6
			c1.2-0.5,2.2-1.2,3-2.1C411.9,23.2,410.9,21.4,410.1,19.3z M414.9,22.3c0.6-1.1,1.1-2.4,1.5-3.8h-3.8
			C413.3,20,414,21.2,414.9,22.3z"/>
		<path id="XMLID_2155_" class="st0" d="M442.3,22.5v-0.8h3.1v0.8h4v2.5h-4v1.4c0,1.4-0.3,2.2-0.9,2.6c-0.6,0.5-1.7,0.7-3.2,0.7
			c-0.9,0-1.7-0.1-2.4-0.3l-0.6-2.9c1,0.3,1.9,0.5,2.9,0.5c0.6,0,1-0.4,1-1.2v-0.9h-8.8c0.9,0.5,1.8,1.1,2.6,1.6L434,29
			c-1.3-1.1-2.6-2-4-2.8l1.3-1.3h-6.1v-2.5L442.3,22.5L442.3,22.5L442.3,22.5z M435.6,7V6.1h3V7h10.5v2.6h-10.5v0.6h8.6v8.1h-0.5
			c0.8,0.8,1.4,1.7,2,2.6l-2.5,1.3c-0.2-0.4-0.5-0.8-0.8-1.1c-5.4,0.5-11.7,0.8-19,0.8l-0.4-2.5c3.4,0,6.5,0,9.5-0.1v-1h-8.4v-8.1
			h8.4V9.6h-9.7V7L435.6,7L435.6,7z M435.6,13.2v-0.7h-5.4v0.7H435.6z M435.6,16v-0.7h-5.4V16H435.6z M438.6,13.2h5.6v-0.7h-5.6
			V13.2z M438.6,16h5.6v-0.7h-5.6V16z M443.2,18.6l0.5-0.3h-5.2v0.9c1.8-0.1,3.5-0.1,5.1-0.2C443.5,18.9,443.4,18.7,443.2,18.6z"/>
		<path id="XMLID_2147_" class="st0" d="M461.2,7c-1,1.8-1.9,3.4-2.8,4.8c0.3,0.2,0.6,0.4,0.9,0.6c0.7-1.3,1.4-2.6,2-3.9l3,1.2
			c-0.9,1.6-1.9,3-2.7,4.4l2-0.6c0.7,1.7,1.2,3.5,1.6,5.5l-2.8,0.8c-0.1-0.3-0.1-0.7-0.2-1c-0.4,0.1-0.8,0.1-1.1,0.1v10.5h-2.9V19.3
			c-1.1,0.1-2.2,0.2-3.3,0.3l-0.6-2.8c0.7,0,1.4-0.1,2.1-0.1c0.4-0.6,0.8-1.2,1.2-1.8c-1.2-0.9-2.4-1.8-3.7-2.8l1.8-2.2
			c0.1,0.1,0.1,0.1,0.2,0.1c0.9-1.5,1.7-3,2.3-4.4L461.2,7z M458.1,21.5c-0.3,2.5-0.6,4.7-1,6.4l-2.8-0.8c0.4-2,0.7-4.1,1-6.1
			L458.1,21.5z M461.2,14.7c-0.4,0.7-0.9,1.3-1.2,1.9c0.6,0,1.2-0.1,1.8-0.1C461.6,15.8,461.4,15.3,461.2,14.7z M472.6,6.5
			c-0.2,0.5-0.4,1-0.6,1.4h6.5v10.1h-4.8v2.2c0.1,0.2,0.3,0.4,0.5,0.6c1.2-0.5,2.3-1.2,3.5-2l1.9,2.3c-1.1,0.7-2.2,1.3-3.5,1.8
			c1.1,1.1,2.4,2,3.9,2.6l-1.6,2.9c-1.2-0.6-2.3-1.4-3.4-2.4c-0.4-0.4-0.9-0.9-1.3-1.4V26c0,1.4-0.2,2.3-0.6,2.8
			c-0.5,0.6-1.4,0.9-2.7,0.9c-0.9,0-1.7-0.2-2.5-0.5l-0.4-1.9c-0.7,0.6-1.4,1.2-2.1,1.6l-1.7-2.3c0.1,0,0.1-0.1,0.2-0.1l-1.4,0.4
			c-0.2-2-0.5-3.8-1-5.4l2.6-0.7c0.5,1.5,0.8,3.1,1.1,4.9c0.7-0.5,1.2-1,1.7-1.6c0.6-0.7,1-1.3,1.4-1.9h-3.3v-2.6h5.6v-1.3h-5.2V7.9
			h3.4c0.2-0.7,0.4-1.4,0.6-2.1L472.6,6.5z M469.8,24.8c-0.5,0.7-1,1.3-1.5,1.8c0.6,0.2,1.2,0.3,1.8,0.3c0.2,0,0.4-0.1,0.5-0.3
			c0.1-0.3,0.1-0.7,0.1-1.3v-1.8C470.4,23.9,470.1,24.4,469.8,24.8z M475.5,11.7v-1.2h-7v1.2H475.5z M475.5,15.5v-1.3h-7v1.3H475.5z
			"/>
	</g>
	<g id="XMLID_2049_">
		<path id="XMLID_2144_" class="st0" d="M525.2,30.2h-1.8c-1-1.9-1.7-3.9-2.2-6s-0.7-4.1-0.7-6c0-2.4,0.3-4.7,0.9-6.8
			c0.5-1.9,1.2-3.6,2-5.1h1.8c-0.9,2.5-1.4,4.7-1.8,6.4c-0.3,1.8-0.5,3.6-0.5,5.6c0,1.4,0.1,2.8,0.3,4.2c0.2,1.4,0.5,2.8,0.8,4.1
			C524.3,27.4,524.7,28.6,525.2,30.2z"/>
		<path id="XMLID_2122_" class="st0" d="M535.4,6.9c1.6,0,2.8,0.8,3.7,2.3c1.1,1.8,1.6,4.7,1.6,8.9c0,4.1-0.5,7.1-1.6,8.9
			c-0.9,1.5-2.1,2.2-3.7,2.2c-1.6,0-2.9-0.8-3.8-2.4c-1-1.6-1.5-4.5-1.5-8.7c0-4.1,0.5-7,1.6-8.8C532.5,7.7,533.8,6.9,535.4,6.9z
			 M535.4,10.4c-0.4,0-0.7,0.2-1,0.5c-0.3,0.3-0.5,0.9-0.7,1.7c-0.2,1.1-0.3,2.9-0.3,5.4c0,2.6,0.1,4.3,0.3,5.3
			c0.2,1,0.4,1.6,0.7,1.9c0.3,0.3,0.6,0.5,1,0.5s0.7-0.2,1-0.5c0.3-0.3,0.5-0.9,0.7-1.7c0.2-1.1,0.3-2.9,0.3-5.4
			c0-2.6-0.1-4.3-0.3-5.3c-0.2-1-0.4-1.6-0.7-1.9C536.1,10.5,535.7,10.4,535.4,10.4z"/>
		<path id="XMLID_2110_" class="st0" d="M557.2,24.9v3.9h-11c0.1-1.5,0.5-2.9,1.1-4.2c0.6-1.3,1.8-3.1,3.5-5.2
			c1.4-1.8,2.3-2.9,2.6-3.6c0.4-0.9,0.6-1.7,0.6-2.6c0-0.9-0.2-1.6-0.6-2.1c-0.4-0.5-0.9-0.8-1.6-0.8c-0.7,0-1.2,0.3-1.6,0.8
			c-0.4,0.5-0.6,1.4-0.7,2.6l-3.1-0.4c0.2-2.3,0.8-3.9,1.7-4.9c1-1,2.2-1.5,3.7-1.5c1.6,0,2.9,0.6,3.8,1.7c0.9,1.2,1.4,2.6,1.4,4.3
			c0,1-0.1,1.9-0.4,2.8c-0.3,0.9-0.7,1.8-1.3,2.8c-0.4,0.6-1.1,1.6-2,2.8c-1,1.2-1.6,2-1.9,2.4c-0.3,0.4-0.5,0.8-0.6,1.2L557.2,24.9
			L557.2,24.9L557.2,24.9z"/>
		<path id="XMLID_2108_" class="st0" d="M562.9,30.2c0.5-1.5,0.9-2.6,1.1-3.4c0.2-0.8,0.4-1.7,0.6-2.7c0.2-1,0.3-2,0.4-2.9
			c0.1-0.9,0.1-1.9,0.1-2.8c0-2-0.2-3.8-0.5-5.6c-0.3-1.8-0.9-3.9-1.8-6.4h1.8c0.9,1.8,1.7,3.7,2.2,5.7c0.5,2,0.8,4,0.8,6.1
			c0,1.7-0.2,3.6-0.6,5.6c-0.5,2.2-1.2,4.4-2.3,6.6H562.9z"/>
		<path id="XMLID_2104_" class="st0" d="M575.5,17c-0.8-0.5-1.4-1.1-1.8-1.9c-0.4-0.8-0.6-1.7-0.6-2.6c0-1.6,0.4-3,1.3-4
			c0.9-1.1,2.1-1.6,3.6-1.6c1.5,0,2.8,0.5,3.6,1.6c0.9,1.1,1.3,2.4,1.3,4c0,1-0.2,1.9-0.6,2.7c-0.4,0.8-0.9,1.4-1.7,1.8
			c0.9,0.5,1.6,1.2,2.1,2.1c0.5,0.9,0.7,2,0.7,3.2c0,2-0.5,3.6-1.4,4.9c-1,1.3-2.2,1.9-3.8,1.9c-1.5,0-2.7-0.5-3.7-1.6
			c-1.2-1.2-1.7-2.9-1.7-5c0-1.2,0.2-2.3,0.7-3.2C573.8,18.3,574.5,17.6,575.5,17z M575.8,22.1c0,1.1,0.2,2,0.7,2.7
			c0.4,0.6,1,1,1.7,1c0.6,0,1.2-0.3,1.6-0.9c0.4-0.6,0.6-1.5,0.6-2.7c0-1-0.2-1.8-0.6-2.5c-0.4-0.6-1-0.9-1.6-0.9
			c-0.8,0-1.3,0.4-1.7,1.1C576,20.6,575.8,21.3,575.8,22.1z M576.1,12.8c0,0.8,0.2,1.5,0.5,1.9c0.4,0.5,0.8,0.7,1.4,0.7
			c0.6,0,1.1-0.2,1.4-0.7c0.4-0.5,0.5-1.1,0.5-2c0-0.8-0.2-1.4-0.5-1.9c-0.4-0.5-0.8-0.7-1.4-0.7c-0.6,0-1.1,0.2-1.4,0.7
			C576.3,11.4,576.1,12,576.1,12.8z"/>
		<path id="XMLID_2101_" class="st0" d="M594.6,6.9c1.6,0,2.8,0.8,3.7,2.3c1.1,1.8,1.6,4.7,1.6,8.9c0,4.1-0.5,7.1-1.6,8.9
			c-0.9,1.5-2.1,2.2-3.7,2.2c-1.6,0-2.9-0.8-3.8-2.4c-1-1.6-1.5-4.5-1.5-8.7c0-4.1,0.5-7,1.6-8.8C591.8,7.7,593.1,6.9,594.6,6.9z
			 M594.6,10.4c-0.4,0-0.7,0.2-1,0.5c-0.3,0.3-0.5,0.9-0.7,1.7c-0.2,1.1-0.3,2.9-0.3,5.4c0,2.6,0.1,4.3,0.3,5.3
			c0.2,1,0.4,1.6,0.7,1.9c0.3,0.3,0.6,0.5,1,0.5c0.4,0,0.7-0.2,1-0.5s0.5-0.9,0.7-1.7c0.2-1.1,0.3-2.9,0.3-5.4
			c0-2.6-0.1-4.3-0.3-5.3c-0.2-1-0.4-1.6-0.7-1.9C595.4,10.5,595,10.4,594.6,10.4z"/>
		<path id="XMLID_2099_" class="st0" d="M605.9,11.2V7.3h10.7v3c-0.9,1.2-1.8,2.8-2.7,5c-0.9,2.2-1.6,4.5-2.1,6.9s-0.7,4.6-0.7,6.5
			h-3c0.1-3,0.5-6.1,1.4-9.2c0.9-3.1,2.1-5.9,3.5-8.4L605.9,11.2L605.9,11.2z"/>
		<path id="XMLID_2097_" class="st0" d="M622.4,23l3-0.5c0.1,1,0.4,1.8,0.8,2.4c0.4,0.5,0.9,0.8,1.5,0.8c0.6,0,1.2-0.3,1.6-1
			c0.4-0.7,0.7-1.5,0.7-2.6c0-1-0.2-1.9-0.6-2.5c-0.4-0.6-0.9-0.9-1.5-0.9c-0.4,0-0.9,0.1-1.4,0.3l0.3-3.4c0.8,0,1.5-0.2,1.9-0.7
			c0.4-0.5,0.7-1.2,0.7-2.1c0-0.7-0.2-1.3-0.5-1.8c-0.3-0.4-0.8-0.7-1.3-0.7c-0.5,0-1,0.2-1.4,0.7c-0.4,0.5-0.6,1.2-0.7,2.2
			l-2.9-0.7c0.2-1.3,0.5-2.4,0.9-3.2c0.4-0.8,1-1.4,1.7-1.9c0.7-0.5,1.5-0.7,2.4-0.7c1.5,0,2.8,0.7,3.7,2c0.8,1.1,1.1,2.3,1.1,3.6
			c0,1.9-0.8,3.4-2.4,4.6c0.9,0.3,1.7,0.9,2.2,1.8c0.6,0.9,0.8,2.1,0.8,3.4c0,1.9-0.5,3.5-1.6,4.9c-1,1.3-2.4,2-3.9,2
			c-1.5,0-2.7-0.6-3.7-1.7C623.1,26.3,622.5,24.8,622.4,23z"/>
		<path id="XMLID_2095_" class="st0" d="M639.3,20v-4.2h6.1V20H639.3z"/>
		<path id="XMLID_2093_" class="st0" d="M658.5,28.8h-3.1V13c-1.1,1.4-2.5,2.5-4,3.2v-3.8c0.8-0.4,1.7-1,2.7-2c1-1,1.6-2.2,2-3.5
			h2.5L658.5,28.8L658.5,28.8z"/>
		<path id="XMLID_2091_" class="st0" d="M673.8,28.8h-3.1V13c-1.1,1.4-2.5,2.5-4,3.2v-3.8c0.8-0.4,1.7-1,2.7-2c1-1,1.6-2.2,2-3.5
			h2.5L673.8,28.8L673.8,28.8z"/>
		<path id="XMLID_2088_" class="st0" d="M693,12.3l-3,0.4c-0.1-0.8-0.3-1.4-0.6-1.8c-0.3-0.4-0.7-0.6-1.2-0.6
			c-0.7,0-1.2,0.4-1.7,1.2c-0.5,0.8-0.7,2.4-0.9,4.9c0.8-1.2,1.8-1.8,2.9-1.8c1.3,0,2.4,0.7,3.4,2c0.9,1.3,1.4,3,1.4,5.1
			c0,2.2-0.5,4-1.5,5.4c-1,1.3-2.2,2-3.8,2c-1.6,0-3-0.9-4.1-2.6c-1.1-1.7-1.6-4.5-1.6-8.4c0-4,0.6-6.9,1.7-8.6
			c1.1-1.8,2.5-2.6,4.3-2.6c1.2,0,2.3,0.5,3.1,1.4C692.2,9.2,692.7,10.6,693,12.3z M685.9,21.4c0,1.4,0.2,2.4,0.7,3.1
			c0.5,0.7,1,1.1,1.6,1.1c0.6,0,1.1-0.3,1.4-0.9c0.4-0.6,0.6-1.6,0.6-3c0-1.4-0.2-2.5-0.6-3.1c-0.4-0.7-0.9-1-1.6-1
			c-0.6,0-1.1,0.3-1.5,0.9C686.1,19.3,685.9,20.2,685.9,21.4z"/>
		<path id="XMLID_00000062160427811487170550000001045896130206768051_" class="st0" d="M708.4,12.3l-3,0.4
			c-0.1-0.8-0.3-1.4-0.6-1.8c-0.3-0.4-0.7-0.6-1.2-0.6c-0.7,0-1.2,0.4-1.7,1.2c-0.5,0.8-0.7,2.4-0.9,4.9c0.8-1.2,1.8-1.8,2.9-1.8
			c1.3,0,2.4,0.7,3.4,2c0.9,1.3,1.4,3,1.4,5.1c0,2.2-0.5,4-1.5,5.4c-1,1.3-2.2,2-3.8,2c-1.6,0-3-0.9-4.1-2.6
			c-1.1-1.7-1.6-4.5-1.6-8.4c0-4,0.6-6.9,1.7-8.6c1.1-1.8,2.5-2.6,4.3-2.6c1.2,0,2.3,0.5,3.1,1.4C707.6,9.2,708.1,10.6,708.4,12.3z
			 M701.3,21.4c0,1.4,0.2,2.4,0.7,3.1c0.5,0.7,1,1.1,1.6,1.1c0.6,0,1.1-0.3,1.4-0.9c0.4-0.6,0.6-1.6,0.6-3c0-1.4-0.2-2.5-0.6-3.1
			c-0.4-0.7-0.9-1-1.6-1c-0.6,0-1.1,0.3-1.5,0.9C701.5,19.3,701.3,20.2,701.3,21.4z"/>
		<path id="XMLID_2082_" class="st0" d="M747.4,6.9c1.6,0,2.8,0.8,3.7,2.3c1.1,1.8,1.6,4.7,1.6,8.9c0,4.1-0.5,7.1-1.6,8.9
			c-0.9,1.5-2.1,2.2-3.7,2.2c-1.6,0-2.9-0.8-3.8-2.4c-1-1.6-1.5-4.5-1.5-8.7c0-4.1,0.5-7,1.6-8.8C744.6,7.7,745.9,6.9,747.4,6.9z
			 M747.4,10.4c-0.4,0-0.7,0.2-1,0.5c-0.3,0.3-0.5,0.9-0.7,1.7c-0.2,1.1-0.3,2.9-0.3,5.4c0,2.6,0.1,4.3,0.3,5.3
			c0.2,1,0.4,1.6,0.7,1.9c0.3,0.3,0.6,0.5,1,0.5c0.4,0,0.7-0.2,1-0.5s0.5-0.9,0.7-1.7c0.2-1.1,0.3-2.9,0.3-5.4
			c0-2.6-0.1-4.3-0.3-5.3c-0.2-1-0.4-1.6-0.7-1.9C748.2,10.5,747.8,10.4,747.4,10.4z"/>
		<path id="XMLID_2078_" class="st0" d="M761.4,17c-0.8-0.5-1.4-1.1-1.8-1.9c-0.4-0.8-0.6-1.7-0.6-2.6c0-1.6,0.4-3,1.3-4
			c0.8-1.1,2.1-1.6,3.6-1.6c1.6,0,2.8,0.5,3.6,1.6c0.9,1.1,1.3,2.4,1.3,4c0,1-0.2,1.9-0.6,2.7c-0.4,0.8-0.9,1.4-1.7,1.8
			c0.9,0.5,1.6,1.2,2.1,2.1c0.5,0.9,0.7,2,0.7,3.2c0,2-0.5,3.6-1.4,4.9c-1,1.3-2.2,1.9-3.8,1.9c-1.5,0-2.7-0.5-3.7-1.6
			c-1.2-1.2-1.7-2.9-1.7-5c0-1.2,0.2-2.3,0.7-3.2S760.4,17.6,761.4,17z M761.7,22.1c0,1.1,0.2,2,0.7,2.7c0.4,0.6,1,1,1.7,1
			c0.6,0,1.2-0.3,1.6-0.9c0.4-0.6,0.6-1.5,0.6-2.7c0-1-0.2-1.8-0.6-2.5c-0.4-0.6-1-0.9-1.6-0.9c-0.8,0-1.3,0.4-1.7,1.1
			C761.9,20.6,761.7,21.3,761.7,22.1z M762,12.8c0,0.8,0.2,1.5,0.5,1.9c0.4,0.5,0.8,0.7,1.4,0.7c0.6,0,1.1-0.2,1.4-0.7
			c0.4-0.5,0.5-1.1,0.5-2c0-0.8-0.2-1.4-0.5-1.9c-0.4-0.5-0.8-0.7-1.4-0.7c-0.6,0-1.1,0.2-1.4,0.7C762.2,11.4,762,12,762,12.8z"/>
		<path id="XMLID_2075_" class="st0" d="M780.6,6.9c1.6,0,2.8,0.8,3.7,2.3c1.1,1.8,1.6,4.7,1.6,8.9c0,4.1-0.5,7.1-1.6,8.9
			c-0.9,1.5-2.1,2.2-3.7,2.2c-1.6,0-2.9-0.8-3.8-2.4c-1-1.6-1.5-4.5-1.5-8.7c0-4.1,0.5-7,1.6-8.8C777.7,7.7,779,6.9,780.6,6.9z
			 M780.6,10.4c-0.4,0-0.7,0.2-1,0.5c-0.3,0.3-0.5,0.9-0.7,1.7c-0.2,1.1-0.3,2.9-0.3,5.4c0,2.6,0.1,4.3,0.3,5.3
			c0.2,1,0.4,1.6,0.7,1.9c0.3,0.3,0.6,0.5,1,0.5s0.7-0.2,1-0.5c0.3-0.3,0.5-0.9,0.7-1.7c0.2-1.1,0.3-2.9,0.3-5.4
			c0-2.6-0.1-4.3-0.3-5.3c-0.2-1-0.4-1.6-0.7-1.9C781.3,10.5,780.9,10.4,780.6,10.4z"/>
		<path id="XMLID_2072_" class="st0" d="M797.1,6.9c1.6,0,2.8,0.8,3.7,2.3c1.1,1.8,1.6,4.7,1.6,8.9c0,4.1-0.5,7.1-1.6,8.9
			c-0.9,1.5-2.1,2.2-3.7,2.2c-1.6,0-2.9-0.8-3.8-2.4c-1-1.6-1.5-4.5-1.5-8.7c0-4.1,0.5-7,1.6-8.8C794.3,7.7,795.5,6.9,797.1,6.9z
			 M797.1,10.4c-0.4,0-0.7,0.2-1,0.5c-0.3,0.3-0.5,0.9-0.7,1.7c-0.2,1.1-0.3,2.9-0.3,5.4c0,2.6,0.1,4.3,0.3,5.3
			c0.2,1,0.4,1.6,0.7,1.9c0.3,0.3,0.6,0.5,1,0.5s0.7-0.2,1-0.5c0.3-0.3,0.5-0.9,0.7-1.7c0.2-1.1,0.3-2.9,0.3-5.4
			c0-2.6-0.1-4.3-0.3-5.3c-0.2-1-0.4-1.6-0.7-1.9C797.8,10.5,797.5,10.4,797.1,10.4z"/>
		<path id="XMLID_2070_" class="st0" d="M808.7,20v-4.2h6.1V20H808.7z"/>
		<path id="XMLID_2068_" class="st0" d="M830.4,24.9v3.9h-11c0.1-1.5,0.5-2.9,1.1-4.2c0.6-1.3,1.8-3.1,3.5-5.2
			c1.4-1.8,2.3-2.9,2.6-3.6c0.4-0.9,0.6-1.7,0.6-2.6c0-0.9-0.2-1.6-0.6-2.1c-0.4-0.5-0.9-0.8-1.6-0.8c-0.7,0-1.2,0.3-1.6,0.8
			c-0.4,0.5-0.6,1.4-0.7,2.6l-3.1-0.4c0.2-2.3,0.8-3.9,1.7-4.9c1-1,2.2-1.5,3.7-1.5c1.6,0,2.9,0.6,3.8,1.7c0.9,1.2,1.4,2.6,1.4,4.3
			c0,1-0.1,1.9-0.4,2.8c-0.3,0.9-0.7,1.8-1.2,2.8c-0.4,0.6-1.1,1.6-2,2.8c-1,1.2-1.6,2-1.9,2.4c-0.3,0.4-0.5,0.8-0.6,1.2L830.4,24.9
			L830.4,24.9L830.4,24.9z"/>
		<path id="XMLID_2065_" class="st0" d="M847,12.3l-3,0.4c-0.1-0.8-0.3-1.4-0.6-1.8c-0.3-0.4-0.7-0.6-1.2-0.6
			c-0.7,0-1.2,0.4-1.7,1.2c-0.5,0.8-0.7,2.4-0.9,4.9c0.8-1.2,1.8-1.8,2.9-1.8c1.3,0,2.4,0.7,3.4,2c0.9,1.3,1.4,3,1.4,5.1
			c0,2.2-0.5,4-1.5,5.4c-1,1.3-2.2,2-3.8,2c-1.6,0-3-0.9-4.1-2.6c-1.1-1.7-1.6-4.5-1.6-8.4c0-4,0.6-6.9,1.7-8.6s2.5-2.6,4.3-2.6
			c1.2,0,2.3,0.5,3.1,1.4C846.3,9.2,846.8,10.6,847,12.3z M839.9,21.4c0,1.4,0.2,2.4,0.7,3.1c0.5,0.7,1,1.1,1.6,1.1
			c0.6,0,1.1-0.3,1.4-0.9c0.4-0.6,0.6-1.6,0.6-3c0-1.4-0.2-2.5-0.6-3.1c-0.4-0.7-0.9-1-1.6-1c-0.6,0-1.1,0.3-1.5,0.9
			C840.1,19.3,839.9,20.2,839.9,21.4z"/>
		<path id="XMLID_2059_" class="st0" d="M861,28.8h-3.1V13c-1.1,1.4-2.5,2.5-4,3.2v-3.8c0.8-0.4,1.7-1,2.7-2c1-1,1.6-2.2,2-3.5h2.5
			V28.8z"/>
		<path id="XMLID_2057_" class="st0" d="M869.8,20v-4.2h6.1V20H869.8z"/>
		<path id="XMLID_2054_" class="st0" d="M881,11.2V7.3h10.7v3c-0.9,1.2-1.8,2.8-2.7,5c-0.9,2.2-1.6,4.5-2.1,6.9
			c-0.5,2.4-0.7,4.6-0.7,6.5h-3c0.1-3,0.5-6.1,1.4-9.2c0.9-3.1,2.1-5.9,3.5-8.4L881,11.2L881,11.2z"/>
		<path id="XMLID_2052_" class="st0" d="M897.4,23l3-0.5c0.1,1,0.4,1.8,0.8,2.4c0.4,0.5,0.9,0.8,1.5,0.8c0.6,0,1.2-0.3,1.6-1
			s0.7-1.5,0.7-2.6c0-1-0.2-1.9-0.6-2.5s-0.9-0.9-1.5-0.9c-0.4,0-0.9,0.1-1.4,0.3l0.3-3.4c0.8,0,1.5-0.2,1.9-0.7
			c0.4-0.5,0.7-1.2,0.7-2.1c0-0.7-0.2-1.3-0.5-1.8c-0.3-0.4-0.8-0.7-1.3-0.7c-0.5,0-1,0.2-1.4,0.7c-0.4,0.5-0.6,1.2-0.7,2.2
			l-2.9-0.7c0.2-1.3,0.5-2.4,0.9-3.2c0.4-0.8,1-1.4,1.7-1.9c0.7-0.5,1.5-0.7,2.4-0.7c1.5,0,2.8,0.7,3.7,2c0.8,1.1,1.1,2.3,1.1,3.6
			c0,1.9-0.8,3.4-2.4,4.6c0.9,0.3,1.7,0.9,2.2,1.8c0.6,0.9,0.8,2.1,0.8,3.4c0,1.9-0.5,3.5-1.6,4.9c-1,1.3-2.4,2-3.9,2
			c-1.5,0-2.7-0.6-3.7-1.7C898.2,26.3,897.6,24.8,897.4,23z"/>
		<path id="XMLID_2050_" class="st0" d="M924.7,24.9v3.9h-11c0.1-1.5,0.5-2.9,1.1-4.2c0.6-1.3,1.8-3.1,3.5-5.2
			c1.4-1.8,2.3-2.9,2.6-3.6c0.4-0.9,0.6-1.7,0.6-2.6c0-0.9-0.2-1.6-0.6-2.1c-0.4-0.5-0.9-0.8-1.6-0.8c-0.7,0-1.2,0.3-1.6,0.8
			c-0.4,0.5-0.6,1.4-0.7,2.6l-3.1-0.4c0.2-2.3,0.8-3.9,1.7-4.9c1-1,2.2-1.5,3.7-1.5c1.6,0,2.9,0.6,3.8,1.7c0.9,1.2,1.4,2.6,1.4,4.3
			c0,1-0.1,1.9-0.4,2.8c-0.3,0.9-0.7,1.8-1.3,2.8c-0.4,0.6-1.1,1.6-2,2.8c-1,1.2-1.6,2-1.9,2.4c-0.3,0.4-0.5,0.8-0.6,1.2L924.7,24.9
			L924.7,24.9L924.7,24.9z"/>
	</g>
</g>
</svg>
