<?xml version="1.0" encoding="UTF-8"?>
<svg id="_圖層_1" xmlns="http://www.w3.org/2000/svg" version="1.1" viewBox="0 0 726.6 116.5">
  <!-- Generator: Adobe Illustrator 30.2.1, SVG Export Plug-In . SVG Version: 2.1.1 Build 1)  -->
  <defs>
    <style>
      .st0 {
        fill: #717071;
      }
    </style>
  </defs>
  <rect class="st0" x="210.1" y="12.7" width=".4" height="89.8"/>
  <g>
    <path class="st0" d="M23.5,20.7v3.7h-15.3v-3.7h15.3ZM22.4,27.1v3.5h-13.4v-3.5h13.4ZM22.4,33.4v3.5h-13.4v-3.5h13.4ZM22.6,39.6v15h-4v-2h-5.6v2.8h-4v-15.8h13.6ZM22,14.7v3.5h-12.8v-3.5s12.8,0,12.8,0ZM18.5,49.1v-5.9h-5.5v5.9h5.5ZM27.7,16.3v-3.1l3.7.3c.7.1,1.1.3,1.1.6s-.3.5-.8.9v1.3h10.7v-3.1l3.7.3c.7.1,1,.3,1,.6s-.2.5-.7.9v1.3h4v3.5h-4v5.5h-7.3v2.2h10.6v9h-10.6v2.4h10.6v3.5h-10.6v2.4h10.2v3.2h-10.2v2.6h11.4v3.7h-26.9v-3.7h11.2v-2.6h-9.8v-3.3h9.9v-2.4h-10.5v-3.5h10.5v-2.4h-10.5v-9h10.5v-2.2h-7.2v-5.5h-4v-3.5h4v.1ZM34.9,30.8h-6.4v2.4h6.4v-2.4ZM31.7,22h10.7v-2.2h-10.7v2.2ZM45.6,30.8h-6.6v2.4h6.6v-2.4Z"/>
    <path class="st0" d="M59.2,23.5c.5.1.8.2.8.5s-.2.6-.6.9c0,4-.3,6.9-.5,8.8-.2,1.4-.4,2.9-.6,4.3l-4-.8c.3-1.6.6-3,.7-4.1.3-2.1.5-5.3.6-9.8,0,0,3.6.2,3.6.2ZM64.9,13c.7.1,1.1.3,1.1.6s-.3.5-.8.9v41.4h-4V12.7s3.7.3,3.7.3ZM71.7,32.8l-3.8.9c-.2-2.7-.6-5.9-1.1-9.5l3.1-.9c.8,3.4,1.4,6.6,1.8,9.5ZM81.2,16.1v-3.5l3.8.3c.7.1,1.1.3,1.1.6s-.2.6-.7,1.1v1.5h11.2v3.3h-11.2v3h8.4v22h4.4v3.6h-9.2c2.2,2,5.1,3.6,8.6,5l-3.8,2.8c-3.2-1.7-6-3.7-8.3-6.1l2.6-1.7h-10.1l2.1,1.4c.3.3.4.5.4.7s-.2.4-.7.4c-1.9,1.7-4.6,3.5-8.1,5.5l-3.7-2.8c3.1-1.3,5.9-3,8.5-5.2h-9.1v-3.7h4.9v-22h8.8v-3h-11.6v-3.3h11.7v.1ZM89.8,27.9v-2.2h-13.4v2.2h13.4ZM89.8,33.4v-2.4h-13.4v2.4h13.4ZM89.8,38.9v-2.4h-13.4v2.4h13.4ZM89.8,44.3v-2.3h-13.4v2.3h13.4Z"/>
    <path class="st0" d="M117.9,15.8v3.7h-6.1v10.7h5.5v3.7h-5.5v11.4c2.1-.5,4.1-1.1,6.1-1.7v3.5c-3,1.1-7.6,2.6-13.9,4.4-.3.5-.6.7-.9.7s-.5-.2-.5-.7l-.9-4.1c2.1-.3,4.1-.7,6.2-1.2v-12.5h-5.3v-3.7h5.3v-10.6h-5.7v-3.7h15.7v.1ZM142.8,15.2v20.2h-9.7v4.9h9.4v3.7h-9.4v6.6h11.4v3.7h-26.8v-3.7h11.4v-6.6h-9v-3.7h9v-4.9h-9.4V15.2h23.1ZM129.1,23.6v-4.8h-5.3v4.8s5.3,0,5.3,0ZM129.1,27.1h-5.3v4.6h5.3v-4.6ZM133.1,23.6h5.7v-4.8h-5.7v4.8ZM138.8,27.1h-5.7v4.6h5.7v-4.6Z"/>
    <path class="st0" d="M157.6,46.3c.3,0,.5.3.5.4,0,.3-.1.5-.4.8-1.7,3.1-3.4,5.7-5.3,7.9l-3.8-1.8c2.3-2.4,4.2-5.3,5.7-8.8,0,0,3.3,1.5,3.3,1.5ZM169,14.5v29.7h-18.5V14.5h18.5ZM165,23.1v-4.9h-10.5v4.9h10.5ZM165,31.9v-5.3h-10.5v5.3s10.5,0,10.5,0ZM165,35.4h-10.5v5.1h10.5v-5.1ZM171.4,52.6l-3.8,2.4c-2.9-3.2-5-6.1-6.2-8.6l3.7-1.6c1.2,2.5,3.4,5.2,6.3,7.8ZM183,21.6v-8.4l4.6.6c.5,0,.8.2.8.6s-.4.8-1.1,1.3v6.1h4v4h-4v24.2c0,1.9-.7,3.2-2.1,4.1-1.1.9-4,1.4-8.6,1.4l-1.6-4.2h5.2c1.8,0,2.8-.7,2.9-2v-19.1c-1.3,3.6-2.5,6.4-3.6,8.4-1.7,3.3-4,6.7-6.9,10.1l-3.7-3.3c3-2.9,5.5-6.1,7.7-9.6,1.3-2.1,2.8-5.5,4.6-10.2h-11v-4h12.8Z"/>
    <path class="st0" d="M21.4,62.2c.4.2.6.4.6.6,0,.5-.4.8-1.1,1.1-1.2,2.9-2.3,5.4-3.3,7.6v30.7h-4v-23.3c-.9,1.5-2,3.1-3.1,4.8l-3.1-3.1c2.3-3.1,4.2-6.2,5.8-9.4,1.5-2.9,3-6.4,4.5-10.7,0,0,3.7,1.7,3.7,1.7ZM49.7,68.5v4h-29.9v-4h29.9ZM47.7,87.7v14.1h-4v-1.5h-18.2v1.5h-4v-14.1h26.2ZM46,74.9v3.7h-23.3v-3.7h23.3ZM46.2,81.3v3.7h-23.5v-3.7h23.5ZM46,62.5v3.7h-23.1v-3.7s23.1,0,23.1,0ZM43.6,96.7v-5.3h-18.1v5.3h18.1Z"/>
    <path class="st0" d="M61.2,61.9h32.7v35.2c0,2.1-1.2,3.4-3.6,4-1.8.5-3.7.8-5.4.8l-1.6-4.2h4.5c1.3,0,1.9-.7,1.9-1.8v-8.3h-10.5v12.4h-4.2v-12.4h-10.4c-.2,1-.4,2-.6,2.9-.9,4.2-2.4,7.9-4.3,11.2l-4.2-2.2c2-3.1,3.4-6.4,4.2-9.8,1-4.2,1.5-8.4,1.5-12.6v-15.2h0ZM75,83.9v-7.3h-9.5v.5c0,2.3,0,4.6-.4,6.8h9.9ZM75,72.9v-7.2h-9.5v7.2h9.5ZM79.2,72.9h10.5v-7.2h-10.5v7.2ZM79.2,83.9h10.5v-7.3h-10.5v7.3Z"/>
    <path class="st0" d="M115.8,61.3c.4.2.6.4.6.6,0,.5-.4.8-1.1,1.1-.3.5-.6.9-.9,1.3h27.8v3.8h-3.8v7.3h5.7v3.8h-5.7v7.4h5.5v4h-40.3v-4h6.4v-7.4h-7.3v-3.8h7.3v-5.8c-1.1,1.1-2.3,2.2-3.7,3.4l-2.9-3c2-1.6,3.6-3.2,5-4.8,1.3-1.5,2.5-3.4,3.8-5.6,0,0,3.6,1.7,3.6,1.7ZM111.8,92.7c-.9,3.2-2.3,6.2-4,9.3l-4.4-1.5c2-3,3.4-5.9,4.4-8.8l4,1ZM118.1,68.1h-4v7.3h4v-7.3h0ZM118.1,86.7v-7.4h-4v7.4h4ZM121.5,101.1l-4.2.9c-.2-2.5-.7-5.4-1.3-8.8l3.5-.9c.9,3.2,1.7,6.1,2,8.8ZM126.1,68.1h-4v7.3h4v-7.3ZM126.1,86.7v-7.4h-4v7.4h4ZM132,100.9l-4.4,1.1c-.3-2.5-.9-5.4-1.8-8.8l3.7-.9c1.1,3.1,2,6,2.5,8.6ZM134.4,68.1h-4.2v7.3h4.2v-7.3ZM134.4,86.7v-7.4h-4.2v7.4h4.2ZM143.7,99.9l-3.8,2.4c-1.9-3-3.3-5.6-4-8.1l3.7-1.6c.7,2.4,2.2,4.8,4.1,7.3Z"/>
    <path class="st0" d="M160.5,62.2c.2,0,.4.2.5.2v-.8h28.8v3.4h-9v2.2h8.3v9.3h-27.9v-9.3h7.9v-2.2h-8.1v-1.7c-.2.3-.5.5-.9.6-.7,1.9-1.3,3.7-1.8,5.2v32.9h-4v-23.5c-.9,1.8-1.9,3.7-3,5.5l-3.1-3.1c1.9-3.2,3.5-6.4,4.8-9.6,1.3-2.9,2.5-6.6,3.8-11,0,0,3.7,1.9,3.7,1.9ZM187.6,78.2v18.2h-4.4c2.6.8,5.1,1.7,7.5,2.9l-2.9,2.8c-2.7-1.4-5.7-2.5-9-3.3l2.7-2.3h-11.5l2.1,1.6c.2.2.3.4.3.6s-.2.2-.7.3c-2.8,1.4-5.4,2.4-7.9,3.1l-3-2.8c3.2-.8,5.8-1.7,8-2.9h-5.8v-18.2h24.6,0ZM169,70.3h-3.8v3.1h3.8v-3.1ZM183.5,83.3v-1.8h-16.3v1.8h16.3ZM183.5,88.1v-1.8h-16.3v1.8h16.3ZM183.5,91h-16.3v2h16.3v-2ZM177.1,65h-4.4v2.2h4.4v-2.2ZM177.1,70.3h-4.4v3.1h4.4v-3.1ZM185,70.3h-4.2v3.1h4.2v-3.1Z"/>
  </g>
  <g>
    <path class="st0" d="M240.47,30.4c1.4,3.29,3.86,6.37,6.54,7.89-.37.31-.88.84-1.11,1.23-2.88-1.81-5.39-5.31-6.85-9.11h-.27v7.18h4.52v1.44h-4.52v3.62h-1.5v-3.62h-4.52v-1.44h4.52v-7.18h-.31c-1.5,3.8-4.01,7.26-6.81,9.17-.23-.35-.7-.88-1.03-1.15,2.57-1.58,4.96-4.73,6.39-8.02h-5.88v-1.44h7.65v-4.07h1.5v4.07h7.71v1.44h-6.02Z"/>
    <path class="st0" d="M255.62,29.52c-.6.99-1.34,1.99-2.14,2.94v10.24h-1.44v-8.64c-.74.76-1.48,1.46-2.2,2.02-.21-.29-.72-.92-1.01-1.21,2.01-1.42,4.11-3.66,5.45-5.86l1.34.51ZM254.86,25.42c-1.27,1.71-3.25,3.6-4.98,4.83-.21-.31-.6-.88-.86-1.15,1.62-1.09,3.49-2.84,4.46-4.22l1.38.55ZM266.79,32.76h-2.94v8.04c0,.9-.21,1.34-.86,1.58-.66.21-1.75.21-3.66.21-.06-.39-.25-.99-.47-1.4,1.38.04,2.67.04,3.04.02.37-.02.49-.1.49-.43v-8.02h-6.5v-1.38h10.9v1.38ZM266.23,27.42h-9.5v-1.36h9.5v1.36Z"/>
    <path class="st0" d="M274.54,25.34c-.45,1.3-1.01,2.61-1.64,3.84v13.55h-1.34v-11.21c-.58.93-1.23,1.77-1.85,2.51-.14-.31-.55-1.01-.8-1.34,1.75-1.89,3.35-4.79,4.34-7.73l1.29.39ZM286.61,28.08v1.23h-12.32v-1.23h12.32ZM275.42,36.41h9.85v6.19h-1.29v-.7h-7.3v.76h-1.27v-6.25ZM285.07,32.05h-9.38v-1.19h9.38v1.19ZM275.69,33.59h9.38v1.19h-9.38v-1.19ZM276.68,37.62v3.08h7.3v-3.08h-7.3ZM280.11,27.97c-.25-.68-.86-1.79-1.34-2.59l1.23-.51c.56.82,1.15,1.85,1.42,2.53l-1.3.56Z"/>
    <path class="st0" d="M305.38,40.7c0,.94-.25,1.36-.88,1.62-.66.23-1.79.25-3.62.23-.06-.39-.29-1.01-.49-1.4,1.36.06,2.69.04,3.04.04.39-.02.53-.14.53-.51v-3.95h-5.24v5.74h-1.44v-5.74h-4.87c-.29,2.16-.95,4.38-2.43,6.03-.21-.29-.8-.78-1.11-.95,2.14-2.41,2.34-5.84,2.34-8.55v-7.01h14.17v14.44ZM297.28,35.35v-3.23h-4.65v1.15c0,.64-.02,1.36-.08,2.08h4.73ZM292.63,27.63v3.12h4.65v-3.12h-4.65ZM303.96,27.63h-5.24v3.12h5.24v-3.12ZM303.96,35.35v-3.23h-5.24v3.23h5.24Z"/>
    <path class="st0" d="M326.52,32.02v1.42h-8.29v9.23h-1.5v-9.23h-7.52v-1.42h7.46v-7.15h1.5v2.76h6.39v1.38h-6.39v3h8.35ZM319.26,35.54c2.01.76,4.91,1.95,6.39,2.69l-.78,1.28c-1.44-.78-4.3-2.04-6.37-2.86l.76-1.11Z"/>
    <path class="st0" d="M333.88,29.5c-.39.74-.86,1.5-1.36,2.22v10.9h-1.34v-9.17c-.58.72-1.19,1.34-1.75,1.87-.14-.31-.53-1.01-.78-1.32,1.46-1.25,3.02-3.12,3.99-4.98l1.25.49ZM333.5,25.36c-.95,1.56-2.47,3.31-3.84,4.46-.16-.29-.55-.84-.78-1.09,1.23-.99,2.61-2.59,3.29-3.85l1.32.49ZM342.1,30.56v2.1h3.41v9.95h-1.42v-.9h-5.35v.9h-1.34v-9.95h3.31v-2.1h-4.15v2.24c0,3.21-.23,7.01-1.89,9.87-.25-.21-.74-.49-1.11-.62,1.52-2.71,1.71-6.35,1.71-9.25v-6.35c3.21-.27,7.03-.76,9.17-1.3l1.13,1.03c-2.41.6-5.9,1.03-9.01,1.29v1.89h4.15v-1.99h1.4v1.99h4.4v1.21h-4.4ZM344.09,33.83h-5.35v1.56h5.35v-1.56ZM344.09,36.41h-5.35v1.52h5.35v-1.52ZM344.09,40.6v-1.64h-5.35v1.64h5.35Z"/>
    <path class="st0" d="M354.15,38.93c-1.81.56-3.7,1.17-5.2,1.61l-.29-1.32c.64-.16,1.4-.37,2.24-.62v-5.47h-1.81v-1.29h1.81v-4.32h-2.01v-1.3h5.2v1.3h-1.91v4.32h1.69v1.29h-1.69v5.1l1.81-.57.16,1.27ZM366.2,38.01c-.84.52-1.83,1.09-2.71,1.5.9.84,2.02,1.5,3.33,1.85-.31.25-.7.76-.88,1.11-2.67-.88-4.56-2.88-5.51-5.47-.68.6-1.5,1.19-2.38,1.69v2.24l3.25-.74c-.04.31-.02.82,0,1.07-3.72.95-4.26,1.13-4.59,1.32-.08-.31-.33-.82-.51-1.07.25-.14.64-.43.64-1.21v-.97c-.7.33-1.42.64-2.1.86-.18-.31-.55-.76-.84-.99,1.69-.45,3.66-1.32,5-2.32h-2.9v-3.99h9.17v3.99h-3.56c.29.66.68,1.32,1.15,1.87.86-.47,1.83-1.13,2.43-1.6l.99.86ZM366.42,31.82h-11.7v-1.19h11.7v1.19ZM365.76,29.66h-10.24v-4.09h10.24v4.09ZM358.57,26.62h-1.83v1.98h1.83v-1.98ZM357.35,35.79h6.46v-1.83h-6.46v1.83ZM361.51,26.62h-1.91v1.98h1.91v-1.98ZM364.49,26.62h-1.95v1.98h1.95v-1.98Z"/>
    <path class="st0" d="M374.63,30.71h3.99v1.34h-3.99v.53c.93.88,3.17,3.11,3.76,3.7l-.86,1.19c-.58-.74-1.89-2.16-2.9-3.25v8.41h-1.44v-8.35c-1.01,2.22-2.38,4.38-3.68,5.7-.17-.39-.55-.99-.8-1.36,1.56-1.46,3.25-4.13,4.19-6.56h-3.8v-1.34h4.09v-3.31c-1.27.25-2.53.45-3.74.62-.06-.35-.27-.84-.45-1.15,2.86-.43,6.21-1.09,8.04-1.89l1.07,1.11c-.95.37-2.18.72-3.49,1.03v3.58ZM381.57,37.86h-1.42v-10.67h1.42v10.67ZM385.69,25.1v15.53c0,.99-.27,1.42-.88,1.66-.62.25-1.69.29-3.47.29-.1-.39-.31-1.07-.53-1.46,1.34.04,2.57.02,2.94.02.35-.02.51-.12.51-.51v-15.53h1.42Z"/>
    <path class="st0" d="M406.37,38.56h-7.92v4.11h-1.52v-4.11h-7.9v-1.34h7.9v-1.6h1.52v1.6h7.92v1.34ZM394.18,33.49c-1.48.8-3.06,1.64-4.34,2.28l-.72-1.17c1.21-.49,3.02-1.34,4.77-2.18l.29,1.07ZM400.84,35.89c-.1-.31-.29-.66-.53-1.03-5.06.49-5.74.58-6.13.78-.08-.27-.27-.92-.43-1.26.45-.06.93-.43,1.62-.95.37-.31,1.21-1.07,2.14-2.02-2.24.17-2.67.27-2.96.39-.06-.27-.25-.92-.41-1.23.29-.04.56-.27.86-.62.25-.25.92-1.05,1.5-1.99h-7.09v-1.32h7.92c-.25-.49-.6-1.07-.9-1.52l1.4-.37c.43.56.9,1.34,1.15,1.89h7.22v1.32h-8.2c-.58.86-1.23,1.69-1.85,2.38l2.47-.16c.45-.51.91-1.05,1.3-1.62l1.19.68c-1.54,1.79-3.23,3.5-4.91,4.85l3.41-.27c-.31-.43-.64-.88-.95-1.25l1.07-.45c.88.99,1.85,2.36,2.24,3.27l-1.15.51ZM390.66,28.74c1.03.62,2.32,1.54,2.96,2.2l-1.01.88c-.6-.66-1.87-1.64-2.92-2.28l.97-.8ZM404.91,35.97c-.8-.76-2.45-1.93-3.82-2.73l1.03-.78c1.3.74,3,1.85,3.86,2.65l-1.07.86ZM405.24,29.43c-.88.9-2.01,1.83-2.9,2.43l-1.05-.68c.88-.62,2.08-1.69,2.75-2.49l1.21.74Z"/>
    <path class="st0" d="M411.3,29.86c0-.9.7-1.46,1.48-1.46s1.48.56,1.48,1.46-.7,1.46-1.48,1.46-1.48-.57-1.48-1.46ZM411.3,39.4c0-.9.7-1.48,1.48-1.48s1.48.58,1.48,1.48-.7,1.46-1.48,1.46-1.48-.58-1.48-1.46Z"/>
    <path class="st0" d="M427.82,30.64l-1.7.13c-.15-.67-.37-1.16-.65-1.46-.46-.49-1.03-.73-1.71-.73-.55,0-1.02.15-1.44.46-.54.39-.96.97-1.27,1.72-.31.75-.47,1.83-.48,3.22.41-.63.92-1.09,1.51-1.4s1.22-.46,1.87-.46c1.14,0,2.11.42,2.91,1.26.8.84,1.2,1.93,1.2,3.26,0,.87-.19,1.69-.57,2.44-.38.75-.89,1.33-1.55,1.73-.66.4-1.41.6-2.24.6-1.43,0-2.59-.52-3.49-1.57-.9-1.05-1.35-2.78-1.35-5.19,0-2.69.5-4.65,1.49-5.88.87-1.06,2.04-1.6,3.51-1.6,1.1,0,1.99.31,2.7.92.7.61,1.12,1.46,1.26,2.55ZM420.83,36.65c0,.59.12,1.15.38,1.69.25.54.6.95,1.05,1.23.45.28.92.42,1.42.42.72,0,1.34-.29,1.86-.87.52-.58.78-1.38.78-2.38s-.26-1.72-.77-2.28c-.51-.55-1.16-.83-1.94-.83s-1.43.28-1.97.83c-.54.56-.81,1.28-.81,2.18Z"/>
    <path class="st0" d="M431.21,41.17v-1.95h1.95v1.95h-1.95Z"/>
    <path class="st0" d="M436.26,29.05v-1.64h9.02v1.33c-.89.94-1.77,2.2-2.64,3.76-.87,1.57-1.55,3.17-2.02,4.83-.34,1.17-.56,2.44-.66,3.83h-1.76c.02-1.1.23-2.42.65-3.97.41-1.55,1-3.05,1.77-4.49.77-1.44,1.59-2.66,2.46-3.65h-6.83Z"/>
    <path class="st0" d="M452.95,41.17v-3.34h-6.05v-1.57l6.36-9.03h1.4v9.03h1.88v1.57h-1.88v3.34h-1.71ZM452.95,36.26v-6.28l-4.36,6.28h4.36Z"/>
    <path class="st0" d="M459.49,30.85c0-2.86,1.28-4.5,3.25-4.5s3.25,1.64,3.25,4.5-1.3,4.54-3.25,4.54-3.25-1.65-3.25-4.54ZM464.63,30.85c0-2.3-.76-3.39-1.89-3.39s-1.91,1.09-1.91,3.39.78,3.43,1.91,3.43,1.89-1.15,1.89-3.43ZM471.05,26.35h1.19l-7.9,14.83h-1.19l7.9-14.83ZM469.46,36.65c0-2.86,1.28-4.5,3.23-4.5s3.25,1.64,3.25,4.5-1.28,4.54-3.25,4.54-3.23-1.65-3.23-4.54ZM474.6,36.65c0-2.28-.76-3.39-1.91-3.39s-1.89,1.11-1.89,3.39.76,3.43,1.89,3.43,1.91-1.15,1.91-3.43Z"/>
    <path class="st0" d="M487.11,34.31c-1.05-.99-1.89-1.6-3.31-1.6-1.54,0-2.88,1.03-3.68,2.57l-1.38-.74c1.23-2.22,3.02-3.41,5.08-3.41,1.77,0,3.02.72,4.38,2.08,1.05.99,1.91,1.6,3.31,1.6,1.54,0,2.88-1.03,3.68-2.57l1.38.74c-1.23,2.22-3.02,3.41-5.08,3.41-1.77,0-3.02-.74-4.38-2.08Z"/>
    <path class="st0" d="M505.14,41.17h-1.71v-10.9c-.41.39-.95.79-1.62,1.18-.67.39-1.27.69-1.8.88v-1.65c.96-.45,1.79-1,2.51-1.64.72-.64,1.22-1.26,1.52-1.86h1.1v13.99Z"/>
    <path class="st0" d="M515.49,41.17v-3.34h-6.05v-1.57l6.36-9.03h1.4v9.03h1.88v1.57h-1.88v3.34h-1.71ZM515.49,36.26v-6.28l-4.36,6.28h4.36Z"/>
    <path class="st0" d="M522.28,41.17v-1.95h1.95v1.95h-1.95Z"/>
    <path class="st0" d="M527.47,37.94l1.64-.15c.14.77.41,1.33.8,1.68.39.35.9.52,1.51.52.53,0,.99-.12,1.38-.36.4-.24.72-.56.97-.96.25-.4.47-.95.64-1.63.17-.68.26-1.38.26-2.09,0-.08,0-.19,0-.34-.34.55-.81.99-1.4,1.33-.59.34-1.23.51-1.92.51-1.15,0-2.13-.42-2.93-1.25-.8-.84-1.2-1.94-1.2-3.31s.42-2.55,1.25-3.41c.83-.86,1.88-1.29,3.13-1.29.91,0,1.74.24,2.49.73.75.49,1.32,1.18,1.71,2.09.39.9.58,2.21.58,3.92s-.19,3.2-.58,4.25c-.39,1.05-.96,1.86-1.73,2.41-.76.55-1.66.83-2.69.83-1.09,0-1.98-.3-2.67-.91-.69-.6-1.11-1.46-1.25-2.55ZM534.48,31.79c0-.98-.26-1.76-.78-2.34-.52-.58-1.15-.86-1.89-.86s-1.42.31-1.99.93c-.56.62-.85,1.43-.85,2.42,0,.89.27,1.61.8,2.16.54.55,1.2.83,1.98.83s1.44-.28,1.95-.83c.51-.56.76-1.32.76-2.31Z"/>
    <path class="st0" d="M538.79,37.94l1.64-.15c.14.77.41,1.33.8,1.68.39.35.9.52,1.51.52.53,0,.99-.12,1.38-.36.4-.24.72-.56.97-.96.25-.4.47-.95.64-1.63.17-.68.26-1.38.26-2.09,0-.08,0-.19,0-.34-.34.55-.81.99-1.4,1.33-.59.34-1.23.51-1.92.51-1.15,0-2.13-.42-2.93-1.25-.8-.84-1.2-1.94-1.2-3.31s.42-2.55,1.25-3.41c.83-.86,1.88-1.29,3.13-1.29.91,0,1.74.24,2.49.73.75.49,1.32,1.18,1.71,2.09.39.9.58,2.21.58,3.92s-.19,3.2-.58,4.25c-.39,1.05-.96,1.86-1.73,2.41-.76.55-1.66.83-2.69.83-1.09,0-1.98-.3-2.67-.91-.69-.6-1.11-1.46-1.25-2.55ZM545.79,31.79c0-.98-.26-1.76-.78-2.34-.52-.58-1.15-.86-1.89-.86s-1.42.31-1.99.93c-.56.62-.85,1.43-.85,2.42,0,.89.27,1.61.8,2.16.53.55,1.2.83,1.98.83s1.44-.28,1.95-.83c.51-.56.76-1.32.76-2.31Z"/>
    <path class="st0" d="M550.56,30.85c0-2.86,1.29-4.5,3.25-4.5s3.25,1.64,3.25,4.5-1.3,4.54-3.25,4.54-3.25-1.65-3.25-4.54ZM555.7,30.85c0-2.3-.76-3.39-1.89-3.39s-1.91,1.09-1.91,3.39.78,3.43,1.91,3.43,1.89-1.15,1.89-3.43ZM562.12,26.35h1.19l-7.9,14.83h-1.19l7.9-14.83ZM560.52,36.65c0-2.86,1.29-4.5,3.23-4.5s3.25,1.64,3.25,4.5-1.28,4.54-3.25,4.54-3.23-1.65-3.23-4.54ZM565.66,36.65c0-2.28-.76-3.39-1.91-3.39s-1.89,1.11-1.89,3.39.76,3.43,1.89,3.43,1.91-1.15,1.91-3.43Z"/>
    <path class="st0" d="M573.49,33.77c0-3.8,1.54-6.89,3.87-9.27l1.17.6c-2.24,2.32-3.62,5.2-3.62,8.66s1.38,6.35,3.62,8.66l-1.17.6c-2.34-2.37-3.87-5.47-3.87-9.27Z"/>
    <path class="st0" d="M593.6,35.4c1.09,1.28,2.74,2.41,4.38,3-.33.27-.74.78-.95,1.11-1.89-.78-3.78-2.39-4.95-4.11h-6.09c-1.23,1.81-3.19,3.48-5.08,4.36-.21-.35-.6-.84-.93-1.11,1.62-.64,3.29-1.87,4.4-3.25h-4.21v-1.23h3.86v-6.21h-2.96v-1.21h2.96v-1.87h1.42v1.87h7.07v-1.87h1.46v1.87h2.92v1.21h-2.92v6.21h3.76v1.23h-4.13ZM589.63,40.89h6.72v1.23h-14.68v-1.23h6.52v-2.04h-3.97v-1.19h3.97v-1.64h1.44v1.64h4.07v1.19h-4.07v2.04ZM585.44,27.97v1.3h7.07v-1.3h-7.07ZM585.44,31.7h7.07v-1.34h-7.07v1.34ZM585.44,34.18h7.07v-1.38h-7.07v1.38Z"/>
    <path class="st0" d="M603.16,30.69c-.68-.47-2.08-1.07-3.15-1.44l.72-.99c1.07.29,2.45.88,3.15,1.28l-.72,1.15ZM617.63,38.87h-8.04v3.82h-1.44v-3.82h-7.88v-1.32h7.88v-1.42h1.44v1.42h8.04v1.32ZM600.55,35.42c1.03-.93,2.55-2.51,3.8-3.97l.78.97c-1.09,1.34-2.38,2.86-3.56,4.11l-1.01-1.11ZM604.56,27.58c-.7-.49-2.02-1.17-3.1-1.6l.72-.99c1.07.37,2.43.99,3.13,1.48l-.76,1.11ZM606.14,29.48c-.39.41-.76.76-1.15,1.09-.25-.25-.82-.7-1.15-.91,1.58-1.19,3.04-3,3.93-4.89l1.34.39c-.29.6-.62,1.23-1.01,1.81h3.1c-.23-.51-.51-1.07-.76-1.52l1.36-.39c.37.56.78,1.34,1.01,1.91h3.91v1.13h-4.28v1.46h3.68v.99h-3.68v1.4h3.74v.99h-3.74v1.5h4.61v1.19h-9.5v.84h-1.42v-6.99ZM611.07,28.1h-3.5v1.46h3.5v-1.46ZM611.07,30.56h-3.5v1.4h3.5v-1.4ZM611.07,32.95h-3.5v1.5h3.5v-1.5Z"/>
    <path class="st0" d="M635.27,26.21v16.14h-1.52v-1.19h-9.66v1.26h-1.46v-16.22h12.64ZM624.09,27.63v5.26h9.66v-5.26h-9.66ZM633.75,39.74v-5.43h-9.66v5.43h9.66Z"/>
    <path class="st0" d="M648.88,39.52v1.65h-9.21c-.01-.41.05-.81.2-1.19.23-.63.61-1.24,1.13-1.85.52-.61,1.26-1.31,2.24-2.11,1.51-1.24,2.54-2.23,3.07-2.95.53-.73.8-1.41.8-2.06s-.24-1.25-.73-1.71c-.48-.47-1.12-.7-1.9-.7-.82,0-1.48.25-1.98.74s-.74,1.18-.75,2.05l-1.76-.18c.12-1.31.57-2.31,1.36-3,.79-.69,1.84-1.03,3.17-1.03s2.4.37,3.18,1.11c.78.74,1.17,1.66,1.17,2.76,0,.56-.11,1.11-.34,1.65-.23.54-.61,1.11-1.14,1.7-.53.6-1.41,1.41-2.64,2.45-1.03.86-1.69,1.45-1.98,1.75-.29.31-.53.62-.72.93h6.84Z"/>
    <path class="st0" d="M651.21,34.29c0-1.65.17-2.97.51-3.98.34-1.01.84-1.78,1.51-2.32.67-.55,1.51-.82,2.52-.82.75,0,1.4.15,1.97.45.56.3,1.03.74,1.4,1.3.37.57.66,1.26.87,2.07.21.81.31,1.91.31,3.29,0,1.64-.17,2.95-.5,3.96-.34,1.01-.84,1.78-1.51,2.33-.67.55-1.51.82-2.53.82-1.34,0-2.4-.48-3.17-1.45-.92-1.16-1.38-3.05-1.38-5.67ZM652.96,34.29c0,2.29.27,3.81.8,4.57.53.76,1.2,1.14,1.98,1.14s1.45-.38,1.98-1.14c.54-.76.8-2.28.8-4.56s-.27-3.82-.8-4.57c-.54-.75-1.2-1.13-2-1.13s-1.41.33-1.88,1c-.59.85-.88,2.42-.88,4.71Z"/>
    <path class="st0" d="M671.51,39.52v1.65h-9.21c-.01-.41.05-.81.2-1.19.23-.63.61-1.24,1.13-1.85.52-.61,1.26-1.31,2.24-2.11,1.51-1.24,2.54-2.23,3.07-2.95.53-.73.8-1.41.8-2.06s-.24-1.25-.73-1.71c-.48-.47-1.12-.7-1.9-.7-.82,0-1.48.25-1.98.74-.49.49-.74,1.18-.75,2.05l-1.76-.18c.12-1.31.57-2.31,1.36-3,.79-.69,1.84-1.03,3.17-1.03s2.4.37,3.18,1.11c.78.74,1.17,1.66,1.17,2.76,0,.56-.11,1.11-.34,1.65-.23.54-.61,1.11-1.14,1.7-.53.6-1.41,1.41-2.64,2.45-1.03.86-1.69,1.45-1.98,1.75-.29.31-.53.62-.72.93h6.84Z"/>
    <path class="st0" d="M682.71,30.64l-1.7.13c-.15-.67-.37-1.16-.65-1.46-.46-.49-1.03-.73-1.71-.73-.55,0-1.02.15-1.44.46-.54.39-.96.97-1.27,1.72-.31.75-.47,1.83-.48,3.22.41-.63.92-1.09,1.51-1.4.6-.3,1.22-.46,1.87-.46,1.14,0,2.11.42,2.91,1.26.8.84,1.2,1.93,1.2,3.26,0,.87-.19,1.69-.57,2.44-.38.75-.89,1.33-1.55,1.73-.66.4-1.41.6-2.24.6-1.43,0-2.59-.52-3.49-1.57-.9-1.05-1.35-2.78-1.35-5.19,0-2.69.5-4.65,1.49-5.88.87-1.06,2.04-1.6,3.51-1.6,1.1,0,1.99.31,2.7.92.7.61,1.12,1.46,1.26,2.55ZM675.73,36.65c0,.59.12,1.15.38,1.69.25.54.6.95,1.05,1.23.45.28.92.42,1.42.42.72,0,1.34-.29,1.86-.87.52-.58.78-1.38.78-2.38s-.26-1.72-.77-2.28c-.51-.55-1.16-.83-1.94-.83s-1.43.28-1.97.83c-.54.56-.81,1.28-.81,2.18Z"/>
    <path class="st0" d="M684.34,41.4l4.04-14.41h1.37l-4.03,14.41h-1.38Z"/>
    <path class="st0" d="M691.05,37.52l1.8-.15c.13.87.44,1.53.93,1.97.49.44,1.07.66,1.75.66.82,0,1.52-.31,2.09-.93.57-.62.86-1.44.86-2.47s-.27-1.75-.82-2.31c-.55-.56-1.27-.85-2.15-.85-.55,0-1.05.13-1.49.38-.44.25-.79.57-1.05.97l-1.61-.21,1.35-7.16h6.93v1.64h-5.56l-.75,3.75c.84-.58,1.71-.87,2.63-.87,1.22,0,2.24.42,3.08,1.27.84.84,1.25,1.93,1.25,3.25s-.37,2.35-1.1,3.27c-.89,1.13-2.11,1.69-3.66,1.69-1.27,0-2.3-.35-3.1-1.06-.8-.71-1.26-1.65-1.37-2.82Z"/>
    <path class="st0" d="M701.55,41.4l4.04-14.41h1.37l-4.03,14.41h-1.38Z"/>
    <path class="st0" d="M714.7,41.17h-1.71v-10.9c-.41.39-.95.79-1.62,1.18-.67.39-1.27.69-1.8.88v-1.65c.96-.45,1.79-1,2.51-1.64.72-.64,1.22-1.26,1.52-1.86h1.1v13.99Z"/>
    <path class="st0" d="M724,33.77c0,3.8-1.54,6.89-3.87,9.27l-1.17-.6c2.24-2.32,3.62-5.2,3.62-8.66s-1.38-6.35-3.62-8.66l1.17-.6c2.34,2.38,3.87,5.47,3.87,9.27Z"/>
    <path class="st0" d="M234.69,59.45c.33-.72.72-1.79,1.05-2.84h-2.04v7.71c0,.76-.16,1.19-.72,1.4-.55.23-1.4.25-2.75.25-.06-.39-.25-.99-.45-1.36.99.02,1.89.02,2.14,0,.29,0,.37-.08.37-.31v-7.69h-3.19v-1.29h4.96c-1.01-.93-2.61-2.04-3.99-2.78l.78-.94c.62.33,1.3.74,1.97,1.15.66-.64,1.36-1.48,1.93-2.28h-5.22v-1.29h6.13l.29-.1.9.62c-.8,1.3-1.93,2.7-3.02,3.74.6.43,1.15.88,1.52,1.26l-.47.6h1.42l.21-.06.9.23c-.53,1.5-1.11,3.19-1.65,4.24l-1.07-.29ZM240.94,63.44c-1.07,1.01-2.86,2.06-4.42,2.63-.21-.27-.68-.72-.95-.97,1.52-.55,3.27-1.54,4.11-2.39l1.27.74ZM240.68,52.24c.14-.58.27-1.25.37-1.85h-4.05v-1.25h9.81v1.25h-4.17c-.18.64-.37,1.29-.55,1.85h4.03v10.08h-8.39v-10.08h2.94ZM244.77,53.37h-5.68v1.89h5.68v-1.89ZM244.77,56.29h-5.68v1.91h5.68v-1.91ZM244.77,59.29h-5.68v1.91h5.68v-1.91ZM243.76,62.78c1.17.68,2.67,1.73,3.45,2.45l-1.13.84c-.74-.72-2.22-1.81-3.41-2.55l1.09-.74Z"/>
    <path class="st0" d="M255.13,48.72c-.56,1.44-1.25,2.88-2.02,4.22v13.04h-1.38v-10.9c-.6.88-1.27,1.67-1.93,2.36-.16-.35-.56-1.09-.82-1.4,1.91-1.87,3.7-4.77,4.79-7.73l1.36.41ZM266.75,54.62v1.32h-11.7v-1.32h2.92v-2.55h-2.38v-1.29h2.38v-2.53h1.38v2.53h3.11v-2.53h1.4v2.53h2.49v1.29h-2.49v2.55h2.88ZM256.69,57.48h8.66v8.49h-1.46v-.82h-5.78v.86h-1.42v-8.53ZM258.11,58.73v1.99h5.78v-1.99h-5.78ZM263.89,63.94v-2.04h-5.78v2.04h5.78ZM259.36,54.62h3.11v-2.55h-3.11v2.55Z"/>
    <path class="st0" d="M276.18,60.93c-2.43.72-5.02,1.48-6.91,2.04l-.39-1.38c.86-.21,1.91-.49,3.06-.82v-4.71h-2.45v-1.34h2.45v-4.15h-2.69v-1.32h6.64v1.32h-2.57v4.15h2.4v1.34h-2.4v4.34l2.69-.76.18,1.29ZM285.31,64.63c.45,0,.53-.29.58-2.3.27.25.86.47,1.21.57-.1,2.38-.47,2.98-1.64,2.98h-1.89c-1.38,0-1.73-.41-1.73-1.81v-4.32h-1.91c-.39,3.1-1.44,5.22-5.22,6.38-.14-.33-.53-.91-.82-1.19,3.43-.94,4.3-2.69,4.61-5.2h-1.73v-10.65h9.09v10.65h-2.65v4.32c0,.49.08.57.56.57h1.52ZM278.14,52.26h6.31v-1.95h-6.31v1.95ZM278.14,55.36h6.31v-1.95h-6.31v1.95ZM278.14,58.51h6.31v-1.99h-6.31v1.99Z"/>
    <path class="st0" d="M298.61,55.38v2.65h6.79v1.32h-6.79v4.75h7.67v1.34h-16.72v-1.34h7.55v-4.75h-6.68v-1.32h6.68v-2.65h-4.21v-1.07c-.99.55-2.04,1.03-3.1,1.42-.21-.41-.6-.99-.97-1.32,3.62-1.19,7.2-3.47,9.05-6.35l1.32.62c-.14.21-.31.47-.49.7,1.93,2.06,5.35,4.09,8.31,5.02-.35.29-.8.88-1.01,1.26-1.01-.39-2.08-.89-3.13-1.5v1.21h-4.28ZM293.25,59.78c.76,1.09,1.56,2.55,1.87,3.49l-1.27.52c-.27-.89-1.05-2.43-1.79-3.52l1.19-.49ZM302.66,54.04c-1.75-1.03-3.47-2.34-4.73-3.66-1.28,1.4-2.84,2.65-4.56,3.66h9.29ZM300.38,63.36c.68-.95,1.56-2.49,2.02-3.58l1.36.53c-.7,1.23-1.6,2.61-2.3,3.52l-1.09-.47Z"/>
    <path class="st0" d="M326.6,59.68h-7.98v4.32c0,1.03-.31,1.46-1.03,1.69-.72.23-1.97.27-4.01.25-.12-.41-.39-1.05-.62-1.44,1.64.06,3.15.04,3.6.02.43,0,.6-.14.6-.55v-4.3h-8v-1.42h8v-3.15h-6.7v-1.38h6.7v-3c-2.14.23-4.34.37-6.35.47-.06-.39-.23-.95-.37-1.29,4.59-.21,10.24-.72,13.16-1.64l1.09,1.15c-1.65.51-3.78.88-6.07,1.15v3.15h6.89v1.38h-6.89v3.15h7.98v1.42Z"/>
    <path class="st0" d="M330.95,60.87c-.23,1.79-.58,3.76-1.01,5-.25-.12-.82-.29-1.13-.39.49-1.27.8-3.13.97-4.81l1.17.19ZM334.33,60.07c-.04-.31-.1-.72-.19-1.13-3.78.58-4.38.7-4.71.89-.06-.29-.27-.92-.43-1.26.39-.08.8-.56,1.34-1.3.29-.33.88-1.17,1.56-2.24-1.93.23-2.34.29-2.59.43-.08-.25-.29-.88-.43-1.21.31-.08.62-.51.99-1.09.39-.56,1.65-2.82,2.36-4.94l1.25.53c-.78,1.83-1.75,3.74-2.76,5.2l1.91-.15c.51-.84.95-1.75,1.36-2.63l1.15.68c-1.15,2.26-2.59,4.54-4.07,6.35l2.8-.35c-.17-.66-.35-1.34-.56-1.93l1.03-.25c.49,1.34.95,3.08,1.09,4.11l-1.09.31ZM332.66,60.6c.23,1.42.47,3.25.53,4.48l-1.11.2c-.02-1.23-.23-3.08-.47-4.5l1.05-.18ZM334.29,60.13c.43,1.15.88,2.65,1.07,3.6l-1.01.33c-.17-.99-.62-2.49-.99-3.64l.93-.29ZM342.66,63.26c1.44.52,2.96,1.21,3.95,1.67l-.6,1.03c-1.03-.51-2.65-1.27-4.09-1.85l.49-.86h-3.33l1.03.88c-1.48.68-3.33,1.44-4.65,1.97-.14-.31-.39-.74-.6-1.03,1.27-.47,3.11-1.25,4.17-1.81h-3.02v-5.71h9.6v5.71h-2.94ZM340.21,50.32h-4.96v-1.01h4.96v-1.05h1.42v1.05h4.75v1.01h-4.75v1.05h3.97v.97h-9.54v-.97h4.15v-1.05ZM335.38,53.14h10.84v3.56h-10.84v-3.56ZM336.61,55.71h2.2v-1.6h-2.2v1.6ZM337.31,59.25h6.93v-.82h-6.93v.82ZM337.31,60.79h6.93v-.84h-6.93v.84ZM337.31,62.39h6.93v-.89h-6.93v.89ZM341.96,55.71v-1.6h-2.02v1.6h2.02ZM344.94,54.11h-1.85v1.6h1.85v-1.6Z"/>
    <path class="st0" d="M356.2,63.75c-1.6.89-4.05,1.77-6.02,2.28-.21-.29-.72-.84-1.03-1.09,1.99-.37,4.36-1.05,5.74-1.77l1.3.58ZM360.87,63.15c2.02.58,4.15,1.32,5.47,1.89l-1.09.9c-1.3-.6-3.5-1.42-5.72-2.08l.72-.7h-8.63v-6.17c-.51.15-1.09.29-1.73.43-.14-.33-.45-.86-.68-1.13,2.45-.45,3.87-1.07,4.69-1.81h-3.31c.18-.86.37-2.06.49-3.08h3.87v-1.11h-4.75v-.95h4.75v-1.07h1.32v1.07h3v-1.07h1.36v1.07h4.34v3.02h-4.34v1.17h5.55s-.02.29-.04.47c-.12,1.05-.23,1.62-.51,1.87-.25.23-.55.33-.93.35-.14,0-.31.02-.51.02v6.93h-3.33ZM352.23,52.34c-.06.41-.12.8-.18,1.17h2.57c.17-.37.25-.76.29-1.17h-2.69ZM362.76,56.78h-9.73v1.21h9.73v-1.21ZM362.76,58.88h-9.73v1.19h9.73v-1.19ZM353.02,62.21h9.73v-1.23h-9.73v1.23ZM355.65,54.46c-.29.51-.74.97-1.38,1.38h8.7c-.04-.21-.14-.45-.23-.62.58.06,1.11.08,1.32.08s.35-.02.45-.14c.1-.1.18-.29.23-.7h-4.11v1.34h-1.36v-1.34h-3.62ZM359.27,52.34h-3.04c-.02.41-.08.8-.2,1.17h3.23v-1.17ZM356.27,51.39h3v-1.11h-3v1.11ZM360.64,50.28v1.11h3.02v-1.11h-3.02Z"/>
    <path class="st0" d="M371.38,53.23c0-.9.7-1.46,1.48-1.46s1.48.56,1.48,1.46-.7,1.46-1.48,1.46-1.48-.57-1.48-1.46ZM371.38,62.76c0-.9.7-1.48,1.48-1.48s1.48.58,1.48,1.48-.7,1.46-1.48,1.46-1.48-.58-1.48-1.46Z"/>
    <path class="st0" d="M384.6,59.45c.33-.72.72-1.79,1.05-2.84h-2.04v7.71c0,.76-.16,1.19-.72,1.4-.55.23-1.4.25-2.75.25-.06-.39-.25-.99-.45-1.36.99.02,1.89.02,2.14,0,.29,0,.37-.08.37-.31v-7.69h-3.19v-1.29h4.96c-1.01-.93-2.61-2.04-3.99-2.78l.78-.94c.62.33,1.3.74,1.97,1.15.66-.64,1.36-1.48,1.93-2.28h-5.22v-1.29h6.13l.29-.1.9.62c-.8,1.3-1.93,2.7-3.02,3.74.6.43,1.15.88,1.52,1.26l-.47.6h1.42l.21-.06.9.23c-.53,1.5-1.11,3.19-1.65,4.24l-1.07-.29ZM390.85,63.44c-1.07,1.01-2.86,2.06-4.42,2.63-.21-.27-.68-.72-.95-.97,1.52-.55,3.27-1.54,4.11-2.39l1.27.74ZM390.6,52.24c.14-.58.27-1.25.37-1.85h-4.05v-1.25h9.81v1.25h-4.17c-.18.64-.37,1.29-.55,1.85h4.03v10.08h-8.39v-10.08h2.94ZM394.69,53.37h-5.68v1.89h5.68v-1.89ZM394.69,56.29h-5.68v1.91h5.68v-1.91ZM394.69,59.29h-5.68v1.91h5.68v-1.91ZM393.68,62.78c1.17.68,2.67,1.73,3.45,2.45l-1.13.84c-.74-.72-2.22-1.81-3.41-2.55l1.09-.74Z"/>
    <path class="st0" d="M405.05,48.72c-.56,1.44-1.25,2.88-2.02,4.22v13.04h-1.38v-10.9c-.6.88-1.27,1.67-1.93,2.36-.16-.35-.56-1.09-.82-1.4,1.91-1.87,3.7-4.77,4.79-7.73l1.36.41ZM416.67,54.62v1.32h-11.7v-1.32h2.92v-2.55h-2.38v-1.29h2.38v-2.53h1.38v2.53h3.11v-2.53h1.4v2.53h2.49v1.29h-2.49v2.55h2.88ZM406.6,57.48h8.66v8.49h-1.46v-.82h-5.78v.86h-1.42v-8.53ZM408.02,58.73v1.99h5.78v-1.99h-5.78ZM413.81,63.94v-2.04h-5.78v2.04h5.78ZM409.27,54.62h3.11v-2.55h-3.11v2.55Z"/>
    <path class="st0" d="M426.09,60.93c-2.43.72-5.02,1.48-6.91,2.04l-.39-1.38c.86-.21,1.91-.49,3.06-.82v-4.71h-2.45v-1.34h2.45v-4.15h-2.69v-1.32h6.64v1.32h-2.57v4.15h2.4v1.34h-2.4v4.34l2.69-.76.18,1.29ZM435.22,64.63c.45,0,.53-.29.58-2.3.27.25.86.47,1.21.57-.1,2.38-.47,2.98-1.64,2.98h-1.89c-1.38,0-1.73-.41-1.73-1.81v-4.32h-1.91c-.39,3.1-1.44,5.22-5.22,6.38-.14-.33-.53-.91-.82-1.19,3.43-.94,4.3-2.69,4.61-5.2h-1.73v-10.65h9.09v10.65h-2.65v4.32c0,.49.08.57.56.57h1.52ZM428.06,52.26h6.31v-1.95h-6.31v1.95ZM428.06,55.36h6.31v-1.95h-6.31v1.95ZM428.06,58.51h6.31v-1.99h-6.31v1.99Z"/>
    <path class="st0" d="M448.52,55.38v2.65h6.79v1.32h-6.79v4.75h7.67v1.34h-16.72v-1.34h7.55v-4.75h-6.68v-1.32h6.68v-2.65h-4.21v-1.07c-.99.55-2.04,1.03-3.1,1.42-.21-.41-.6-.99-.97-1.32,3.62-1.19,7.2-3.47,9.05-6.35l1.32.62c-.14.21-.31.47-.49.7,1.93,2.06,5.35,4.09,8.31,5.02-.35.29-.8.88-1.01,1.26-1.01-.39-2.08-.89-3.13-1.5v1.21h-4.28ZM443.17,59.78c.76,1.09,1.56,2.55,1.87,3.49l-1.27.52c-.27-.89-1.05-2.43-1.79-3.52l1.19-.49ZM452.57,54.04c-1.75-1.03-3.47-2.34-4.73-3.66-1.28,1.4-2.84,2.65-4.56,3.66h9.29ZM450.29,63.36c.68-.95,1.56-2.49,2.02-3.58l1.36.53c-.7,1.23-1.6,2.61-2.3,3.52l-1.09-.47Z"/>
    <path class="st0" d="M468.48,55.38v2.65h6.79v1.32h-6.79v4.75h7.67v1.34h-16.72v-1.34h7.55v-4.75h-6.68v-1.32h6.68v-2.65h-4.21v-1.07c-.99.55-2.04,1.03-3.1,1.42-.21-.41-.6-.99-.97-1.32,3.62-1.19,7.2-3.47,9.05-6.35l1.32.62c-.14.21-.31.47-.49.7,1.93,2.06,5.35,4.09,8.31,5.02-.35.29-.8.88-1.01,1.26-1.01-.39-2.08-.89-3.13-1.5v1.21h-4.28ZM463.12,59.78c.76,1.09,1.56,2.55,1.87,3.49l-1.27.52c-.27-.89-1.05-2.43-1.79-3.52l1.19-.49ZM472.53,54.04c-1.75-1.03-3.47-2.34-4.73-3.66-1.28,1.4-2.84,2.65-4.56,3.66h9.29ZM470.25,63.36c.68-.95,1.56-2.49,2.02-3.58l1.36.53c-.7,1.23-1.6,2.61-2.3,3.52l-1.09-.47Z"/>
    <path class="st0" d="M486.6,60.15l-.14-.1v5.86h-1.29v-.57h-3.48v.6h-1.25v-5.68c-.33.18-.66.33-.99.45-.14-.33-.51-.94-.76-1.19,1.32-.49,2.65-1.21,3.78-2.14-.51-.33-1.01-.62-1.46-.89l.82-.86c.47.25,1.01.56,1.56.89.58-.64,1.11-1.34,1.5-2.1h-2.76c-.58.88-1.3,1.69-2.22,2.4-.17-.29-.55-.78-.78-.97,1.5-1.05,2.45-2.57,2.92-3.89l1.15.21c-.14.39-.27.76-.47,1.13h2.84l.21-.06.74.55c-.51,1.28-1.21,2.41-2.06,3.39,1.17.7,2.28,1.42,3,1.95l-.86,1.03ZM480.39,53.37h-1.11v-3.27h3.52c-.18-.49-.39-.99-.58-1.44l1.13-.41c.27.56.62,1.3.84,1.85h3.25v3.27h-1.17v-2.06h-5.88v2.06ZM486.45,60.03c-.7-.53-1.75-1.25-2.86-1.95-.82.78-1.75,1.44-2.69,1.95h5.55ZM485.18,64.16v-2.94h-3.48v2.94h3.48ZM491.7,63.61c-1.13.92-2.78,1.91-4.03,2.51-.16-.29-.45-.78-.66-1.07,1.23-.57,2.82-1.54,3.7-2.36l.99.92ZM491.18,52.34c.14-.58.27-1.3.37-1.93h-3.5v-1.25h8.47v1.25h-3.6c-.2.66-.37,1.34-.55,1.93h3.52v10.05h-7.28v-10.05h2.57ZM494.49,53.51h-4.54v1.81h4.54v-1.81ZM494.49,56.43h-4.54v1.83h4.54v-1.83ZM494.49,59.37h-4.54v1.83h4.54v-1.83ZM493.46,62.66c1.07.64,2.47,1.67,3.19,2.39l-.82,1.03c-.68-.72-2.08-1.81-3.17-2.51l.8-.91Z"/>
    <path class="st0" d="M499.48,60.64l2.99-2.99-2.99-2.99,1.16-1.16,2.99,2.99,2.98-2.97,1.14,1.15-2.97,2.97,2.99,2.99-1.16,1.16-2.99-2.98-2.99,2.99-1.15-1.15Z"/>
    <path class="st0" d="M510.63,60.85l1.71-.23c.2.97.53,1.67,1,2.1.47.43,1.05.64,1.73.64.8,0,1.48-.28,2.04-.84.55-.56.83-1.25.83-2.07s-.26-1.43-.77-1.94c-.51-.51-1.17-.77-1.96-.77-.32,0-.73.06-1.21.19l.19-1.5c.11.01.21.02.28.02.73,0,1.38-.19,1.97-.57.58-.38.87-.97.87-1.76,0-.63-.21-1.15-.64-1.56-.42-.41-.97-.62-1.64-.62s-1.22.21-1.66.63c-.44.42-.73,1.05-.86,1.88l-1.71-.3c.21-1.15.68-2.04,1.43-2.67.74-.63,1.66-.95,2.77-.95.76,0,1.46.16,2.1.49.64.33,1.13.77,1.47,1.34.34.56.51,1.16.51,1.8s-.16,1.15-.48,1.64c-.32.49-.8.89-1.44,1.18.82.19,1.46.58,1.92,1.18.46.6.68,1.35.68,2.25,0,1.22-.44,2.25-1.33,3.1-.89.85-2.01,1.27-3.37,1.27-1.22,0-2.24-.36-3.05-1.09-.81-.73-1.27-1.67-1.38-2.83Z"/>
    <path class="st0" d="M522.64,54.21c0-2.86,1.29-4.5,3.25-4.5s3.25,1.64,3.25,4.5-1.3,4.54-3.25,4.54-3.25-1.65-3.25-4.54ZM527.78,54.21c0-2.3-.76-3.39-1.89-3.39s-1.91,1.09-1.91,3.39.78,3.43,1.91,3.43,1.89-1.15,1.89-3.43ZM534.21,49.71h1.19l-7.9,14.83h-1.19l7.9-14.83ZM532.61,60.01c0-2.86,1.29-4.5,3.23-4.5s3.25,1.64,3.25,4.5-1.28,4.54-3.25,4.54-3.23-1.65-3.23-4.54ZM537.75,60.01c0-2.28-.76-3.39-1.91-3.39s-1.89,1.11-1.89,3.39.76,3.43,1.89,3.43,1.91-1.15,1.91-3.43Z"/>
    <path class="st0" d="M557.88,57.89h-6.4v6.41h-1.32v-6.41h-6.41v-1.34h6.41v-6.41h1.32v6.41h6.4v1.34Z"/>
    <path class="st0" d="M562.52,64.53v-13.94h1.89l7.32,10.94v-10.94h1.77v13.94h-1.89l-7.32-10.95v10.95h-1.77Z"/>
    <path class="st0" d="M580.63,64.53v-12.29h-4.59v-1.64h11.05v1.64h-4.61v12.29h-1.84Z"/>
    <path class="st0" d="M592.81,66.53v-1.71c-.86-.11-1.55-.3-2.09-.57-.54-.28-1-.72-1.39-1.34-.39-.61-.62-1.37-.68-2.25l1.72-.32c.13.92.37,1.59.7,2.03.48.61,1.06.95,1.73,1.02v-5.45c-.7-.13-1.42-.41-2.16-.82-.55-.3-.97-.73-1.26-1.26-.3-.54-.44-1.15-.44-1.83,0-1.22.43-2.2,1.29-2.96.58-.51,1.43-.82,2.57-.93v-.82h1.01v.82c1,.09,1.78.39,2.37.87.75.62,1.2,1.47,1.35,2.56l-1.77.27c-.1-.67-.31-1.19-.63-1.55-.32-.36-.76-.59-1.32-.71v4.93c.86.22,1.43.38,1.71.5.53.23.97.52,1.3.85.34.34.59.74.78,1.2.18.46.27.96.27,1.5,0,1.19-.38,2.18-1.13,2.97-.75.79-1.73,1.22-2.93,1.28v1.73h-1.01ZM592.81,51.55c-.67.1-1.19.37-1.57.8-.38.43-.58.94-.58,1.53s.16,1.07.49,1.46c.33.39.88.71,1.66.94v-4.74ZM593.82,63.38c.67-.08,1.21-.37,1.65-.86.43-.49.65-1.11.65-1.84,0-.62-.15-1.12-.46-1.5-.31-.38-.92-.71-1.84-1.01v5.21Z"/>
    <path class="st0" d="M606.53,64.53h-1.71v-10.9c-.41.39-.95.79-1.62,1.18-.67.39-1.27.69-1.8.88v-1.65c.96-.45,1.79-1,2.51-1.64.72-.64,1.22-1.26,1.52-1.86h1.1v13.99Z"/>
    <path class="st0" d="M611.4,60.88l1.8-.15c.13.87.44,1.53.93,1.97.49.44,1.07.66,1.75.66.82,0,1.52-.31,2.09-.93.57-.62.86-1.44.86-2.47s-.27-1.75-.82-2.31c-.55-.56-1.27-.85-2.15-.85-.55,0-1.05.13-1.49.38-.44.25-.79.57-1.05.97l-1.61-.21,1.35-7.16h6.93v1.64h-5.56l-.75,3.75c.84-.58,1.71-.87,2.63-.87,1.22,0,2.24.42,3.08,1.27.84.84,1.25,1.93,1.25,3.25s-.37,2.35-1.1,3.27c-.89,1.13-2.11,1.69-3.66,1.69-1.27,0-2.3-.35-3.1-1.06-.8-.71-1.26-1.65-1.37-2.82Z"/>
    <path class="st0" d="M622.72,57.66c0-1.65.17-2.97.51-3.98.34-1.01.84-1.78,1.51-2.32s1.51-.82,2.52-.82c.75,0,1.4.15,1.97.45.56.3,1.03.74,1.4,1.3.37.57.66,1.26.87,2.07.21.81.31,1.91.31,3.29,0,1.64-.17,2.95-.5,3.96-.34,1.01-.84,1.78-1.51,2.33-.67.55-1.51.82-2.53.82-1.34,0-2.4-.48-3.17-1.45-.92-1.16-1.38-3.05-1.38-5.67ZM624.48,57.66c0,2.29.27,3.81.8,4.57.53.76,1.2,1.14,1.98,1.14s1.45-.38,1.98-1.14c.54-.76.8-2.28.8-4.56s-.27-3.82-.8-4.57c-.54-.75-1.2-1.13-2-1.13s-1.41.33-1.88,1c-.59.85-.88,2.42-.88,4.71Z"/>
    <path class="st0" d="M236.63,86.47c-1.73,1.07-4.36,2.18-6.44,2.88-.21-.31-.64-.8-.95-1.11,2.1-.62,4.75-1.73,6.11-2.67l1.29.9ZM246.62,85.23h-17.19v-1.34h3.56v-8.64h-3.02v-1.36h3.02v-2.24h1.42v2.24h7.2v-2.24h1.44v2.24h3.11v1.36h-3.11v8.64h3.56v1.34ZM234.42,75.24v1.93h7.2v-1.93h-7.2ZM234.42,80.51h7.2v-2.1h-7.2v2.1ZM234.42,83.88h7.2v-2.12h-7.2v2.12ZM240.43,85.67c2.28.8,4.75,1.87,6.25,2.69l-1.29.95c-1.38-.82-3.68-1.89-5.94-2.73l.97-.92Z"/>
    <path class="st0" d="M254.84,72.1c-.55,1.44-1.25,2.9-2.02,4.24v13h-1.38v-10.88c-.6.88-1.27,1.66-1.93,2.34-.14-.33-.55-1.07-.82-1.4,1.91-1.87,3.72-4.77,4.81-7.73l1.34.43ZM264.11,87.89c1.17,0,1.38-.53,1.54-2.8.35.23.92.47,1.32.55-.25,2.71-.7,3.56-2.82,3.56h-5.12c-2.3,0-2.98-.55-2.98-2.69v-6.38l-1.93.74-.55-1.26,2.47-.97v-5.06h1.36v4.54l2.86-1.13v-5.33h1.32v4.83l3.23-1.25.27-.21,1.07.33-.06.27c-.06,2.8-.25,6.52-.56,8.82l-1.19-.35c.2-1.83.31-4.81.35-7.34l-3.11,1.21v7.13h-1.32v-6.6l-2.86,1.13v6.91c0,1.13.27,1.38,1.64,1.38h5.06Z"/>
    <path class="st0" d="M276.37,87.11c-1.6.89-4.05,1.77-6.02,2.28-.21-.29-.72-.84-1.03-1.09,1.99-.37,4.36-1.05,5.74-1.77l1.3.58ZM281.04,86.51c2.02.58,4.15,1.32,5.47,1.89l-1.09.9c-1.3-.6-3.5-1.42-5.72-2.08l.72-.7h-8.63v-6.17c-.51.15-1.09.29-1.73.43-.14-.33-.45-.86-.68-1.13,2.45-.45,3.87-1.07,4.69-1.81h-3.31c.18-.86.37-2.06.49-3.08h3.87v-1.11h-4.75v-.95h4.75v-1.07h1.32v1.07h3v-1.07h1.36v1.07h4.34v3.02h-4.34v1.17h5.55s-.02.29-.04.47c-.12,1.05-.23,1.62-.51,1.87-.25.23-.55.33-.93.35-.14,0-.31.02-.51.02v6.93h-3.33ZM272.4,75.7c-.06.41-.12.8-.18,1.17h2.57c.17-.37.25-.76.29-1.17h-2.69ZM282.93,80.14h-9.73v1.21h9.73v-1.21ZM282.93,82.25h-9.73v1.19h9.73v-1.19ZM273.2,85.58h9.73v-1.23h-9.73v1.23ZM275.83,77.83c-.29.51-.74.97-1.38,1.38h8.7c-.04-.21-.14-.45-.23-.62.58.06,1.11.08,1.32.08s.35-.02.45-.14c.1-.1.18-.29.23-.7h-4.11v1.34h-1.36v-1.34h-3.62ZM279.45,75.7h-3.04c-.02.41-.08.8-.2,1.17h3.23v-1.17ZM276.45,74.75h3v-1.11h-3v1.11ZM280.81,73.64v1.11h3.02v-1.11h-3.02Z"/>
    <path class="st0" d="M305.38,87.42c0,.94-.25,1.36-.88,1.62-.66.23-1.79.25-3.62.23-.06-.39-.29-1.01-.49-1.4,1.36.06,2.69.04,3.04.04.39-.02.53-.14.53-.51v-3.95h-5.24v5.74h-1.44v-5.74h-4.87c-.29,2.16-.95,4.38-2.43,6.03-.21-.29-.8-.78-1.11-.95,2.14-2.41,2.34-5.84,2.34-8.55v-7.01h14.17v14.44ZM297.28,82.07v-3.23h-4.65v1.15c0,.64-.02,1.36-.08,2.08h4.73ZM292.63,74.36v3.12h4.65v-3.12h-4.65ZM303.96,74.36h-5.24v3.12h5.24v-3.12ZM303.96,82.07v-3.23h-5.24v3.23h5.24Z"/>
    <path class="st0" d="M309.06,74.87h6.68v1.19h-6.68v-1.19ZM315.17,78.47h-5.67v-1.15h5.67v1.15ZM309.53,79.95h5.67v1.15h-5.67v-1.15ZM315.14,88.24h-4.26v.9h-1.26v-6.52h5.53v5.63ZM310.87,83.8v3.25h2.98v-3.25h-2.98ZM312.33,74.65c-.17-.7-.62-1.81-.97-2.63l1.21-.37c.41.8.84,1.87,1.01,2.55l-1.25.45ZM325.63,87.87c0,.7-.14,1.05-.66,1.26-.49.21-1.29.21-2.51.21-.06-.37-.21-.86-.41-1.21.88.04,1.67.04,1.91.02.25,0,.31-.08.31-.29v-1.66h-6.04c-.21,1.23-.6,2.45-1.4,3.41-.21-.27-.72-.8-1.01-.95,1.15-1.46,1.28-3.43,1.28-4.96v-3.58h8.53v7.75ZM326.76,77.87v1.11h-10.81v-1.11h4.59v-1.32h-3.89v-1.05h3.89v-1.19h-4.38v-1.11h4.38v-1.58h1.42v1.58h4.59v1.11h-4.59v1.19h4.22v1.05h-4.22v1.32h4.79ZM324.27,85.19v-1.44h-5.84c0,.45-.02.94-.06,1.44h5.9ZM318.43,81.27v1.44h5.84v-1.44h-5.84Z"/>
    <path class="st0" d="M346.48,87.27v1.36h-17.27v-1.36h7.85v-3.58h-6.15v-1.34h6.15v-2.53h1.46v2.53h6.33v1.34h-6.33v3.58h7.96ZM344.5,80.28c-.31-.41-.74-.89-1.25-1.4-10.49.51-11.54.55-12.27.8-.08-.33-.29-1.05-.47-1.44.37-.06.82-.39,1.34-.9.49-.41,1.81-1.75,2.92-3.29h-5.14v-1.36h16.22v1.36h-9.19c-1.15,1.5-2.39,2.9-3.62,4.01l8.99-.37c-.8-.72-1.64-1.44-2.41-2.04l1.15-.74c1.75,1.3,3.91,3.19,4.94,4.5l-1.23.88Z"/>
    <path class="st0" d="M351.19,87.89l-3.09-10.1h1.77l1.61,5.83.6,2.17c.03-.11.2-.8.52-2.08l1.61-5.91h1.76l1.51,5.86.5,1.93.58-1.95,1.73-5.84h1.66l-3.16,10.1h-1.78l-1.61-6.05-.39-1.72-2.04,7.77h-1.79Z"/>
    <path class="st0" d="M365.73,87.89l-3.09-10.1h1.77l1.61,5.83.6,2.17c.03-.11.2-.8.52-2.08l1.61-5.91h1.76l1.51,5.86.5,1.93.58-1.95,1.73-5.84h1.66l-3.16,10.1h-1.78l-1.61-6.05-.39-1.72-2.04,7.77h-1.79Z"/>
    <path class="st0" d="M380.28,87.89l-3.09-10.1h1.77l1.61,5.83.6,2.17c.03-.11.2-.8.52-2.08l1.61-5.91h1.76l1.51,5.86.5,1.93.58-1.95,1.73-5.84h1.66l-3.16,10.1h-1.78l-1.61-6.05-.39-1.72-2.04,7.77h-1.79Z"/>
    <path class="st0" d="M392.37,87.89v-1.95h1.95v1.95h-1.95Z"/>
    <path class="st0" d="M398.19,87.89v-8.77h-1.51v-1.33h1.51v-1.07c0-.68.06-1.18.18-1.51.16-.44.45-.8.87-1.08.41-.28,1-.41,1.74-.41.48,0,1.01.06,1.6.17l-.26,1.49c-.35-.06-.69-.1-1.01-.1-.52,0-.89.11-1.1.33-.22.22-.32.64-.32,1.24v.93h1.97v1.33h-1.97v8.77h-1.7Z"/>
    <path class="st0" d="M410.59,84.64l1.77.22c-.28,1.03-.8,1.83-1.55,2.4-.75.57-1.72.86-2.89.86-1.48,0-2.65-.46-3.51-1.36-.86-.91-1.3-2.19-1.3-3.83s.44-3.02,1.31-3.95c.87-.94,2.01-1.41,3.4-1.41s2.45.46,3.31,1.38c.86.92,1.28,2.21,1.28,3.88,0,.1,0,.25,0,.46h-7.53c.06,1.11.38,1.96.94,2.55.56.59,1.27.88,2.11.88.63,0,1.16-.16,1.61-.49.44-.33.8-.86,1.06-1.58ZM404.97,81.87h5.64c-.08-.85-.29-1.49-.65-1.91-.55-.66-1.25-.99-2.12-.99-.79,0-1.45.26-1.98.79-.54.53-.83,1.23-.89,2.11Z"/>
    <path class="st0" d="M415.01,75.92v-1.97h1.71v1.97h-1.71ZM415.01,87.89v-10.1h1.71v10.1h-1.71Z"/>
    <path class="st0" d="M421.39,87.89h-1.59v-13.94h1.71v4.97c.72-.91,1.64-1.36,2.77-1.36.62,0,1.21.13,1.76.38.55.25,1.01.6,1.37,1.06.36.45.64,1,.84,1.64.2.64.3,1.32.3,2.05,0,1.73-.43,3.07-1.28,4.01-.86.95-1.88,1.42-3.08,1.42s-2.13-.5-2.8-1.49v1.26ZM421.37,82.77c0,1.21.16,2.09.49,2.62.54.88,1.27,1.32,2.19,1.32.75,0,1.39-.32,1.94-.97.55-.65.82-1.62.82-2.9s-.26-2.29-.78-2.92c-.52-.63-1.16-.94-1.9-.94s-1.39.32-1.94.97c-.55.65-.82,1.59-.82,2.82Z"/>
    <path class="st0" d="M431.61,87.89v-1.95h1.95v1.95h-1.95Z"/>
    <path class="st0" d="M443.61,84.19l1.68.22c-.18,1.16-.65,2.07-1.41,2.72-.76.66-1.69.98-2.79.98-1.38,0-2.49-.45-3.33-1.36-.84-.9-1.26-2.2-1.26-3.88,0-1.09.18-2.04.54-2.86.36-.82.91-1.43,1.65-1.84.74-.41,1.54-.61,2.41-.61,1.1,0,1.99.28,2.69.83.7.56,1.14,1.34,1.34,2.36l-1.66.26c-.16-.68-.44-1.19-.84-1.53-.4-.34-.89-.51-1.46-.51-.86,0-1.56.31-2.1.93-.54.62-.81,1.6-.81,2.93s.26,2.34.78,2.96c.52.62,1.2.92,2.03.92.67,0,1.23-.21,1.68-.62.45-.41.74-1.04.86-1.9Z"/>
    <path class="st0" d="M446.6,82.85c0-1.87.52-3.26,1.56-4.16.87-.75,1.93-1.12,3.18-1.12,1.39,0,2.52.46,3.4,1.36.88.91,1.32,2.17,1.32,3.77,0,1.3-.19,2.32-.58,3.07-.39.74-.96,1.32-1.7,1.73-.75.41-1.56.62-2.44.62-1.41,0-2.56-.45-3.43-1.36-.87-.91-1.31-2.21-1.31-3.92ZM448.36,82.85c0,1.29.28,2.26.85,2.9.56.64,1.27.96,2.13.96s1.56-.32,2.12-.97c.56-.65.85-1.63.85-2.96,0-1.25-.28-2.19-.85-2.84-.57-.64-1.27-.97-2.12-.97s-1.57.32-2.13.96c-.56.64-.85,1.61-.85,2.9Z"/>
    <path class="st0" d="M458.56,87.89v-10.1h1.53v1.42c.32-.49.74-.89,1.26-1.19.53-.3,1.12-.45,1.8-.45.75,0,1.36.16,1.84.47.48.31.82.75,1.01,1.3.8-1.18,1.84-1.77,3.12-1.77,1,0,1.77.28,2.31.83.54.56.81,1.41.81,2.56v6.93h-1.7v-6.36c0-.68-.06-1.18-.17-1.48-.11-.3-.31-.54-.6-.73-.29-.18-.63-.28-1.03-.28-.71,0-1.3.24-1.77.71-.47.47-.7,1.23-.7,2.27v5.87h-1.71v-6.56c0-.76-.14-1.33-.42-1.71s-.74-.57-1.37-.57c-.48,0-.93.13-1.34.38-.41.25-.7.62-.89,1.11-.18.49-.28,1.19-.28,2.11v5.24h-1.71Z"/>
    <path class="st0" d="M475.74,87.89v-1.95h1.95v1.95h-1.95Z"/>
    <path class="st0" d="M484.89,86.36l.25,1.51c-.48.1-.91.15-1.29.15-.62,0-1.1-.1-1.44-.3-.34-.2-.58-.45-.72-.77-.14-.32-.21-.99-.21-2.02v-5.81h-1.25v-1.33h1.25v-2.5l1.7-1.03v3.53h1.72v1.33h-1.72v5.9c0,.49.03.8.09.94.06.14.16.25.29.33.14.08.33.12.58.12.19,0,.44-.02.75-.07Z"/>
    <path class="st0" d="M488.92,87.89l-3.09-10.1h1.77l1.61,5.83.6,2.17c.03-.11.2-.8.52-2.08l1.61-5.91h1.76l1.51,5.86.5,1.93.58-1.95,1.73-5.84h1.66l-3.16,10.1h-1.78l-1.61-6.05-.39-1.72-2.04,7.77h-1.79Z"/>
    <path class="st0" d="M518.64,75.36h-6.27c2.26,1.34,4.81,2.98,6.23,4.15l-.93,1.01c-1.5-1.29-4.46-3.27-6.95-4.75v3.64h-1.42v-3.95c-1.75,2.28-4.63,4.28-7.26,5.34-.23-.33-.66-.88-.95-1.15,2.38-.82,4.98-2.45,6.64-4.28h-6.23v-1.29h7.81v-2.45h1.42v2.45h7.92v1.29ZM501.81,87.46h16.55v1.3h-16.55v-1.3ZM515.4,79.99v6.31h-10.75v-6.31h10.75ZM513.92,81.02h-7.85v1.62h7.85v-1.62ZM513.92,83.65h-7.85v1.61h7.85v-1.61Z"/>
    <path class="st0" d="M528.23,76.09h-6.97v-1.19h6.97v1.19ZM527.46,88.2h-4.28v.92h-1.17v-6.54h5.45v5.63ZM522.02,78.61v-1.15h5.41v1.15h-5.41ZM522.02,79.99h5.43v1.15h-5.43v-1.15ZM523.17,83.78v3.21h3.1v-3.21h-3.1ZM524.71,74.69c-.29-.7-.93-1.79-1.46-2.59l1.03-.6c.56.78,1.21,1.81,1.5,2.49l-1.07.7ZM538.59,74.5s-.02.56-.02.76c-.27,9.23-.53,12.3-1.25,13.26-.41.55-.82.74-1.44.8s-1.65.04-2.67-.02c0-.41-.18-1.03-.45-1.42,1.13.08,2.14.1,2.55.1.35,0,.56-.06.76-.33.6-.66.86-3.66,1.09-11.8h-6.33c-.37.68-.76,1.34-1.15,1.91h5.1v7.75h-4.21v.99h-1.17v-8.35c-.18.23-.37.47-.55.68-.27-.23-.88-.66-1.23-.88,1.46-1.52,2.65-3.87,3.31-6.35l1.42.33c-.25.88-.58,1.75-.92,2.57h7.13ZM530.59,78.94v2.08h3v-2.08h-3ZM533.59,84.29v-2.1h-3v2.1h3Z"/>
  </g>
</svg>