<?xml version="1.0" encoding="UTF-8"?>
<svg id="_圖層_1" xmlns="http://www.w3.org/2000/svg" version="1.1" viewBox="0 0 1308.5 82">
  <!-- Generator: Adobe Illustrator 30.2.1, SVG Export Plug-In . SVG Version: 2.1.1 Build 1)  -->
  <defs>
    <style>
      .st0 {
        fill: none;
        stroke: #717071;
        stroke-miterlimit: 10;
        stroke-width: .5px;
      }

      .st1 {
        fill: #717071;
      }
    </style>
  </defs>
  <line class="st0" x1="694.9" y1="5.6" x2="694.9" y2="75.9"/>
  <g>
    <path class="st1" d="M29.8,18.2v6.2H4.2v-6.2h25.6ZM27.9,29v5.8H5.5v-5.8h22.4ZM27.9,39.5v5.8H5.5v-5.8h22.4ZM28.2,49.9v25.2h-6.8v-3.4h-9.2v4.6h-6.7v-26.4s22.7,0,22.7,0ZM27.3,8.1v5.9H5.8v-5.9h21.5ZM21.5,65.9v-9.8h-9.2v9.8h9.2ZM36.8,10.9v-5.3l6.2.6c1.2.2,1.8.5,1.8,1s-.5.9-1.3,1.5v2.2h17.9v-5.3l6.2.6c1.1.2,1.7.5,1.7,1s-.4.9-1.2,1.5v2.2h6.9v5.8h-6.8v9.2h-12.2v3.7h17.8v15h-17.8v4h17.8v5.8h-17.8v4h17.2v5.6h-17.2v4.3h19v6.1H30.1v-6.1h18.8v-4.3h-16.6v-5.5h16.6v-4h-17.6v-5.8h17.6v-4h-17.6v-15h17.6v-3.7h-12v-9.2h-6.8v-5.8h6.7v-.1ZM48.9,35.1h-10.8v4h10.8v-4ZM43.6,20.4h17.9v-3.7h-17.9v3.7ZM67,35.1h-11v4h11v-4h0Z"/>
    <path class="st1" d="M89.7,22.9c.8.2,1.3.4,1.3.9s-.3,1-.9,1.5c-.3,6.7-.5,11.6-.8,14.7-.3,2.4-.6,4.8-1,7.2l-6.8-1.3c.6-2.7.9-5,1.2-6.9.5-3.5.8-8.9.9-16.5,0,0,6.1.4,6.1.4ZM99.3,5.2c1.2.2,1.8.5,1.8,1s-.5.9-1.3,1.6v69.4h-6.8V4.8s6.3.4,6.3.4ZM110.7,38.5l-6.5,1.6c-.3-4.6-.9-9.8-1.9-16l5.3-1.6c1.4,5.9,2.4,11.1,3.1,16ZM126.6,10.6v-5.8l6.5.5c1.2.2,1.8.5,1.8,1s-.4,1-1.2,1.9v2.4h18.7v5.5h-18.7v5h14.2v36.8h7.3v6.1h-15.4c3.7,3.3,8.5,6,14.5,8.3l-6.5,4.6c-5.4-2.8-10-6.2-13.9-10.2l4.3-2.8h-17.2l3.5,2.3c.5.5.7.8.7,1.1s-.4.6-1.2.6c-3.1,2.8-7.6,5.9-13.5,9.2l-6.1-4.6c5.1-2.2,9.8-5,14.2-8.7h-15.2v-6.1h8.3V21h14.8v-5h-19.5v-5.5h19.6v.1ZM141.1,30.3v-3.7h-22.5v3.7h22.5ZM141.1,39.5v-4h-22.5v4h22.5ZM141.1,48.7v-4h-22.5v4h22.5ZM141.1,57.9v-3.9h-22.5v3.9h22.5Z"/>
    <path class="st1" d="M188.1,9.9v6.1h-10.1v18h9.3v6.1h-9.3v19.2c3.5-.9,6.8-1.8,10.2-2.9v5.8c-5,1.9-12.8,4.3-23.4,7.4-.5.8-1,1.2-1.5,1.2s-.8-.4-.9-1.1l-1.6-6.8c3.5-.5,6.9-1.2,10.4-2v-20.8h-8.9v-6.1h8.9v-17.9h-9.5v-6.2h26.4ZM229.9,9v33.9h-16.3v8.3h15.7v6.2h-15.7v11h19.1v6.1h-44.9v-6.1h19.1v-11h-15.1v-6.2h15.1v-8.3h-15.7V9h38.7ZM206.9,23.2v-8h-9v8h9ZM206.9,29h-9v7.7h9v-7.7ZM213.6,23.2h9.6v-8h-9.6v8ZM223.2,29h-9.6v7.7h9.6v-7.7Z"/>
    <path class="st1" d="M254.7,61.2c.5.2.8.5.8.7,0,.5-.2.9-.6,1.3-2.8,5.3-5.7,9.6-8.9,13.2l-6.5-3.1c3.9-4.1,7.1-9,9.5-14.8,0,0,5.7,2.7,5.7,2.7ZM273.9,7.8v49.8h-31V7.8h31ZM267.2,22.2v-8.2h-17.6v8.3h17.6v-.1ZM267.2,37v-9h-17.6v9h17.6ZM267.2,42.9h-17.6v8.6h17.6v-8.6ZM278,71.7l-6.5,4c-4.9-5.4-8.4-10.2-10.5-14.5l6.1-2.8c2.3,4.5,5.9,8.9,10.9,13.3ZM297.3,19.8V5.6l7.6.9c.8,0,1.3.4,1.3.9s-.6,1.3-1.8,2.1v10.2h6.8v6.8h-6.8v40.9c0,3.1-1.2,5.4-3.5,6.9-1.9,1.6-6.7,2.4-14.4,2.4l-2.8-7.1h8.7c3,0,4.6-1.1,4.9-3.4v-32c-2.2,6-4.2,10.7-6,14.1-2.8,5.5-6.7,11.2-11.6,17l-6.1-5.5c5-4.9,9.3-10.3,12.9-16.1,2.2-3.5,4.7-9.2,7.7-17.1h-18.4v-6.8h21.5,0Z"/>
    <path class="st1" d="M367.4,9.6c.6.3,1,.6,1,1,0,.8-.6,1.4-1.8,1.8-2,4.9-3.8,9.1-5.5,12.8v51.6h-6.8v-39.2c-1.6,2.6-3.4,5.3-5.3,8l-5.2-5.2c3.8-5.2,7-10.5,9.7-15.8,2.5-4.8,5-10.8,7.6-18l6.3,3h0ZM414.9,20.1v6.8h-50.1v-6.8s50.1,0,50.1,0ZM411.5,52.4v23.7h-6.8v-2.4h-30.5v2.4h-6.7v-23.7s44,0,44,0ZM408.7,30.9v6.1h-39v-6.1h39ZM409,41.6v6.1h-39.4v-6.1h39.4ZM408.7,9.9v6.1h-38.7v-6.1h38.7ZM404.7,67.4v-8.9h-30.5v8.9h30.5Z"/>
    <path class="st1" d="M434.2,9h54.8v59c0,3.5-2,5.7-6,6.8-3.1.8-6.1,1.3-9.1,1.3l-2.8-7.1,7.6-.2c2.1,0,3.2-1,3.2-2.9v-13.8h-17.6v20.9h-7.1v-20.9h-17.4c-.3,1.7-.6,3.3-.9,4.9-1.6,7.1-4,13.3-7.2,18.8l-7.1-3.7c3.4-5.3,5.7-10.7,7.1-16.4,1.6-7.1,2.4-14.1,2.4-21.2V9h.1ZM457.3,45.9v-12.3h-16v.9c0,3.9-.2,7.8-.6,11.4h16.6ZM457.3,27.5v-12h-16v12h16ZM464.4,27.5h17.6v-12h-17.6v12ZM464.4,45.9h17.6v-12.3h-17.6v12.3Z"/>
    <path class="st1" d="M525.8,8.1c.6.3,1,.6,1,.9,0,.8-.6,1.4-1.8,1.9-.6.8-1,1.5-1.5,2.1h46.7v6.5h-6.5v12.3h9.5v6.5h-9.5v12.4h9.2v6.8h-67.6v-6.8h10.7v-12.5h-12.3v-6.5h12.3v-9.7c-1.8,1.8-3.9,3.7-6.1,5.7l-4.9-5c3.3-2.7,6.1-5.4,8.3-8.1,2.1-2.5,4.3-5.7,6.4-9.4,0,0,6.1,2.9,6.1,2.9ZM519.1,60.7c-1.6,5.4-3.8,10.5-6.8,15.7l-7.3-2.5c3.3-5,5.7-9.8,7.3-14.7l6.8,1.5ZM529.6,19.5h-6.8v12.3h6.8v-12.3ZM529.6,50.6v-12.4h-6.8v12.4h6.8ZM535.4,74.8l-7,1.6c-.3-4.2-1.1-9.1-2.2-14.8l5.8-1.5c1.6,5.3,2.8,10.1,3.4,14.7ZM543.1,19.5h-6.8v12.3h6.8v-12.3ZM543.1,50.6v-12.4h-6.8v12.4h6.8ZM552.9,74.5l-7.4,1.9c-.5-4.2-1.5-9.1-3.1-14.8l6.1-1.5c2.2,5.2,3.6,9.9,4.4,14.4ZM556.9,19.5h-7.1v12.3h7.1v-12.3ZM556.9,50.6v-12.4h-7.1v12.4h7.1ZM572.6,72.7l-6.5,4c-3.2-5-5.5-9.4-6.8-13.5l6.1-2.8c1.5,4.1,3.9,8.2,7.2,12.3Z"/>
    <path class="st1" d="M600.7,9.6c.3.2.6.3.8.4v-1.3h48.3v5.6h-15v3.7h13.9v15.7h-46.8v-15.7h13.1v-3.7h-13.5v-2.8c-.4.5-.9.8-1.5.9-1.1,3.2-2.1,6.1-3.1,8.7v55.3h-6.8v-39.5c-1.6,3-3.2,6.1-5,9.3l-5.1-5.2c3.1-5.4,5.9-10.7,8.1-16.1,2.1-4.9,4.3-11,6.3-18.4,0,0,6.3,3.1,6.3,3.1ZM646.1,36.4v30.5h-7.4c4.4,1.3,8.6,2.9,12.6,4.9l-4.9,4.6c-4.6-2.4-9.6-4.2-15.1-5.6l4.6-3.9h-19.1l3.5,2.7c.3.3.6.6.6,1s-.4.4-1.2.6c-4.7,2.3-9.1,4-13.2,5.3l-5-4.6c5.4-1.3,9.8-2.8,13.4-4.9h-9.7v-30.6h40.9ZM615,23.2h-6.5v5.2h6.5v-5.2ZM639.4,45v-3.1h-27.4v3.1h27.4ZM639.4,53v-3.1h-27.4v3.1h27.4ZM639.4,57.9h-27.4v3.4h27.4v-3.4ZM628.6,14.3h-7.4v3.7h7.4v-3.7ZM628.6,23.2h-7.4v5.2h7.4v-5.2ZM641.8,23.2h-7.1v5.2h7.1v-5.2Z"/>
  </g>
  <g>
    <path class="st1" d="M745.06,10.16c1.62,3.81,4.47,7.37,7.57,9.13-.43.36-1.02.97-1.28,1.42-3.33-2.09-6.24-6.14-7.93-10.54h-.31v8.31h5.23v1.67h-5.23v4.19h-1.74v-4.19h-5.23v-1.67h5.23v-8.31h-.36c-1.74,4.4-4.64,8.4-7.88,10.61-.27-.4-.81-1.02-1.19-1.33,2.97-1.83,5.74-5.47,7.39-9.28h-6.8v-1.67h8.85V3.8h1.74v4.71h8.92v1.67h-6.98Z"/>
    <path class="st1" d="M762.58,9.14c-.69,1.15-1.55,2.3-2.48,3.4v11.85h-1.67v-10c-.86.88-1.71,1.69-2.55,2.34-.24-.34-.83-1.06-1.17-1.4,2.33-1.64,4.76-4.23,6.31-6.78,0,0,1.55.59,1.55.59ZM761.7,4.4c-1.47,1.98-3.76,4.17-5.76,5.59-.24-.36-.69-1.02-1-1.33,1.87-1.26,4.04-3.29,5.16-4.88l1.6.64h0ZM775.51,12.89h-3.4v9.3c0,1.04-.24,1.55-1,1.83-.76.24-2.02.24-4.23.24-.07-.45-.29-1.15-.54-1.62,1.6.05,3.09.05,3.52.02s.57-.12.57-.5v-9.28h-7.52v-1.6h12.61v1.6ZM774.86,6.71h-10.99v-1.57h10.99v1.57Z"/>
    <path class="st1" d="M784.47,4.31c-.52,1.5-1.17,3.02-1.9,4.44v15.68h-1.55v-12.97c-.67,1.08-1.42,2.05-2.14,2.9-.16-.36-.64-1.17-.93-1.55,2.02-2.19,3.88-5.54,5.02-8.94l1.49.45h0ZM798.44,7.48v1.42h-14.25v-1.42h14.25ZM785.49,17.11h11.4v7.16h-1.49v-.81h-8.45v.88h-1.47v-7.23h.01ZM796.66,12.07h-10.85v-1.38h10.85v1.38ZM785.8,13.85h10.85v1.38h-10.85v-1.38ZM786.95,18.51v3.56h8.45v-3.56s-8.45,0-8.45,0ZM790.92,7.35c-.29-.79-1-2.07-1.55-3l1.42-.59c.65.95,1.33,2.14,1.64,2.93l-1.5.65h-.01Z"/>
    <path class="st1" d="M820.16,22.08c0,1.09-.29,1.57-1.02,1.87-.76.27-2.07.29-4.19.27-.07-.45-.34-1.17-.57-1.62,1.57.07,3.11.05,3.52.05.45-.02.61-.16.61-.59v-4.57h-6.06v6.64h-1.67v-6.64h-5.63c-.34,2.5-1.1,5.07-2.81,6.98-.24-.34-.93-.9-1.28-1.1,2.48-2.79,2.71-6.76,2.71-9.89V5.36h16.39v16.71h0ZM810.78,15.89v-3.74h-5.38v1.33c0,.74-.02,1.57-.09,2.41h5.47,0ZM805.4,6.96v3.61h5.38v-3.61s-5.38,0-5.38,0ZM818.51,6.96h-6.06v3.61h6.06v-3.61ZM818.51,15.89v-3.74h-6.06v3.74h6.06Z"/>
    <path class="st1" d="M844.62,12.03v1.64h-9.59v10.68h-1.74v-10.68h-8.7v-1.64h8.63V3.76h1.74v3.19h7.39v1.6h-7.39v3.47h9.66ZM836.22,16.11c2.33.88,5.68,2.26,7.39,3.11l-.9,1.48c-1.67-.9-4.98-2.36-7.37-3.31l.88-1.28h0Z"/>
    <path class="st1" d="M853.13,9.12c-.45.86-1,1.74-1.57,2.57v12.61h-1.55v-10.61c-.67.83-1.38,1.55-2.02,2.16-.16-.36-.61-1.17-.9-1.53,1.69-1.45,3.49-3.61,4.62-5.76l1.45.57h-.01ZM852.69,4.33c-1.1,1.8-2.86,3.83-4.44,5.16-.19-.34-.64-.97-.9-1.26,1.42-1.15,3.02-3,3.81-4.45l1.53.57h.01ZM862.64,10.35v2.43h3.95v11.51h-1.64v-1.04h-6.19v1.04h-1.55v-11.51h3.83v-2.43h-4.8v2.59c0,3.71-.27,8.11-2.19,11.42-.29-.24-.86-.57-1.28-.72,1.76-3.14,1.98-7.35,1.98-10.7v-7.35c3.71-.31,8.13-.88,10.61-1.5l1.31,1.19c-2.79.69-6.83,1.19-10.42,1.49v2.19h4.8v-2.3h1.62v2.3h5.09v1.4h-5.1ZM864.94,14.13h-6.19v1.8h6.19v-1.8ZM864.94,17.11h-6.19v1.76h6.19v-1.76ZM864.94,21.96v-1.9h-6.19v1.9h6.19Z"/>
    <path class="st1" d="M876.58,20.03c-2.09.65-4.28,1.35-6.02,1.86l-.34-1.53c.74-.19,1.62-.43,2.59-.72v-6.33h-2.09v-1.49h2.09v-5h-2.33v-1.5h6.02v1.5h-2.21v5h1.96v1.49h-1.96v5.9l2.09-.66.19,1.47h0ZM890.52,18.96c-.97.6-2.12,1.26-3.14,1.74,1.04.97,2.34,1.74,3.85,2.14-.36.29-.81.88-1.02,1.28-3.09-1.02-5.28-3.33-6.38-6.33-.79.69-1.74,1.38-2.75,1.96v2.59l3.76-.86c-.05.36-.02.95,0,1.24-4.3,1.1-4.93,1.31-5.31,1.53-.09-.36-.38-.95-.59-1.24.29-.16.74-.5.74-1.4v-1.12c-.81.38-1.64.74-2.43,1-.21-.36-.64-.88-.97-1.15,1.96-.52,4.23-1.53,5.79-2.68h-3.36v-4.62h10.61v4.62h-4.12c.34.76.79,1.53,1.33,2.16,1-.54,2.12-1.31,2.81-1.85l1.15,1h.02ZM890.78,11.8h-13.54v-1.38h13.54v1.38ZM890.02,9.3h-11.85v-4.73h11.85v4.73ZM881.7,5.79h-2.12v2.29h2.12v-2.29ZM880.29,16.4h7.47v-2.12h-7.47v2.12ZM885.1,5.79h-2.21v2.29h2.21v-2.29ZM888.55,5.79h-2.26v2.29h2.26v-2.29Z"/>
    <path class="st1" d="M900.28,10.52h4.62v1.55h-4.62v.61c1.08,1.02,3.67,3.6,4.35,4.28l-1,1.38c-.67-.86-2.19-2.5-3.36-3.76v9.73h-1.67v-9.66c-1.17,2.57-2.75,5.07-4.26,6.59-.2-.45-.64-1.15-.93-1.57,1.8-1.69,3.76-4.78,4.85-7.59h-4.4v-1.55h4.73v-3.83c-1.47.29-2.93.52-4.33.72-.07-.4-.31-.97-.52-1.33,3.31-.5,7.18-1.26,9.3-2.19l1.24,1.28c-1.1.43-2.52.83-4.04,1.19v4.14h.01ZM908.31,18.79h-1.64V6.45h1.64v12.35ZM913.07,4.03v17.97c0,1.15-.31,1.64-1.02,1.92-.72.29-1.96.34-4.01.34-.12-.45-.36-1.24-.61-1.69,1.55.05,2.97.02,3.4.02.4-.02.59-.14.59-.59V4.03h1.65Z"/>
    <path class="st1" d="M937,19.6h-9.16v4.76h-1.76v-4.76h-9.14v-1.55h9.14v-1.85h1.76v1.85h9.16v1.55ZM922.9,13.74c-1.71.93-3.54,1.9-5.02,2.64l-.83-1.35c1.4-.57,3.49-1.55,5.52-2.52l.34,1.24ZM930.6,16.51c-.12-.36-.34-.76-.61-1.19-5.85.57-6.64.67-7.09.9-.09-.31-.31-1.06-.5-1.46.52-.07,1.08-.5,1.87-1.1.43-.36,1.4-1.24,2.48-2.34-2.59.2-3.09.31-3.42.45-.07-.31-.29-1.06-.47-1.42.34-.05.65-.31,1-.72.29-.29,1.06-1.21,1.74-2.3h-8.2v-1.53h9.16c-.29-.57-.69-1.24-1.04-1.76l1.62-.43c.5.65,1.04,1.55,1.33,2.19h8.35v1.53h-9.49c-.67,1-1.42,1.96-2.14,2.75l2.86-.19c.52-.59,1.05-1.21,1.5-1.87l1.38.79c-1.78,2.07-3.74,4.05-5.68,5.61l3.95-.31c-.36-.5-.74-1.02-1.1-1.45l1.24-.52c1.02,1.15,2.14,2.73,2.59,3.78l-1.33.59h.02ZM918.83,8.24c1.19.72,2.68,1.78,3.42,2.55l-1.17,1.02c-.69-.76-2.16-1.9-3.38-2.64l1.12-.93h0ZM935.31,16.6c-.93-.88-2.83-2.23-4.42-3.16l1.19-.9c1.5.86,3.47,2.14,4.47,3.07l-1.24,1h0ZM935.69,9.04c-1.02,1.04-2.33,2.12-3.36,2.81l-1.21-.79c1.02-.72,2.41-1.96,3.18-2.88l1.4.86h-.01Z"/>
    <path class="st1" d="M942.71,9.54c0-1.04.81-1.69,1.71-1.69s1.71.65,1.71,1.69-.81,1.69-1.71,1.69-1.71-.66-1.71-1.69ZM942.71,20.57c0-1.04.81-1.71,1.71-1.71s1.71.67,1.71,1.71-.81,1.69-1.71,1.69-1.71-.67-1.71-1.69Z"/>
    <path class="st1" d="M961.82,10.44l-1.97.15c-.17-.78-.43-1.34-.75-1.69-.53-.57-1.19-.84-1.98-.84-.64,0-1.18.17-1.67.53-.62.45-1.11,1.12-1.47,1.99s-.54,2.12-.56,3.73c.47-.73,1.06-1.26,1.75-1.62s1.41-.53,2.16-.53c1.32,0,2.44.49,3.37,1.46.93.97,1.39,2.23,1.39,3.77,0,1.01-.22,1.96-.66,2.82s-1.03,1.54-1.79,2c-.76.46-1.63.69-2.59.69-1.65,0-3-.6-4.04-1.82s-1.56-3.22-1.56-6c0-3.11.58-5.38,1.72-6.8,1.01-1.23,2.36-1.85,4.06-1.85,1.27,0,2.3.36,3.12,1.06.81.71,1.3,1.69,1.46,2.95h0ZM953.73,17.39c0,.68.14,1.33.44,1.96.29.62.69,1.1,1.21,1.42.52.32,1.06.49,1.64.49.83,0,1.55-.34,2.15-1.01.6-.67.9-1.6.9-2.75s-.3-1.99-.89-2.64c-.59-.64-1.34-.96-2.24-.96s-1.65.32-2.28.96c-.62.65-.94,1.48-.94,2.52h0Z"/>
    <path class="st1" d="M965.74,22.62v-2.26h2.26v2.26h-2.26Z"/>
    <path class="st1" d="M971.58,8.6v-1.9h10.44v1.54c-1.03,1.09-2.05,2.55-3.05,4.35-1.01,1.82-1.79,3.67-2.34,5.59-.39,1.35-.65,2.82-.76,4.43h-2.04c.02-1.27.27-2.8.75-4.59.47-1.79,1.16-3.53,2.05-5.19.89-1.67,1.84-3.08,2.85-4.22h-7.9.01Z"/>
    <path class="st1" d="M990.89,22.62v-3.86h-7v-1.82l7.36-10.45h1.62v10.45h2.18v1.82h-2.18v3.86h-1.98ZM990.89,16.94v-7.27l-5.04,7.27h5.04Z"/>
    <path class="st1" d="M998.46,10.68c0-3.31,1.48-5.21,3.76-5.21s3.76,1.9,3.76,5.21-1.5,5.25-3.76,5.25-3.76-1.91-3.76-5.25ZM1004.41,10.68c0-2.66-.88-3.92-2.19-3.92s-2.21,1.26-2.21,3.92.9,3.97,2.21,3.97,2.19-1.33,2.19-3.97ZM1011.84,5.47h1.38l-9.14,17.16h-1.38l9.14-17.16ZM1010,17.39c0-3.31,1.48-5.21,3.74-5.21s3.76,1.9,3.76,5.21-1.48,5.25-3.76,5.25-3.74-1.91-3.74-5.25ZM1015.94,17.39c0-2.64-.88-3.92-2.21-3.92s-2.19,1.28-2.19,3.92.88,3.97,2.19,3.97,2.21-1.33,2.21-3.97Z"/>
    <path class="st1" d="M1030.42,14.68c-1.21-1.15-2.19-1.85-3.83-1.85-1.78,0-3.33,1.19-4.26,2.97l-1.6-.86c1.42-2.57,3.49-3.95,5.88-3.95,2.05,0,3.49.83,5.07,2.41,1.21,1.15,2.21,1.85,3.83,1.85,1.78,0,3.33-1.19,4.26-2.97l1.6.86c-1.42,2.57-3.49,3.95-5.88,3.95-2.05,0-3.49-.86-5.07-2.41Z"/>
    <path class="st1" d="M1051.28,22.62h-1.98v-12.61c-.47.45-1.1.91-1.87,1.37-.78.45-1.47.8-2.08,1.02v-1.91c1.11-.52,2.07-1.16,2.9-1.9s1.41-1.46,1.76-2.15h1.27v16.19h0Z"/>
    <path class="st1" d="M1063.25,22.62v-3.86h-7v-1.82l7.36-10.45h1.62v10.45h2.18v1.82h-2.18v3.86h-1.98ZM1063.25,16.94v-7.27l-5.04,7.27h5.04Z"/>
    <path class="st1" d="M1071.11,22.62v-2.26h2.26v2.26h-2.26Z"/>
    <path class="st1" d="M1077.11,18.88l1.9-.17c.16.89.47,1.54.93,1.94s1.04.6,1.75.6c.61,0,1.15-.14,1.6-.42.46-.28.83-.65,1.12-1.11.29-.46.54-1.1.74-1.89.2-.79.3-1.6.3-2.42v-.39c-.39.64-.94,1.15-1.62,1.54s-1.42.59-2.22.59c-1.33,0-2.46-.49-3.39-1.45-.93-.97-1.39-2.24-1.39-3.83s.49-2.95,1.45-3.95,2.18-1.49,3.62-1.49c1.05,0,2.01.28,2.88.84s1.53,1.37,1.98,2.42c.45,1.04.67,2.56.67,4.54s-.22,3.7-.67,4.92-1.11,2.15-2,2.79c-.88.64-1.92.96-3.11.96-1.26,0-2.29-.35-3.09-1.05-.8-.69-1.28-1.69-1.45-2.95v-.02ZM1085.23,11.77c0-1.13-.3-2.04-.9-2.71s-1.33-1-2.19-1-1.64.36-2.3,1.08c-.65.72-.98,1.65-.98,2.8,0,1.03.31,1.86.93,2.5.62.64,1.39.96,2.29.96s1.67-.32,2.26-.96c.59-.65.88-1.53.88-2.67h.02Z"/>
    <path class="st1" d="M1090.21,18.88l1.9-.17c.16.89.47,1.54.93,1.94s1.04.6,1.75.6c.61,0,1.15-.14,1.6-.42.46-.28.83-.65,1.12-1.11.29-.46.54-1.1.74-1.89.2-.79.3-1.6.3-2.42v-.39c-.39.64-.94,1.15-1.62,1.54s-1.42.59-2.22.59c-1.33,0-2.46-.49-3.39-1.45-.93-.97-1.39-2.24-1.39-3.83s.49-2.95,1.45-3.95,2.18-1.49,3.62-1.49c1.05,0,2.01.28,2.88.84s1.53,1.37,1.98,2.42c.45,1.04.67,2.56.67,4.54s-.22,3.7-.67,4.92-1.11,2.15-2,2.79c-.88.64-1.92.96-3.11.96-1.26,0-2.29-.35-3.09-1.05-.8-.69-1.28-1.69-1.45-2.95v-.02ZM1098.31,11.77c0-1.13-.3-2.04-.9-2.71s-1.33-1-2.19-1-1.64.36-2.3,1.08c-.65.72-.98,1.65-.98,2.8,0,1.03.31,1.86.93,2.5.61.64,1.39.96,2.29.96s1.67-.32,2.26-.96c.59-.65.88-1.53.88-2.67h.02Z"/>
    <path class="st1" d="M1103.83,10.68c0-3.31,1.49-5.21,3.76-5.21s3.76,1.9,3.76,5.21-1.5,5.25-3.76,5.25-3.76-1.91-3.76-5.25ZM1109.78,10.68c0-2.66-.88-3.92-2.19-3.92s-2.21,1.26-2.21,3.92.9,3.97,2.21,3.97,2.19-1.33,2.19-3.97ZM1117.2,5.47h1.38l-9.14,17.16h-1.38l9.14-17.16ZM1115.35,17.39c0-3.31,1.49-5.21,3.74-5.21s3.76,1.9,3.76,5.21-1.48,5.25-3.76,5.25-3.74-1.91-3.74-5.25ZM1121.3,17.39c0-2.64-.88-3.92-2.21-3.92s-2.19,1.28-2.19,3.92.88,3.97,2.19,3.97,2.21-1.33,2.21-3.97Z"/>
    <path class="st1" d="M1130.36,14.06c0-4.4,1.78-7.97,4.48-10.73l1.35.69c-2.59,2.68-4.19,6.02-4.19,10.02s1.6,7.35,4.19,10.02l-1.35.69c-2.71-2.74-4.48-6.33-4.48-10.73v.02Z"/>
    <path class="st1" d="M1153.63,15.95c1.26,1.48,3.17,2.79,5.07,3.47-.38.31-.86.9-1.1,1.28-2.19-.9-4.37-2.77-5.73-4.76h-7.05c-1.42,2.09-3.69,4.03-5.88,5.04-.24-.4-.69-.97-1.08-1.28,1.87-.74,3.81-2.16,5.09-3.76h-4.87v-1.42h4.47v-7.18h-3.42v-1.4h3.42v-2.16h1.64v2.16h8.18v-2.16h1.69v2.16h3.38v1.4h-3.38v7.18h4.35v1.42h-4.79ZM1149.03,22.3h7.78v1.42h-16.98v-1.42h7.54v-2.36h-4.59v-1.38h4.59v-1.9h1.67v1.9h4.71v1.38h-4.71v2.36ZM1144.19,7.35v1.5h8.18v-1.5h-8.18ZM1144.19,11.66h8.18v-1.55h-8.18v1.55ZM1144.19,14.53h8.18v-1.6h-8.18v1.6Z"/>
    <path class="st1" d="M1164.69,10.5c-.79-.54-2.41-1.24-3.64-1.67l.83-1.15c1.24.34,2.83,1.02,3.64,1.48l-.83,1.33ZM1181.43,19.96h-9.3v4.42h-1.67v-4.42h-9.12v-1.53h9.12v-1.64h1.67v1.64h9.3v1.53ZM1161.67,15.97c1.19-1.08,2.95-2.9,4.4-4.59l.9,1.12c-1.26,1.55-2.75,3.31-4.12,4.76l-1.17-1.28h-.01ZM1166.31,6.9c-.81-.57-2.34-1.35-3.59-1.85l.83-1.15c1.24.43,2.81,1.15,3.62,1.71l-.88,1.28h.01ZM1168.14,9.1c-.45.47-.88.88-1.33,1.26-.29-.29-.95-.81-1.33-1.05,1.83-1.38,3.52-3.47,4.55-5.66l1.55.45c-.34.69-.72,1.42-1.17,2.09h3.59c-.27-.59-.59-1.24-.88-1.76l1.57-.45c.43.65.9,1.55,1.17,2.21h4.52v1.31h-4.95v1.69h4.26v1.15h-4.26v1.62h4.33v1.15h-4.33v1.74h5.33v1.38h-10.99v.97h-1.64v-8.09h.01ZM1173.84,7.5h-4.05v1.69h4.05v-1.69ZM1173.84,10.35h-4.05v1.62h4.05v-1.62ZM1173.84,13.11h-4.05v1.74h4.05v-1.74Z"/>
    <path class="st1" d="M1201.84,5.31v18.67h-1.76v-1.38h-11.18v1.46h-1.69V5.3h14.62ZM1188.9,6.96v6.09h11.18v-6.09h-11.18ZM1200.08,20.97v-6.28h-11.18v6.28h11.18Z"/>
    <path class="st1" d="M1217.59,20.71v1.91h-10.66c-.01-.47.06-.94.23-1.38.27-.73.71-1.43,1.31-2.14.6-.71,1.46-1.52,2.59-2.44,1.75-1.43,2.94-2.58,3.55-3.41.61-.84.93-1.63.93-2.38s-.28-1.45-.84-1.98c-.56-.54-1.3-.81-2.2-.81-.95,0-1.71.29-2.29.86s-.86,1.37-.87,2.37l-2.04-.21c.14-1.52.66-2.67,1.57-3.47s2.13-1.19,3.67-1.19,2.78.43,3.68,1.28c.9.86,1.35,1.92,1.35,3.19,0,.65-.13,1.28-.39,1.91-.27.62-.71,1.28-1.32,1.97-.61.69-1.63,1.63-3.05,2.83-1.19,1-1.96,1.68-2.29,2.02-.34.36-.61.72-.83,1.08h7.91-.01Z"/>
    <path class="st1" d="M1220.28,14.66c0-1.91.2-3.44.59-4.6s.97-2.06,1.75-2.68c.78-.64,1.75-.95,2.92-.95.87,0,1.62.17,2.28.52.65.35,1.19.86,1.62,1.5.43.66.76,1.46,1.01,2.39s.36,2.21.36,3.81c0,1.9-.2,3.41-.58,4.58-.39,1.17-.97,2.06-1.75,2.7s-1.75.95-2.93.95c-1.55,0-2.78-.56-3.67-1.68-1.06-1.34-1.6-3.53-1.6-6.56v.02ZM1222.31,14.66c0,2.65.31,4.41.93,5.29.61.88,1.39,1.32,2.29,1.32s1.68-.44,2.29-1.32c.62-.88.93-2.64.93-5.28s-.31-4.42-.93-5.29c-.62-.87-1.39-1.31-2.31-1.31s-1.63.38-2.18,1.16c-.68.98-1.02,2.8-1.02,5.45v-.02Z"/>
    <path class="st1" d="M1243.77,20.71v1.91h-10.66c-.01-.47.06-.94.23-1.38.27-.73.71-1.43,1.31-2.14.6-.71,1.46-1.52,2.59-2.44,1.75-1.43,2.94-2.58,3.55-3.41.61-.84.93-1.63.93-2.38s-.28-1.45-.84-1.98c-.56-.54-1.3-.81-2.2-.81-.95,0-1.71.29-2.29.86-.57.57-.86,1.37-.87,2.37l-2.04-.21c.14-1.52.66-2.67,1.57-3.47s2.13-1.19,3.67-1.19,2.78.43,3.68,1.28c.9.86,1.35,1.92,1.35,3.19,0,.65-.13,1.28-.39,1.91-.27.62-.71,1.28-1.32,1.97-.61.69-1.63,1.63-3.05,2.83-1.19,1-1.96,1.68-2.29,2.02-.34.36-.61.72-.83,1.08h7.91-.01Z"/>
    <path class="st1" d="M1256.73,10.44l-1.97.15c-.17-.78-.43-1.34-.75-1.69-.53-.57-1.19-.84-1.98-.84-.64,0-1.18.17-1.67.53-.62.45-1.11,1.12-1.47,1.99s-.54,2.12-.56,3.73c.47-.73,1.06-1.26,1.75-1.62.69-.35,1.41-.53,2.16-.53,1.32,0,2.44.49,3.37,1.46s1.39,2.23,1.39,3.77c0,1.01-.22,1.96-.66,2.82s-1.03,1.54-1.79,2c-.76.46-1.63.69-2.59.69-1.65,0-3-.6-4.04-1.82-1.04-1.21-1.56-3.22-1.56-6,0-3.11.58-5.38,1.72-6.8,1.01-1.23,2.36-1.85,4.06-1.85,1.27,0,2.3.36,3.12,1.06.81.71,1.3,1.69,1.46,2.95h0ZM1248.65,17.39c0,.68.14,1.33.44,1.96.29.62.69,1.1,1.21,1.42s1.06.49,1.64.49c.83,0,1.55-.34,2.15-1.01.6-.67.9-1.6.9-2.75s-.3-1.99-.89-2.64c-.59-.64-1.34-.96-2.24-.96s-1.65.32-2.28.96c-.62.65-.94,1.48-.94,2.52h0Z"/>
    <path class="st1" d="M1258.61,22.89l4.67-16.67h1.59l-4.66,16.67h-1.6,0Z"/>
    <path class="st1" d="M1266.38,18.4l2.08-.17c.15,1.01.51,1.77,1.08,2.28.57.51,1.24.76,2.02.76.95,0,1.76-.36,2.42-1.08s1-1.67,1-2.86-.31-2.02-.95-2.67-1.47-.98-2.49-.98c-.64,0-1.21.15-1.72.44s-.91.66-1.21,1.12l-1.86-.24,1.56-8.28h8.02v1.9h-6.43l-.87,4.34c.97-.67,1.98-1.01,3.04-1.01,1.41,0,2.59.49,3.56,1.47.97.97,1.45,2.23,1.45,3.76s-.43,2.72-1.27,3.78c-1.03,1.31-2.44,1.96-4.23,1.96-1.47,0-2.66-.4-3.59-1.23-.93-.82-1.46-1.91-1.59-3.26v-.02Z"/>
    <path class="st1" d="M1278.53,22.89l4.67-16.67h1.59l-4.66,16.67h-1.6,0Z"/>
    <path class="st1" d="M1293.74,22.62h-1.98v-12.61c-.47.45-1.1.91-1.87,1.37s-1.47.8-2.08,1.02v-1.91c1.11-.52,2.07-1.16,2.9-1.9.83-.74,1.41-1.46,1.76-2.15h1.27v16.19Z"/>
    <path class="st1" d="M1304.5,14.06c0,4.4-1.78,7.97-4.48,10.73l-1.35-.69c2.59-2.68,4.19-6.02,4.19-10.02s-1.6-7.35-4.19-10.02l1.35-.69c2.71,2.75,4.48,6.33,4.48,10.73v-.02Z"/>
    <path class="st1" d="M738.37,43.77c.38-.83.83-2.07,1.21-3.29h-2.36v8.92c0,.88-.19,1.38-.83,1.62-.64.27-1.62.29-3.18.29-.07-.45-.29-1.15-.52-1.57,1.15.02,2.19.02,2.48,0,.34,0,.43-.09.43-.36v-8.9h-3.69v-1.49h5.74c-1.17-1.08-3.02-2.36-4.62-3.22l.9-1.09c.72.38,1.5.86,2.28,1.33.76-.74,1.57-1.71,2.23-2.64h-6.04v-1.49h7.09l.34-.12,1.04.72c-.93,1.5-2.23,3.12-3.49,4.33.69.5,1.33,1.02,1.76,1.46l-.54.69h1.64l.24-.07,1.04.27c-.61,1.74-1.28,3.69-1.91,4.91l-1.24-.34v.03ZM745.6,48.39c-1.24,1.17-3.31,2.38-5.11,3.04-.24-.31-.79-.83-1.1-1.12,1.76-.64,3.78-1.78,4.76-2.77l1.47.86h-.01ZM745.3,35.43c.16-.67.31-1.45.43-2.14h-4.69v-1.45h11.35v1.45h-4.82c-.21.74-.43,1.49-.64,2.14h4.66v11.66h-9.71v-11.66h3.41ZM750.03,36.74h-6.57v2.19h6.57v-2.19ZM750.03,40.11h-6.57v2.21h6.57v-2.21ZM750.03,43.59h-6.57v2.21h6.57v-2.21ZM748.86,47.62c1.35.79,3.09,2,3.99,2.83l-1.31.97c-.86-.83-2.57-2.09-3.95-2.95l1.26-.86h0Z"/>
    <path class="st1" d="M762.02,31.36c-.65,1.67-1.45,3.33-2.34,4.88v15.09h-1.6v-12.61c-.69,1.02-1.47,1.93-2.23,2.73-.19-.4-.65-1.26-.95-1.62,2.21-2.16,4.28-5.52,5.54-8.94l1.57.47h0ZM775.46,38.18v1.53h-13.54v-1.53h3.38v-2.95h-2.75v-1.49h2.75v-2.93h1.6v2.93h3.6v-2.93h1.62v2.93h2.88v1.49h-2.88v2.95h3.34ZM763.82,41.49h10.02v9.82h-1.69v-.95h-6.69v1h-1.64v-9.87ZM765.46,42.94v2.3h6.69v-2.3h-6.69ZM772.15,48.97v-2.36h-6.69v2.36h6.69ZM766.91,38.18h3.6v-2.95h-3.6v2.95Z"/>
    <path class="st1" d="M786.37,45.48c-2.81.83-5.81,1.71-7.99,2.36l-.45-1.6c1-.24,2.21-.57,3.54-.95v-5.45h-2.83v-1.55h2.83v-4.8h-3.11v-1.53h7.68v1.53h-2.97v4.8h2.78v1.55h-2.78v5.02l3.11-.88.21,1.49h-.01ZM796.94,49.76c.52,0,.61-.34.67-2.66.31.29,1,.54,1.4.66-.12,2.75-.54,3.45-1.9,3.45h-2.19c-1.6,0-2-.47-2-2.09v-5h-2.21c-.45,3.59-1.67,6.04-6.04,7.38-.16-.38-.61-1.05-.95-1.38,3.97-1.09,4.98-3.11,5.33-6.02h-2v-12.32h10.52v12.32h-3.07v5c0,.57.09.66.65.66h1.78ZM788.64,35.45h7.3v-2.26h-7.3v2.26ZM788.64,39.04h7.3v-2.26h-7.3v2.26ZM788.64,42.68h7.3v-2.3h-7.3v2.3Z"/>
    <path class="st1" d="M812.32,39.06v3.07h7.86v1.53h-7.86v5.5h8.87v1.55h-19.35v-1.55h8.74v-5.5h-7.73v-1.53h7.73v-3.07h-4.87v-1.24c-1.15.64-2.36,1.19-3.59,1.64-.24-.47-.69-1.15-1.12-1.53,4.19-1.38,8.33-4.01,10.47-7.35l1.53.72c-.16.24-.36.54-.57.81,2.23,2.38,6.19,4.73,9.61,5.81-.4.34-.93,1.02-1.17,1.46-1.17-.45-2.41-1.03-3.62-1.74v1.4h-4.95.01ZM806.12,44.15c.88,1.26,1.8,2.95,2.16,4.04l-1.47.6c-.31-1.03-1.21-2.81-2.07-4.07l1.38-.57ZM817.01,37.51c-2.02-1.19-4.01-2.71-5.47-4.23-1.48,1.62-3.29,3.07-5.28,4.23h10.75ZM814.37,48.29c.79-1.1,1.8-2.88,2.34-4.14l1.57.61c-.81,1.42-1.85,3.02-2.66,4.07l-1.26-.54h.01Z"/>
    <path class="st1" d="M844.71,44.04h-9.23v5c0,1.19-.36,1.69-1.19,1.96s-2.28.31-4.64.29c-.14-.47-.45-1.21-.72-1.67,1.9.07,3.64.05,4.17.02.5,0,.69-.16.69-.64v-4.98h-9.26v-1.64h9.26v-3.64h-7.75v-1.6h7.75v-3.47c-2.48.27-5.02.43-7.35.54-.07-.45-.27-1.1-.43-1.49,5.31-.24,11.85-.83,15.23-1.9l1.26,1.33c-1.91.59-4.37,1.02-7.02,1.33v3.64h7.97v1.6h-7.97v3.64h9.23v1.67Z"/>
    <path class="st1" d="M849.74,45.41c-.27,2.07-.67,4.35-1.17,5.79-.29-.14-.95-.34-1.31-.45.57-1.47.93-3.62,1.12-5.57l1.35.22h0ZM853.65,44.49c-.05-.36-.12-.83-.22-1.31-4.37.67-5.07.81-5.45,1.03-.07-.34-.31-1.06-.5-1.46.45-.09.93-.65,1.55-1.5.34-.38,1.02-1.35,1.8-2.59-2.23.27-2.71.34-3,.5-.09-.29-.34-1.02-.5-1.4.36-.09.72-.59,1.15-1.26.45-.65,1.91-3.26,2.73-5.72l1.45.61c-.9,2.12-2.02,4.33-3.19,6.02l2.21-.17c.59-.97,1.1-2.02,1.57-3.04l1.33.79c-1.33,2.61-3,5.25-4.71,7.35l3.24-.4c-.2-.76-.4-1.55-.65-2.23l1.19-.29c.57,1.55,1.1,3.56,1.26,4.76l-1.26.36v-.02ZM851.72,45.1c.27,1.64.54,3.76.61,5.18l-1.28.23c-.02-1.42-.27-3.56-.54-5.21l1.21-.21ZM853.61,44.56c.5,1.33,1.02,3.07,1.24,4.17l-1.17.38c-.2-1.15-.72-2.88-1.15-4.21,0,0,1.08-.34,1.08-.34ZM863.29,48.18c1.67.6,3.42,1.4,4.57,1.93l-.69,1.19c-1.19-.59-3.07-1.47-4.73-2.14l.57-1h-3.85l1.19,1.02c-1.71.79-3.85,1.67-5.38,2.28-.16-.36-.45-.86-.69-1.19,1.47-.54,3.6-1.45,4.82-2.09h-3.49v-6.61h11.11v6.61h-3.41ZM860.45,33.21h-5.74v-1.17h5.74v-1.21h1.64v1.21h5.5v1.17h-5.5v1.21h4.59v1.12h-11.04v-1.12h4.8v-1.21ZM854.87,36.47h12.54v4.12h-12.54v-4.12ZM856.29,39.44h2.55v-1.85h-2.55v1.85ZM857.1,43.54h8.02v-.95h-8.02v.95ZM857.1,45.32h8.02v-.97h-8.02v.97ZM857.1,47.17h8.02v-1.03h-8.02v1.03ZM862.48,39.44v-1.85h-2.34v1.85h2.34ZM865.93,37.59h-2.14v1.85h2.14v-1.85Z"/>
    <path class="st1" d="M878.95,48.75c-1.85,1.03-4.69,2.05-6.97,2.64-.24-.34-.83-.97-1.19-1.26,2.3-.43,5.04-1.21,6.64-2.05l1.5.67h.01ZM884.36,48.05c2.34.67,4.8,1.53,6.33,2.19l-1.26,1.04c-1.5-.69-4.05-1.64-6.62-2.41l.83-.81h-9.98v-7.14c-.59.17-1.26.34-2,.5-.16-.38-.52-1-.79-1.31,2.83-.52,4.48-1.24,5.43-2.09h-3.83c.21-1,.43-2.38.57-3.56h4.48v-1.28h-5.5v-1.1h5.5v-1.24h1.53v1.24h3.47v-1.24h1.57v1.24h5.02v3.49h-5.02v1.35h6.42s-.02.34-.05.54c-.14,1.21-.27,1.87-.59,2.16-.29.27-.64.38-1.08.4-.16,0-.36.02-.59.02v8.02h-3.85v-.02ZM874.36,35.54c-.07.47-.14.93-.21,1.35h2.97c.2-.43.29-.88.34-1.35h-3.11.01ZM886.54,40.68h-11.26v1.4h11.26v-1.4ZM886.54,43.11h-11.26v1.38h11.26v-1.38ZM875.28,46.96h11.26v-1.42h-11.26v1.42ZM878.32,38c-.34.59-.86,1.12-1.6,1.6h10.07c-.05-.24-.16-.52-.27-.72.67.07,1.28.09,1.53.09s.4-.02.52-.16c.12-.12.21-.34.27-.81h-4.76v1.55h-1.57v-1.55h-4.19ZM882.51,35.54h-3.52c-.02.47-.09.93-.23,1.35h3.74v-1.35h.01ZM879.04,34.45h3.47v-1.28h-3.47v1.28ZM884.09,33.16v1.28h3.49v-1.28h-3.49Z"/>
    <path class="st1" d="M896.52,36.57c0-1.04.81-1.69,1.71-1.69s1.71.65,1.71,1.69-.81,1.69-1.71,1.69-1.71-.66-1.71-1.69ZM896.52,47.6c0-1.04.81-1.71,1.71-1.71s1.71.67,1.71,1.71-.81,1.69-1.71,1.69-1.71-.67-1.71-1.69Z"/>
    <path class="st1" d="M911.81,43.77c.38-.83.83-2.07,1.21-3.29h-2.36v8.92c0,.88-.19,1.38-.83,1.62-.64.27-1.62.29-3.18.29-.07-.45-.29-1.15-.52-1.57,1.15.02,2.19.02,2.48,0,.34,0,.43-.09.43-.36v-8.9h-3.69v-1.49h5.74c-1.17-1.08-3.02-2.36-4.62-3.22l.9-1.09c.72.38,1.5.86,2.28,1.33.76-.74,1.57-1.71,2.23-2.64h-6.04v-1.49h7.09l.34-.12,1.04.72c-.93,1.5-2.23,3.12-3.49,4.33.69.5,1.33,1.02,1.76,1.46l-.54.69h1.64l.24-.07,1.04.27c-.61,1.74-1.28,3.69-1.91,4.91l-1.24-.34v.03ZM919.05,48.39c-1.24,1.17-3.31,2.38-5.11,3.04-.24-.31-.79-.83-1.1-1.12,1.76-.64,3.78-1.78,4.76-2.77l1.47.86h-.01ZM918.76,35.43c.16-.67.31-1.45.43-2.14h-4.69v-1.45h11.35v1.45h-4.82c-.21.74-.43,1.49-.64,2.14h4.66v11.66h-9.71v-11.66h3.41ZM923.49,36.74h-6.57v2.19h6.57v-2.19ZM923.49,40.11h-6.57v2.21h6.57v-2.21ZM923.49,43.59h-6.57v2.21h6.57v-2.21ZM922.32,47.62c1.35.79,3.09,2,3.99,2.83l-1.31.97c-.86-.83-2.57-2.09-3.95-2.95,0,0,1.26-.86,1.26-.86Z"/>
    <path class="st1" d="M935.47,31.36c-.65,1.67-1.45,3.33-2.34,4.88v15.09h-1.6v-12.61c-.69,1.02-1.47,1.93-2.23,2.73-.19-.4-.65-1.26-.95-1.62,2.21-2.16,4.28-5.52,5.54-8.94l1.57.47ZM948.92,38.18v1.53h-13.54v-1.53h3.38v-2.95h-2.75v-1.49h2.75v-2.93h1.6v2.93h3.6v-2.93h1.62v2.93h2.88v1.49h-2.88v2.95h3.34ZM937.27,41.49h10.02v9.82h-1.69v-.95h-6.69v1h-1.64v-9.87ZM938.91,42.94v2.3h6.69v-2.3h-6.69ZM945.61,48.97v-2.36h-6.69v2.36h6.69ZM940.36,38.18h3.6v-2.95h-3.6v2.95Z"/>
    <path class="st1" d="M959.82,45.48c-2.81.83-5.81,1.71-7.99,2.36l-.45-1.6c1-.24,2.21-.57,3.54-.95v-5.45h-2.83v-1.55h2.83v-4.8h-3.11v-1.53h7.68v1.53h-2.97v4.8h2.78v1.55h-2.78v5.02l3.11-.88.21,1.49h-.01ZM970.38,49.76c.52,0,.61-.34.67-2.66.31.29,1,.54,1.4.66-.12,2.75-.54,3.45-1.9,3.45h-2.19c-1.6,0-2-.47-2-2.09v-5h-2.21c-.45,3.59-1.67,6.04-6.04,7.38-.16-.38-.61-1.05-.95-1.38,3.97-1.09,4.98-3.11,5.33-6.02h-2v-12.32h10.52v12.32h-3.07v5c0,.57.09.66.65.66h1.78ZM962.1,35.45h7.3v-2.26h-7.3v2.26ZM962.1,39.04h7.3v-2.26h-7.3v2.26ZM962.1,42.68h7.3v-2.3h-7.3v2.3Z"/>
    <path class="st1" d="M985.77,39.06v3.07h7.86v1.53h-7.86v5.5h8.87v1.55h-19.35v-1.55h8.74v-5.5h-7.73v-1.53h7.73v-3.07h-4.87v-1.24c-1.15.64-2.36,1.19-3.59,1.64-.24-.47-.69-1.15-1.12-1.53,4.19-1.38,8.33-4.01,10.47-7.35l1.53.72c-.16.24-.36.54-.57.81,2.23,2.38,6.19,4.73,9.61,5.81-.4.34-.93,1.02-1.17,1.46-1.17-.45-2.41-1.03-3.62-1.74v1.4h-4.95.01ZM979.58,44.15c.88,1.26,1.8,2.95,2.16,4.04l-1.47.6c-.31-1.03-1.21-2.81-2.07-4.07l1.38-.57ZM990.46,37.51c-2.02-1.19-4.01-2.71-5.47-4.23-1.48,1.62-3.29,3.07-5.28,4.23h10.75ZM987.82,48.29c.79-1.1,1.8-2.88,2.34-4.14l1.57.61c-.81,1.42-1.85,3.02-2.66,4.07l-1.26-.54h.01Z"/>
    <path class="st1" d="M1008.86,39.06v3.07h7.86v1.53h-7.86v5.5h8.87v1.55h-19.35v-1.55h8.74v-5.5h-7.73v-1.53h7.73v-3.07h-4.87v-1.24c-1.15.64-2.36,1.19-3.59,1.64-.24-.47-.69-1.15-1.12-1.53,4.19-1.38,8.33-4.01,10.47-7.35l1.53.72c-.16.24-.36.54-.57.81,2.23,2.38,6.19,4.73,9.61,5.81-.4.34-.93,1.02-1.17,1.46-1.17-.45-2.41-1.03-3.62-1.74v1.4h-4.95.01ZM1002.66,44.15c.88,1.26,1.8,2.95,2.16,4.04l-1.47.6c-.31-1.03-1.21-2.81-2.07-4.07l1.38-.57ZM1013.55,37.51c-2.02-1.19-4.01-2.71-5.47-4.23-1.48,1.62-3.29,3.07-5.28,4.23h10.75ZM1010.91,48.29c.79-1.1,1.8-2.88,2.34-4.14l1.57.61c-.81,1.42-1.85,3.02-2.66,4.07l-1.26-.54h.01Z"/>
    <path class="st1" d="M1029.83,44.58l-.16-.12v6.78h-1.49v-.66h-4.03v.69h-1.45v-6.57c-.38.21-.76.38-1.15.52-.16-.38-.59-1.09-.88-1.38,1.53-.57,3.07-1.4,4.37-2.48-.59-.38-1.17-.72-1.69-1.03l.95-1c.54.29,1.17.65,1.8,1.03.67-.74,1.28-1.55,1.74-2.43h-3.19c-.67,1.02-1.5,1.96-2.57,2.78-.2-.34-.64-.9-.9-1.12,1.74-1.21,2.83-2.97,3.38-4.5l1.33.24c-.16.45-.31.88-.54,1.31h3.29l.24-.07.86.64c-.59,1.48-1.4,2.79-2.38,3.92,1.35.81,2.64,1.64,3.47,2.26l-1,1.19h0ZM1022.64,36.74h-1.28v-3.78h4.07c-.21-.57-.45-1.15-.67-1.67l1.31-.47c.31.65.72,1.5.97,2.14h3.76v3.78h-1.35v-2.38h-6.8v2.38ZM1029.65,44.44c-.81-.61-2.02-1.45-3.31-2.26-.95.9-2.02,1.67-3.11,2.26h6.42ZM1028.18,49.22v-3.4h-4.03v3.4h4.03ZM1035.73,48.58c-1.31,1.06-3.22,2.21-4.66,2.9-.19-.34-.52-.9-.76-1.24,1.42-.66,3.26-1.78,4.28-2.73l1.15,1.06ZM1035.13,35.54c.16-.67.31-1.5.43-2.23h-4.05v-1.45h9.8v1.45h-4.17c-.23.76-.43,1.55-.64,2.23h4.07v11.63h-8.42v-11.63h2.97ZM1038.96,36.9h-5.25v2.09h5.25v-2.09ZM1038.96,40.28h-5.25v2.12h5.25v-2.12ZM1038.96,43.68h-5.25v2.12h5.25v-2.12ZM1037.76,47.48c1.24.74,2.86,1.93,3.69,2.77l-.95,1.19c-.79-.83-2.41-2.09-3.67-2.9l.93-1.05h0Z"/>
    <path class="st1" d="M1044.73,45.15l3.46-3.46-3.46-3.46,1.34-1.34,3.46,3.46,3.45-3.44,1.32,1.33-3.44,3.44,3.46,3.46-1.34,1.34-3.46-3.45-3.46,3.46-1.33-1.33h0Z"/>
    <path class="st1" d="M1057.63,45.39l1.98-.27c.23,1.12.61,1.93,1.16,2.43s1.21.74,2,.74c.93,0,1.71-.32,2.36-.97.64-.65.96-1.45.96-2.39s-.3-1.65-.89-2.24-1.35-.89-2.27-.89c-.37,0-.84.07-1.4.22l.22-1.74c.13.01.24.02.32.02.84,0,1.6-.22,2.28-.66.67-.44,1.01-1.12,1.01-2.04,0-.73-.24-1.33-.74-1.8-.49-.47-1.12-.72-1.9-.72s-1.41.24-1.92.73c-.51.49-.84,1.21-1,2.18l-1.98-.35c.24-1.33.79-2.36,1.65-3.09.86-.73,1.92-1.1,3.2-1.1.88,0,1.69.19,2.43.57.74.38,1.31.89,1.7,1.55.39.65.59,1.34.59,2.08s-.19,1.33-.56,1.9c-.37.57-.93,1.03-1.67,1.37.95.22,1.69.67,2.22,1.37.53.69.79,1.56.79,2.6,0,1.41-.51,2.6-1.54,3.59s-2.33,1.47-3.9,1.47c-1.41,0-2.59-.42-3.53-1.26s-1.47-1.93-1.6-3.27h0Z"/>
    <path class="st1" d="M1071.53,37.71c0-3.31,1.49-5.21,3.76-5.21s3.76,1.9,3.76,5.21-1.5,5.25-3.76,5.25-3.76-1.91-3.76-5.25ZM1077.47,37.71c0-2.66-.88-3.92-2.19-3.92s-2.21,1.26-2.21,3.92.9,3.97,2.21,3.97,2.19-1.33,2.19-3.97ZM1084.91,32.5h1.38l-9.14,17.16h-1.38l9.14-17.16ZM1083.06,44.42c0-3.31,1.49-5.21,3.74-5.21s3.76,1.9,3.76,5.21-1.48,5.25-3.76,5.25-3.74-1.91-3.74-5.25ZM1089.01,44.42c0-2.64-.88-3.92-2.21-3.92s-2.19,1.28-2.19,3.92.88,3.97,2.19,3.97,2.21-1.33,2.21-3.97Z"/>
    <path class="st1" d="M1112.3,41.97h-7.4v7.42h-1.53v-7.42h-7.42v-1.55h7.42v-7.42h1.53v7.42h7.4s0,1.55,0,1.55Z"/>
    <path class="st1" d="M1117.67,49.65v-16.13h2.19l8.47,12.66v-12.66h2.05v16.13h-2.19l-8.47-12.67v12.67h-2.05Z"/>
    <path class="st1" d="M1138.62,49.65v-14.22h-5.31v-1.9h12.78v1.9h-5.33v14.22h-2.14Z"/>
    <path class="st1" d="M1152.71,51.96v-1.98c-1-.13-1.79-.35-2.42-.66-.62-.32-1.16-.83-1.61-1.55-.45-.71-.72-1.59-.79-2.6l1.99-.37c.15,1.06.43,1.84.81,2.35.56.71,1.23,1.1,2,1.18v-6.31c-.81-.15-1.64-.47-2.5-.95-.64-.35-1.12-.84-1.46-1.46-.35-.62-.51-1.33-.51-2.12,0-1.41.5-2.55,1.49-3.42.67-.59,1.65-.95,2.97-1.08v-.95h1.17v.95c1.16.1,2.06.45,2.74,1.01.87.72,1.39,1.7,1.56,2.96l-2.05.31c-.12-.78-.36-1.38-.73-1.79s-.88-.68-1.53-.82v5.7c1,.25,1.65.44,1.98.58.61.27,1.12.6,1.5.98.39.39.68.86.9,1.39.21.53.31,1.11.31,1.74,0,1.38-.44,2.52-1.31,3.44-.87.91-2,1.41-3.39,1.48v2h-1.17.01ZM1152.71,34.63c-.78.12-1.38.43-1.82.93s-.67,1.09-.67,1.77.19,1.24.57,1.69,1.02.82,1.92,1.09v-5.48h0ZM1153.88,48.32c.78-.09,1.4-.43,1.91-1,.5-.57.75-1.28.75-2.13,0-.72-.17-1.3-.53-1.74s-1.06-.82-2.13-1.17v6.03Z"/>
    <path class="st1" d="M1168.59,49.65h-1.98v-12.61c-.47.45-1.1.91-1.87,1.37s-1.47.8-2.08,1.02v-1.91c1.11-.52,2.07-1.16,2.9-1.9.83-.74,1.41-1.46,1.76-2.15h1.27v16.19Z"/>
    <path class="st1" d="M1174.22,45.43l2.08-.17c.15,1.01.51,1.77,1.08,2.28.57.51,1.24.76,2.02.76.95,0,1.76-.36,2.42-1.08s1-1.67,1-2.86-.31-2.02-.95-2.67-1.47-.98-2.49-.98c-.64,0-1.21.15-1.72.44s-.91.66-1.21,1.12l-1.86-.24,1.56-8.28h8.02v1.9h-6.43l-.87,4.34c.97-.67,1.98-1.01,3.04-1.01,1.41,0,2.59.49,3.56,1.47.97.97,1.45,2.23,1.45,3.76s-.43,2.72-1.27,3.78c-1.03,1.31-2.44,1.96-4.23,1.96-1.47,0-2.66-.4-3.59-1.23-.93-.82-1.46-1.91-1.59-3.26v-.02Z"/>
    <path class="st1" d="M1187.32,41.7c0-1.91.2-3.44.59-4.6s.97-2.06,1.75-2.68,1.75-.95,2.92-.95c.87,0,1.62.17,2.28.52.65.35,1.19.86,1.62,1.5.43.66.76,1.46,1.01,2.39s.36,2.21.36,3.81c0,1.9-.2,3.41-.58,4.58-.39,1.17-.97,2.06-1.75,2.7s-1.75.95-2.93.95c-1.55,0-2.78-.56-3.67-1.68-1.06-1.34-1.6-3.53-1.6-6.56v.02ZM1189.36,41.7c0,2.65.31,4.41.93,5.29.61.88,1.39,1.32,2.29,1.32s1.68-.44,2.29-1.32c.62-.88.93-2.64.93-5.28s-.31-4.42-.93-5.29c-.62-.87-1.39-1.31-2.31-1.31s-1.63.38-2.18,1.16c-.68.98-1.02,2.8-1.02,5.45v-.02Z"/>
    <path class="st1" d="M740.61,75.03c-2,1.24-5.04,2.52-7.45,3.33-.24-.36-.74-.93-1.1-1.28,2.43-.72,5.5-2,7.07-3.09l1.49,1.04h-.01ZM752.17,73.6h-19.89v-1.55h4.12v-10h-3.49v-1.57h3.49v-2.59h1.64v2.59h8.33v-2.59h1.67v2.59h3.6v1.57h-3.6v10h4.12v1.55h.01ZM738.06,62.04v2.23h8.33v-2.23h-8.33ZM738.06,68.14h8.33v-2.43h-8.33v2.43ZM738.06,72.04h8.33v-2.45h-8.33v2.45ZM745.01,74.11c2.64.93,5.5,2.16,7.23,3.11l-1.49,1.1c-1.6-.95-4.26-2.19-6.87-3.16l1.12-1.06h.01Z"/>
    <path class="st1" d="M761.68,58.41c-.64,1.67-1.45,3.36-2.34,4.91v15.04h-1.6v-12.59c-.69,1.02-1.47,1.92-2.23,2.71-.16-.38-.64-1.24-.95-1.62,2.21-2.16,4.3-5.52,5.57-8.94l1.55.5h0ZM772.41,76.68c1.35,0,1.6-.61,1.78-3.24.4.27,1.06.54,1.53.64-.29,3.14-.81,4.12-3.26,4.12h-5.92c-2.66,0-3.45-.64-3.45-3.11v-7.38l-2.23.86-.64-1.46,2.86-1.12v-5.85h1.57v5.25l3.31-1.31v-6.17h1.53v5.59l3.74-1.45.31-.24,1.24.38-.07.31c-.07,3.24-.29,7.54-.65,10.2l-1.38-.4c.23-2.12.36-5.57.4-8.49l-3.6,1.4v8.25h-1.53v-7.64l-3.31,1.31v7.99c0,1.31.31,1.6,1.9,1.6h5.85v-.03Z"/>
    <path class="st1" d="M786.59,75.77c-1.85,1.03-4.69,2.05-6.97,2.64-.24-.34-.83-.97-1.19-1.26,2.3-.43,5.04-1.21,6.64-2.05l1.5.67h.01ZM791.99,75.08c2.34.67,4.8,1.53,6.33,2.19l-1.26,1.04c-1.5-.69-4.05-1.64-6.62-2.41l.83-.81h-9.98v-7.14c-.59.17-1.26.34-2,.5-.16-.38-.52-1-.79-1.31,2.83-.52,4.48-1.24,5.43-2.09h-3.83c.21-1,.43-2.38.57-3.56h4.48v-1.28h-5.5v-1.1h5.5v-1.24h1.53v1.24h3.47v-1.24h1.57v1.24h5.02v3.49h-5.02v1.35h6.42s-.02.34-.05.54c-.14,1.21-.27,1.87-.59,2.16-.29.27-.64.38-1.08.4-.16,0-.36.02-.59.02v8.02h-3.85v-.02ZM782,62.57c-.07.47-.14.93-.21,1.35h2.97c.2-.43.29-.88.34-1.35h-3.11.01ZM794.18,67.71h-11.26v1.4h11.26v-1.4ZM794.18,70.15h-11.26v1.38h11.26v-1.38ZM782.92,74h11.26v-1.42h-11.26v1.42ZM785.97,65.04c-.34.59-.86,1.12-1.6,1.6h10.07c-.05-.24-.16-.52-.27-.72.67.07,1.28.09,1.53.09s.4-.02.52-.16c.12-.12.21-.34.27-.81h-4.76v1.55h-1.57v-1.55h-4.19ZM790.16,62.57h-3.52c-.02.47-.09.93-.23,1.35h3.74v-1.35h.01ZM786.68,61.47h3.47v-1.28h-3.47v1.28ZM791.73,60.19v1.28h3.49v-1.28h-3.49Z"/>
    <path class="st1" d="M820.16,76.13c0,1.09-.29,1.57-1.02,1.87-.76.27-2.07.29-4.19.27-.07-.45-.34-1.17-.57-1.62,1.57.07,3.11.05,3.52.05.45-.02.61-.16.61-.59v-4.57h-6.06v6.64h-1.67v-6.64h-5.63c-.34,2.5-1.1,5.07-2.81,6.98-.24-.34-.93-.9-1.28-1.1,2.48-2.79,2.71-6.76,2.71-9.89v-8.11h16.39v16.71h0ZM810.78,69.94v-3.74h-5.38v1.33c0,.74-.02,1.57-.09,2.41h5.47,0ZM805.4,61.02v3.61h5.38v-3.61h-5.38ZM818.51,61.02h-6.06v3.61h6.06v-3.61ZM818.51,69.94v-3.74h-6.06v3.74h6.06Z"/>
    <path class="st1" d="M824.41,61.61h7.73v1.38h-7.73v-1.38ZM831.48,65.78h-6.56v-1.33h6.56v1.33ZM824.96,67.49h6.56v1.33h-6.56v-1.33ZM831.45,77.08h-4.93v1.04h-1.46v-7.54h6.4v6.51h-.01ZM826.51,71.94v3.76h3.45v-3.76h-3.45ZM828.2,61.36c-.2-.81-.72-2.09-1.12-3.04l1.4-.43c.47.93.97,2.16,1.17,2.95l-1.45.52ZM843.59,76.65c0,.81-.16,1.21-.76,1.46-.57.24-1.49.24-2.9.24-.07-.43-.24-1-.47-1.4,1.02.05,1.93.05,2.21.02.29,0,.36-.09.36-.34v-1.92h-6.99c-.24,1.42-.69,2.83-1.62,3.95-.24-.31-.83-.93-1.17-1.1,1.33-1.69,1.48-3.97,1.48-5.74v-4.14h9.87v8.97h0ZM844.89,65.08v1.28h-12.51v-1.28h5.31v-1.53h-4.5v-1.21h4.5v-1.38h-5.07v-1.28h5.07v-1.83h1.64v1.83h5.31v1.28h-5.31v1.38h4.88v1.21h-4.88v1.53h5.55ZM842.01,73.55v-1.67h-6.76c0,.52-.02,1.09-.07,1.67h6.83ZM835.25,69.02v1.67h6.76v-1.67h-6.76Z"/>
    <path class="st1" d="M867.71,75.96v1.57h-19.98v-1.57h9.08v-4.14h-7.12v-1.55h7.12v-2.93h1.69v2.93h7.32v1.55h-7.32v4.14h9.21ZM865.42,67.87c-.36-.47-.86-1.03-1.45-1.62-12.14.59-13.35.64-14.2.93-.09-.38-.34-1.21-.54-1.67.43-.07.95-.45,1.55-1.04.57-.47,2.09-2.02,3.38-3.81h-5.95v-1.57h18.77v1.57h-10.63c-1.33,1.74-2.77,3.36-4.19,4.64l10.4-.43c-.93-.83-1.9-1.67-2.79-2.36l1.33-.86c2.02,1.5,4.52,3.69,5.72,5.21l-1.42,1.02h.02Z"/>
    <path class="st1" d="M873.16,76.68l-3.58-11.69h2.05l1.86,6.75.69,2.51c.03-.13.23-.93.6-2.41l1.86-6.84h2.04l1.75,6.78.58,2.23.67-2.26,2-6.76h1.92l-3.66,11.69h-2.06l-1.86-7-.45-1.99-2.36,8.99h-2.07.01Z"/>
    <path class="st1" d="M889.98,76.68l-3.58-11.69h2.05l1.86,6.75.69,2.51c.03-.13.23-.93.6-2.41l1.86-6.84h2.04l1.75,6.78.58,2.23.67-2.26,2-6.76h1.92l-3.66,11.69h-2.06l-1.86-7-.45-1.99-2.36,8.99h-2.07.01Z"/>
    <path class="st1" d="M906.82,76.68l-3.58-11.69h2.05l1.86,6.75.69,2.51c.03-.13.23-.93.6-2.41l1.86-6.84h2.04l1.75,6.78.58,2.23.67-2.26,2-6.76h1.92l-3.66,11.69h-2.06l-1.86-7-.45-1.99-2.36,8.99h-2.07.01Z"/>
    <path class="st1" d="M920.8,76.68v-2.26h2.26v2.26h-2.26Z"/>
    <path class="st1" d="M927.54,76.68v-10.15h-1.75v-1.54h1.75v-1.24c0-.79.07-1.37.21-1.75.19-.51.52-.93,1.01-1.25.47-.32,1.16-.47,2.01-.47.56,0,1.17.07,1.85.2l-.3,1.72c-.4-.07-.8-.12-1.17-.12-.6,0-1.03.13-1.27.38-.25.25-.37.74-.37,1.43v1.08h2.28v1.54h-2.28v10.15h-1.97,0Z"/>
    <path class="st1" d="M941.88,72.92l2.05.25c-.32,1.19-.93,2.12-1.79,2.78s-1.99,1-3.34,1c-1.71,0-3.07-.53-4.06-1.57-1-1.05-1.5-2.53-1.5-4.43s.51-3.49,1.52-4.57c1.01-1.09,2.33-1.63,3.93-1.63s2.83.53,3.83,1.6,1.48,2.56,1.48,4.49v.53h-8.71c.07,1.28.44,2.27,1.09,2.95.65.68,1.47,1.02,2.44,1.02.73,0,1.34-.19,1.86-.57.51-.38.93-1,1.23-1.83h-.01ZM935.38,69.71h6.53c-.09-.98-.34-1.72-.75-2.21-.64-.76-1.45-1.15-2.45-1.15-.91,0-1.68.3-2.29.91-.62.61-.96,1.42-1.03,2.44Z"/>
    <path class="st1" d="M947,62.83v-2.28h1.98v2.28h-1.98ZM947,76.68v-11.69h1.98v11.69h-1.98Z"/>
    <path class="st1" d="M954.38,76.68h-1.84v-16.13h1.98v5.75c.83-1.05,1.9-1.57,3.2-1.57.72,0,1.4.15,2.04.44.64.29,1.17.69,1.59,1.23.42.52.74,1.16.97,1.9.23.74.35,1.53.35,2.37,0,2-.5,3.55-1.48,4.64-1,1.1-2.18,1.64-3.56,1.64s-2.46-.58-3.24-1.72v1.46ZM954.36,70.75c0,1.4.19,2.42.57,3.03.62,1.02,1.47,1.53,2.53,1.53.87,0,1.61-.37,2.24-1.12s.95-1.87.95-3.36-.3-2.65-.9-3.38-1.34-1.09-2.2-1.09-1.61.37-2.24,1.12-.95,1.84-.95,3.26Z"/>
    <path class="st1" d="M966.2,76.68v-2.26h2.26v2.26h-2.26Z"/>
    <path class="st1" d="M980.09,72.4l1.94.25c-.21,1.34-.75,2.39-1.63,3.15-.88.76-1.96,1.13-3.23,1.13-1.6,0-2.88-.52-3.85-1.57-.97-1.04-1.46-2.55-1.46-4.49,0-1.26.21-2.36.62-3.31.42-.95,1.05-1.65,1.91-2.13.86-.47,1.78-.71,2.79-.71,1.27,0,2.3.32,3.11.96.81.65,1.32,1.55,1.55,2.73l-1.92.3c-.19-.79-.51-1.38-.97-1.77s-1.03-.59-1.69-.59c-1,0-1.8.36-2.43,1.08s-.94,1.85-.94,3.39.3,2.71.9,3.42,1.39,1.06,2.35,1.06c.78,0,1.42-.24,1.94-.72.52-.47.86-1.2,1-2.2h0Z"/>
    <path class="st1" d="M983.55,70.84c0-2.16.6-3.77,1.8-4.81,1.01-.87,2.23-1.3,3.68-1.3,1.61,0,2.92.53,3.93,1.57,1.02,1.05,1.53,2.51,1.53,4.36,0,1.5-.22,2.68-.67,3.55-.45.86-1.11,1.53-1.97,2-.87.47-1.8.72-2.82.72-1.63,0-2.96-.52-3.97-1.57s-1.52-2.56-1.52-4.54h0ZM985.58,70.84c0,1.49.32,2.61.98,3.36.65.74,1.47,1.11,2.46,1.11s1.8-.37,2.45-1.12.98-1.89.98-3.42c0-1.45-.32-2.53-.98-3.29-.66-.74-1.47-1.12-2.45-1.12s-1.82.37-2.46,1.11-.98,1.86-.98,3.36v.02Z"/>
    <path class="st1" d="M997.39,76.68v-11.69h1.77v1.64c.37-.57.86-1.03,1.46-1.38.61-.35,1.3-.52,2.08-.52.87,0,1.57.19,2.13.54s.95.87,1.17,1.5c.93-1.37,2.13-2.05,3.61-2.05,1.16,0,2.05.32,2.67.96.62.65.94,1.63.94,2.96v8.02h-1.97v-7.36c0-.79-.07-1.37-.2-1.71-.13-.35-.36-.62-.69-.84-.34-.21-.73-.32-1.19-.32-.82,0-1.5.28-2.05.82s-.81,1.42-.81,2.63v6.79h-1.98v-7.59c0-.88-.16-1.54-.49-1.98s-.86-.66-1.59-.66c-.56,0-1.08.15-1.55.44s-.81.72-1.03,1.28c-.21.57-.32,1.38-.32,2.44v6.06h-1.98.01Z"/>
    <path class="st1" d="M1017.26,76.68v-2.26h2.26v2.26h-2.26Z"/>
    <path class="st1" d="M1027.85,74.91l.29,1.75c-.56.12-1.05.17-1.49.17-.72,0-1.27-.12-1.67-.35-.39-.23-.67-.52-.83-.89s-.24-1.15-.24-2.34v-6.72h-1.45v-1.54h1.45v-2.89l1.97-1.19v4.08h1.99v1.54h-1.99v6.83c0,.57.03.93.1,1.09s.19.29.34.38c.16.09.38.14.67.14.22,0,.51-.02.87-.08v.02Z"/>
    <path class="st1" d="M1032.51,76.68l-3.58-11.69h2.05l1.86,6.75.69,2.51c.03-.13.23-.93.6-2.41l1.86-6.84h2.04l1.75,6.78.58,2.23.67-2.26,2-6.76h1.92l-3.66,11.69h-2.06l-1.86-7-.45-1.99-2.36,8.99h-2.07.01Z"/>
    <path class="st1" d="M1066.9,62.18h-7.25c2.61,1.55,5.57,3.45,7.21,4.8l-1.08,1.17c-1.74-1.49-5.16-3.78-8.04-5.5v4.21h-1.64v-4.57c-2.02,2.64-5.36,4.95-8.4,6.18-.27-.38-.76-1.02-1.1-1.33,2.75-.95,5.76-2.83,7.68-4.95h-7.21v-1.49h9.04v-2.83h1.64v2.83h9.16v1.49h-.01ZM1047.43,76.18h19.15v1.5h-19.15v-1.5ZM1063.15,67.54v7.3h-12.44v-7.3h12.44ZM1061.44,68.73h-9.08v1.87h9.08v-1.87ZM1061.44,71.77h-9.08v1.86h9.08v-1.86Z"/>
    <path class="st1" d="M1077.99,63.02h-8.06v-1.38h8.06v1.38ZM1077.1,77.03h-4.95v1.06h-1.35v-7.57h6.31v6.51h0ZM1070.81,65.94v-1.33h6.26v1.33h-6.26ZM1070.81,67.54h6.28v1.33h-6.28v-1.33ZM1072.14,71.92v3.71h3.59v-3.71h-3.59ZM1073.92,61.4c-.34-.81-1.08-2.07-1.69-3l1.19-.69c.65.9,1.4,2.09,1.74,2.88l-1.24.81ZM1089.98,61.18s-.02.65-.02.88c-.31,10.68-.61,14.23-1.45,15.34-.47.64-.95.86-1.67.93s-1.91.05-3.09-.02c0-.47-.21-1.19-.52-1.64,1.31.09,2.48.12,2.95.12.4,0,.65-.07.88-.38.69-.76,1-4.23,1.26-13.65h-7.32c-.43.79-.88,1.55-1.33,2.21h5.9v8.97h-4.87v1.15h-1.35v-9.66c-.21.27-.43.54-.64.79-.31-.27-1.02-.76-1.42-1.02,1.69-1.76,3.07-4.48,3.83-7.35l1.64.38c-.29,1.02-.67,2.02-1.06,2.97h8.28ZM1080.72,66.32v2.41h3.47v-2.41h-3.47ZM1084.2,72.51v-2.43h-3.47v2.43h3.47Z"/>
  </g>
</svg>