<?xml version="1.0" encoding="utf-8"?>
<!-- Generator: Adobe Illustrator 16.0.0, SVG Export Plug-In . SVG Version: 6.00 Build 0)  -->
<!DOCTYPE svg PUBLIC "-//W3C//DTD SVG 1.1//EN" "http://www.w3.org/Graphics/SVG/1.1/DTD/svg11.dtd">
<svg version="1.1" id="圖層_1" xmlns="http://www.w3.org/2000/svg" xmlns:xlink="http://www.w3.org/1999/xlink" x="0px" y="0px"
	 width="430px" height="302px" viewBox="272.5 106.5 430 302" enable-background="new 272.5 106.5 430 302" xml:space="preserve">
<g>
	<g>
		<path fill="#C22D19" d="M515.1,229.536c-0.039-0.071-0.08-0.138-0.117-0.201l0.006-0.009l-29.44-55.005l-7.924-14.932
			c-1.67-3.238-3.207-5.307-5.427-6.666c-1.233-0.757-2.623-1.08-3.98-1.23c-4.48-0.483-9.053,1.8-11.34,6.104
			c-0.039,0.068-0.067,0.142-0.106,0.214l-0.002-0.005l-7.236,13.618l12.679,23.843l4.585-8.579l14.994,28.024l13.355,25.166
			l0.011-0.005c0.036,0.07,0.066,0.144,0.096,0.213c2.987,5.609,9.844,7.787,15.322,4.876
			C516.056,242.045,518.081,235.141,515.1,229.536z"/>
		<path fill="#C22D19" d="M442.082,239.525c-0.036-0.067-0.085-0.136-0.122-0.201l0.005-0.007l-59.139-110.46H357.89l64.236,121.015
			l0.008-0.008c0.036,0.073,0.065,0.146,0.101,0.217c2.982,5.605,9.836,7.785,15.322,4.873
			C443.033,252.039,445.062,245.136,442.082,239.525z"/>
		<path fill="#C22D19" d="M594.98,128.857l-49.624,92.729l-33.429-62.459l-0.025,0.01c-2.778-5.43-9.252-7.823-14.736-5.334
			c-4.521,2.056-6.992,6.801-6.452,11.579l44.772,84.237l0.037-0.022c0.077,0.161,0.154,0.325,0.232,0.483
			c2.982,5.605,9.836,7.785,15.319,4.873c2.729-1.454,4.396-4.738,5.425-6.668l63.414-119.429H594.98z"/>
		<polygon fill="#8B6E4A" points="561.245,128.22 533.409,180.219 546.013,203.929 586.212,128.22 		"/>
		<path fill="#8B6E4A" d="M459.588,208.022l-42.729-79.802h-24.991l57.685,108.69l0.013-0.002c0.034,0.067,0.065,0.14,0.098,0.208
			c2.985,5.609,9.841,7.794,15.322,4.876c2.727-1.452,4.98-5.479,6.357-8.368c0.308-0.655,2.318-4.476,5.433-10.372l-12.627-23.756
			L459.588,208.022z"/>
	</g>
	<g>
		<g>
			<path fill="#4C4948" d="M345.284,358.086h11.242c0.553-0.641,1.049-1.186,1.501-1.638c0.398-0.439,0.798-0.69,1.25-0.69
				c0.545,0,1.554,0.54,2.998,1.582c1.603,1.09,2.45,1.835,2.45,2.328c0,0.347-0.3,0.692-0.905,1.041
				c-0.594,0.394-0.948,0.742-1.044,1.042v4.846c0,0.493-0.501,0.84-1.453,1.041c1,0.69,1.951,1.282,2.799,1.781
				c1.049,0.744,1.603,1.284,1.603,1.63c0,0.398-0.199,0.595-0.603,0.595l-2.147-0.196c-1.101,0.545-2.499,1.086-4.199,1.631
				c0.199,0.101,0.349,0.152,0.55,0.199c2.15,0.943,3.698,1.928,4.696,2.972c0.85,0.889,1.303,1.778,1.303,2.719
				c0,0.692-0.253,1.235-0.701,1.685c-0.398,0.59-0.897,0.838-1.45,0.838c-0.75,0-2.251-1.23-4.45-3.758
				c-2.199-2.279-5.096-4.306-8.642-6.089l0.396-0.793c2.603,0.496,4.802,1.041,6.6,1.636c0.447-0.494,0.902-1.039,1.347-1.636
				c0.752-0.987,1.398-1.978,1.902-3.017c-0.703,0.099-1.15,0.099-1.45,0.099c-0.896,0-1.352-0.347-1.352-1.14v-0.938h-4.243
				c-1.905,2.078-3.652,3.613-5.153,4.601v5.642c1.804-0.298,3.603-0.69,5.3-1.187l0.349,0.791
				c-3.448,2.672-7.097,4.559-10.896,5.69c-0.398,0.099-0.6,0.246-0.6,0.494c-0.101,0.146-0.15,0.349-0.15,0.545
				c0,0.104-0.052,0.201-0.052,0.201c2.752,0.15,6.5,0.194,11.245,0.194c4.45,0,9.396-0.292,14.896-0.94l0.199,0.94
				c-1.248,0.3-2.3,1.435-3.096,3.518c-0.153,0.892-0.403,1.333-0.801,1.333H351.83c-2.897,0-6.546-0.191-11.045-0.548
				c-4.394-0.889-7.549-2.868-9.446-6.037c-0.15,0-0.302,0.15-0.4,0.398c-1.098,1.881-2.398,3.561-3.897,5.199
				c0,1.287-0.253,1.931-0.752,1.931c-0.3,0-0.646-0.398-0.998-1.096c-0.899-1.576-1.798-3.559-2.747-5.833
				c2.194-0.346,3.897-0.692,5.097-0.989v-12.573c-1.998,0-3.5,0.15-4.5,0.398l-0.796-2.326c1.294,0.396,2.698,0.592,4.292,0.592
				c0.602-0.54,1.101-1.088,1.603-1.579c0.697-0.747,1.199-1.143,1.55-1.143c0.499,0,1.349,0.595,2.6,1.686
				c1.4,1.186,2.096,1.881,2.096,2.176c0,0.496-0.297,0.892-0.899,1.287c-0.602,0.496-0.85,0.987-0.85,1.435v8.711
				c1.452,1.727,3.3,2.725,5.6,2.967c0.698,0.099,1.548,0.202,2.646,0.243c-0.447-0.543-0.897-1.38-1.3-2.471
				c-0.249-0.545-0.597-1.432-1.099-2.672c1.7-0.149,3.295-0.344,4.848-0.543v-3.959c-0.352,0.196-0.703,0.347-1,0.444
				c-2.096,0.846-4.448,1.535-6.999,2.13l-0.396-0.794c2.497-0.987,4.794-2.276,6.944-3.86c1.951-1.486,3.6-3.119,4.946-4.996
				h-2.096v0.742c0,0.646-0.801,1.088-2.401,1.388c-0.698,0.098-1.199,0.145-1.499,0.145c-1.101,0-1.6-0.444-1.6-1.336
				c0.101-0.892,0.199-1.931,0.199-3.067v-3.711c0-1.089-0.149-2.477-0.398-4.058C341.133,356.448,343.183,357.192,345.284,358.086z
				 M330.742,355.957c1.196,0.739,1.793,1.581,1.793,2.522c0,0.894-0.398,1.783-1.197,2.623c-0.55,0.592-1.25,0.845-2.15,0.845
				c-0.799,0-1.497-0.651-2.047-1.933c-0.75-1.833-2.099-3.613-4-5.396l0.403-0.791
				C326.938,354.525,329.338,355.218,330.742,355.957z M332.391,347.098c1.098,0.692,1.698,1.438,1.698,2.274
				c0,0.943-0.401,1.832-1.199,2.626c-0.55,0.592-1.251,0.889-2.147,0.889c-0.755,0-1.403-0.595-1.902-1.879
				c-0.7-1.729-1.951-3.416-3.75-5.094l0.4-0.749C328.788,345.765,331.088,346.405,332.391,347.098z M344.433,348.24h3.5v-0.791
				c0-1.391-0.15-2.775-0.401-4.259c2.15,0.199,4.249,0.491,6.298,0.843c1.25,0.096,1.896,0.397,1.896,0.94
				c0,0.248-0.4,0.543-1.098,0.889c-0.798,0.398-1.199,0.89-1.199,1.432v0.946h2.902c0.098,0,0.597-0.548,1.445-1.639
				c1.049-1.188,1.703-1.824,1.899-1.824c0.501,0,1.3,0.636,2.398,1.824c1.101,1.188,1.698,1.934,1.698,2.228
				c0,0.496-0.297,0.739-0.796,0.739h-9.546v4.259h6.05c0.098,0,0.548-0.586,1.445-1.68c1.003-1.287,1.651-1.982,1.853-1.982
				c0.499,0,1.346,0.644,2.548,1.931c1.147,1.287,1.747,2.031,1.747,2.326c0,0.548-0.297,0.796-0.798,0.796h-23.039
				c-2.854,0-4.849,0.099-6.045,0.191l-0.755-1.926c1.551,0.248,3.802,0.344,6.8,0.344h4.698v-4.259h-3.5
				c-2.897,0-4.9,0.106-6.047,0.204l-0.801-1.931C339.185,348.137,341.436,348.24,344.433,348.24z M357.525,364.467v-5h-12.691v5
				H357.525z"/>
			<path fill="#4C4948" d="M393.166,344.281c1.651,0.496,2.499,0.884,2.499,1.235c0,0.444-0.499,0.689-1.502,0.788
				c-0.796,0.152-1.3,0.297-1.4,0.493c2.902,0.846,5,1.69,6.35,2.574c1.45,1.096,2.199,2.424,2.199,3.913
				c0,0.594-0.253,1.188-0.75,1.729c-0.4,0.396-0.85,0.545-1.401,0.545c-1.199,0-2.3-0.741-3.199-2.317
				c-0.85-1.683-2.199-3.376-4.099-4.952c-1.3,2.127-2.646,3.858-4.047,5.194c-0.949,1.088-2.05,2.075-3.3,3.063
				c1.453,0.15,3.3,0.204,5.5,0.204h2.15c0.049-0.054,0.45-0.493,1.147-1.341c0.85-1.039,1.349-1.582,1.551-1.582
				c0.45,0,1.199,0.543,2.197,1.582c1.002,1.039,1.501,1.683,1.501,1.931c0,0.493-0.199,0.746-0.551,0.746h-5.298v6.58h1.401
				c0.098,0,0.504-0.444,1.199-1.334c0.801-1.038,1.297-1.581,1.499-1.581c0.449,0,1.199,0.543,2.199,1.581
				c1,1.037,1.55,1.681,1.55,1.929c0,0.496-0.202,0.744-0.602,0.744h-7.247v12.718c2.6-0.442,5.05-0.99,7.448-1.688l0.4,0.791
				c-4.75,3.566-9.748,6.094-14.994,7.679c-0.602,0.043-0.848,0.245-0.848,0.641c-0.101,0.147-0.152,0.396-0.204,0.692
				c-0.098,0.398-0.297,0.648-0.548,0.648c-0.752,0-1.597-1.245-2.551-3.67c-0.297-0.641-0.796-1.726-1.398-3.313
				c2.6-0.199,5.148-0.488,7.647-0.892v-13.606h-0.6c-2.848,0-4.848,0.096-6.045,0.196l-0.801-1.928
				c1.6,0.289,3.846,0.393,6.846,0.393h0.6v-6.58c-1.698,0.047-2.897,0.096-3.698,0.197l-0.401-0.985
				c-1.098,0.788-2.3,1.577-3.548,2.37l-0.347-0.793c1.497-1.634,3.194-3.905,5.047-6.877c1.445-2.378,2.747-5.396,3.897-8.952
				C390.318,343.537,391.863,343.983,393.166,344.281z M385.72,371.747c0.747,1.287,1.147,2.474,1.147,3.556
				c0,1.191-0.25,2.031-0.703,2.43c-0.649,0.692-1.347,1.039-2.05,1.039c-0.499,0-0.899-0.248-1.194-0.744
				c-0.302-0.347-0.452-1.389-0.452-3.117c0-1.876-0.25-4.06-0.648-6.582l0.55-0.199C383.769,369.271,384.87,370.455,385.72,371.747
				z M399.36,368.873c1.303,0.491,1.951,1.039,1.951,1.582c0,0.297-0.349,0.447-1,0.496c-0.698,0.098-1.052,0.196-1.15,0.3
				c-1.398,2.274-3.098,4.352-5.047,6.182l-0.6-0.595c0.648-2.868,1.147-6.031,1.548-9.448
				C396.564,367.881,397.962,368.38,399.36,368.873z M407.659,346.702h7.347c0.698-0.84,1.403-1.581,2.099-2.271
				c0.501-0.548,0.954-0.848,1.4-0.848c0.401,0,1.349,0.496,2.846,1.437c1.706,1.187,2.604,2.034,2.604,2.43
				c0,0.491-0.405,0.982-1.101,1.432c-0.602,0.444-0.851,0.94-0.851,1.483v8.908c0,1.584,0.044,3.711,0.197,6.384
				c0,0.597-0.701,0.989-2.049,1.286c1.302,0.789,2.501,1.538,3.6,2.226c1.303,0.995,1.949,1.683,1.949,2.083
				c0,0.537-0.25,0.785-0.75,0.785l-2.75-0.393c-1.398,1.091-3.344,2.182-5.846,3.315c0.199,0.396,0.403,0.695,0.604,0.943
				c0.946,1.381,2.145,2.571,3.644,3.562c1.349,0.987,3.099,1.882,5.298,2.626l-0.202,1.132c-1.496,0.201-2.644,1.14-3.447,2.822
				c-0.499,1.191-0.902,1.829-1.199,1.829c-0.3,0-1.047-0.54-2.147-1.581c-1.15-1.138-2.297-2.725-3.45-4.846
				c-0.3-0.499-0.501-0.943-0.703-1.432c-3.695,2.768-7.546,4.744-11.49,6.078c-0.501,0.101-0.75,0.297-0.75,0.597
				c-0.103,0.196-0.152,0.439-0.202,0.739c-0.152,0.396-0.349,0.641-0.602,0.641c-0.747,0-1.6-1.232-2.548-3.656
				c-0.297-0.695-0.747-1.781-1.346-3.321c1.396-0.093,2.747-0.248,4.094-0.439v-26.623c0-4.164-0.199-7.277-0.597-9.454
				C403.113,344.974,405.263,345.713,407.659,346.702z M416.554,355.014v-6.973h-9.197v6.973H416.554z M416.554,363.531v-7.179
				h-9.197v7.179H416.554z M412.809,374.166c-0.604-2.326-1.152-5.44-1.649-9.304h-3.804v14.942c2.349-0.393,4.6-0.886,6.701-1.432
				C413.554,377.089,413.104,375.654,412.809,374.166z M414.058,369.912c0.499,1.488,1.046,2.724,1.646,3.812
				c0.45-0.689,0.905-1.439,1.352-2.323c0.801-1.338,1.45-2.775,1.998-4.311c-0.499,0.102-0.899,0.102-1.147,0.102
				c-0.902,0-1.352-0.497-1.352-1.535v-0.794h-3.943C412.907,366.354,413.357,368.036,414.058,369.912z"/>
			<path fill="#4C4948" d="M446.842,377.929c1.6,0.444,2.401,0.843,2.401,1.235c0,0.396-0.497,0.6-1.45,0.695
				c-0.749,0.096-1.196,0.245-1.3,0.444c-0.998,1.688-2.096,3.016-3.246,4.058c-1.3,1.237-3.049,2.476-5.147,3.708l-0.401-0.584
				c0.848-1.142,1.747-2.727,2.747-4.703c0.801-1.636,1.501-3.665,2.148-6.144C444.196,377.138,445.643,377.582,446.842,377.929z
				 M446.395,346.901h5.2c0.548-0.496,1.049-0.987,1.545-1.488c0.698-0.688,1.202-1.039,1.553-1.039
				c0.548,0,1.545,0.496,2.946,1.488c1.698,1.284,2.55,2.132,2.55,2.569c0,0.449-0.45,0.94-1.3,1.434
				c-0.7,0.603-1.049,1.143-1.049,1.642v13.355l0.349,9.849c0,0.644-0.946,1.135-2.747,1.435c-0.801,0.104-1.352,0.104-1.701,0.104
				c-0.948,0-1.398-0.496-1.398-1.538v-1.336h-6.797v1.143c0,0.641-0.804,1.137-2.401,1.435c-0.703,0.093-1.248,0.145-1.551,0.145
				c-1.202,0-1.75-0.494-1.75-1.579c0.251-3.469,0.398-6.585,0.398-9.257v-12.175c0-2.323-0.147-5.146-0.398-8.511
				C442.193,345.165,444.397,345.914,446.395,346.901z M452.344,355.014v-6.773h-6.797v6.773H452.344z M452.344,363.726v-7.373
				h-6.797v7.373H452.344z M452.344,372.036v-6.978h-6.797v6.978H452.344z M457.991,380.26c1.199,0.887,1.796,1.68,1.796,2.372
				c0,1.233-0.398,2.274-1.099,3.161c-0.648,0.845-1.4,1.289-2.248,1.289c-0.447,0-0.848-0.146-1.15-0.393
				c-0.297-0.3-0.597-1.186-1-2.724c-0.452-1.783-1.595-3.861-3.497-6.337l0.801-0.595
				C454.642,378.224,456.792,379.314,457.991,380.26z M465.237,355.559h5.099v-4.398c0-3.07-0.152-5.693-0.403-7.97
				c1.502,0.248,2.902,0.444,4.102,0.641c2.7,0.398,4.097,0.744,4.097,1.143c0,0.543-0.499,1.041-1.396,1.483
				c-0.604,0.201-0.95,0.597-0.95,1.187v7.326c0.3-0.352,0.597-0.744,0.95-1.188c1.099-1.391,1.797-2.081,1.996-2.081
				c0.553,0,1.452,0.69,2.749,2.031c1.248,1.334,1.899,2.127,1.899,2.425c0,0.54-0.248,0.793-0.752,0.793h-6.843v24.143
				c0,2.978-0.802,4.856-2.398,5.745c-1.902,0.938-3.3,1.439-4.251,1.439c-0.447,0-0.799-0.548-1.099-1.587
				c-0.45-1.783-2.502-3.22-6.099-4.408l0.201-0.987c2.15,0.294,3.946,0.397,5.447,0.397c1.001,0,1.701-0.104,2.197-0.397
				c0.352-0.202,0.553-0.642,0.553-1.339v-13.602c-0.349,0.641-0.651,1.187-0.899,1.631c-1.501,2.37-3.15,4.45-5.047,6.236
				c-1.904,1.824-3.951,3.361-6.2,4.551l-0.349-0.744c2.15-2.274,4.147-5.144,6.048-8.663c1.845-3.562,3.398-7.717,4.698-12.415
				h-3.35c-2.848,0-4.846,0.093-6.047,0.196l-0.804-1.928C459.991,355.469,462.239,355.559,465.237,355.559z"/>
			<path fill="#4C4948" d="M520.619,344.229c1.243,0.052,1.896,0.346,1.896,0.936c0,0.248-0.395,0.548-1.101,0.894
				c-0.851,0.398-1.248,0.892-1.248,1.391v1.923h11.743c0.6-0.584,1.152-1.036,1.603-1.432c0.648-0.692,1.145-1.039,1.499-1.039
				c0.449,0,1.55,0.742,3.3,2.13c1.548,1.284,2.349,2.173,2.349,2.669c0,0.447-0.4,0.69-1.152,0.794
				c-0.896,0-1.449,0.096-1.551,0.199c-1.749,1.234-3.896,2.473-6.447,3.659l-0.799-0.396h-21.088c-2.851,0-4.849,0.093-6.05,0.199
				l-0.747-1.931c1.548,0.3,3.799,0.393,6.797,0.393h14.438c0.101-0.047,0.603-0.589,1.504-1.631
				c0.998-1.191,1.644-1.827,1.846-1.827c0.501,0,1.302,0.636,2.403,1.827c0.747,0.84,1.251,1.435,1.449,1.729
				c0.548-1.287,0.998-2.569,1.398-3.954h-31.139c-0.049,1.333-0.149,2.323-0.297,3.019c-0.303,1.485-0.851,2.476-1.553,3.063
				c-0.447,0.349-0.899,0.496-1.347,0.496c-1.052,0-1.897-0.298-2.601-0.892c-0.65-0.491-0.948-1.23-0.948-2.223
				c0-0.494,0.502-1.091,1.603-1.835c1.099-0.69,1.995-1.53,2.693-2.471c0.6-0.791,1.149-2.078,1.602-3.812l0.951,0.196
				c0,1.145-0.052,2.184-0.052,3.067h13.142v-1.729c0-1.383-0.147-2.773-0.396-4.254
				C516.466,343.583,518.567,343.883,520.619,344.229z M505.873,371.251h22.89c0.749-0.796,1.452-1.535,2.149-2.135
				c0.497-0.491,0.949-0.788,1.35-0.788s1.398,0.496,3,1.439c1.799,1.184,2.695,2.021,2.695,2.419c0,0.496-0.346,0.94-1.049,1.339
				c-0.499,0.393-0.7,0.886-0.7,1.385v5.593c0,1.529,0.052,3.566,0.201,6.187c0,0.595-0.848,1.086-2.501,1.438
				c-0.747,0.095-1.301,0.149-1.646,0.149c-0.902,0-1.35-0.548-1.35-1.587v-0.94h-26.138v0.744c0,0.636-0.801,1.137-2.4,1.429
				c-0.7,0.099-1.199,0.147-1.502,0.147c-1.096,0-1.594-0.545-1.594-1.576c0.098-1.685,0.198-3.318,0.198-5.003v-5.789
				c0-2.375-0.152-4.698-0.402-6.976C501.324,369.364,503.573,370.207,505.873,371.251z M510.52,359.668h14.145
				c0.6-0.793,1.152-1.432,1.602-1.975c0.396-0.501,0.848-0.744,1.347-0.744c0.604,0,1.597,0.54,3.099,1.631
				c1.703,1.14,2.554,1.931,2.554,2.427c0,0.393-0.352,0.744-1.052,1.08c-0.651,0.354-1,0.703-1.099,1.047v4.995
				c0,0.597-0.855,0.987-2.502,1.235c-0.749,0.104-1.297,0.15-1.597,0.15c-0.899,0-1.352-0.445-1.352-1.386v-0.739h-15.643v0.388
				c0,0.651-0.805,1.096-2.398,1.339c-0.703,0.155-1.199,0.201-1.502,0.201c-1.049,0-1.551-0.444-1.551-1.385
				c0.104-0.892,0.204-1.882,0.204-3.07v-3.267c0-1.135-0.152-2.471-0.4-4.058C506.369,358.035,508.421,358.779,510.52,359.668z
				 M515.12,377.433v-4.851h-10.346v4.851H515.12z M515.12,384.413v-5.642h-10.346v5.642H515.12z M525.664,366.005v-4.998h-15.643
				v4.998H525.664z M520.366,377.433h10.546v-4.851h-10.546V377.433z M530.912,384.413v-5.642h-10.546v5.642H530.912z"/>
			<path fill="#4C4948" d="M563.253,344.523c1.396,0.45,2.099,0.89,2.099,1.391c0,0.491-0.4,0.788-1.199,0.884
				c-0.802,0.104-1.248,0.3-1.352,0.496c-0.199,0.496-0.452,0.946-0.648,1.339h5.946c0,0,0.496-0.496,1.4-1.535
				c1.152-1.385,1.899-2.124,2.298-2.124c0.352,0,1.4,0.791,3.101,2.372c1.05,0.99,1.598,1.634,1.598,1.877
				c0,0.496-0.352,0.749-1.001,0.749h-8.897c0.853,0.393,1.502,0.741,1.954,1.036c1,0.788,1.496,1.486,1.496,2.078
				c0,1.191-0.297,2.08-0.799,2.772c-0.697,0.742-1.498,1.091-2.349,1.091c-0.504,0-0.851-0.105-1.047-0.403
				c-0.3-0.098-0.501-0.832-0.651-2.124c-0.201-1.483-0.703-2.972-1.398-4.45h-2.352c-0.801,1.435-1.7,2.664-2.648,3.76
				c-1.499,1.781-3.396,3.566-5.748,5.342l-0.597-0.594c1.698-2.522,3.047-4.9,3.946-7.073c0.899-2.277,1.698-5.001,2.3-8.216
				C560.252,343.682,561.751,344.129,563.253,344.523z M583.145,344.523c1.397,0.45,2.147,0.89,2.147,1.391
				c0,0.491-0.4,0.788-1.199,0.884c-0.799,0.104-1.251,0.3-1.349,0.496c-0.251,0.45-0.502,0.843-0.701,1.138h7.148
				c0,0,0.502-0.491,1.45-1.53c1.245-1.385,2.047-2.124,2.444-2.124c0.352,0,1.4,0.785,3.205,2.369
				c1.096,0.99,1.697,1.642,1.697,1.885c0,0.49-0.352,0.741-1,0.741h-9.998c0.95,0.393,1.697,0.742,2.201,1.036
				c1.147,0.791,1.747,1.483,1.747,2.078c0,1.091-0.251,1.979-0.747,2.626c-0.7,0.692-1.4,1.033-2.201,1.033
				c-0.649,0-1.102-0.098-1.401-0.341c-0.297-0.155-0.597-0.843-0.848-2.13c-0.201-1.382-0.798-2.816-1.798-4.303h-2.9
				c-0.498,0.543-0.951,1.036-1.349,1.432c-0.799,0.695-1.698,1.432-2.698,2.132c0.398,0.047,0.75,0.094,1.147,0.147
				c1.199,0.096,1.853,0.396,1.853,0.938c0,0.196-0.402,0.499-1.101,0.845c-0.851,0.396-1.251,0.783-1.251,1.279v1.54h12.098
				c0.646-0.548,1.196-0.994,1.646-1.336c0.653-0.644,1.149-0.992,1.496-0.992c0.455,0,1.501,0.69,3.152,2.075
				c1.502,1.24,2.298,2.083,2.298,2.577c0,0.395-0.398,0.692-1.15,0.793c-0.894,0-1.447,0.093-1.548,0.196
				c-1.551,0.796-3.396,1.584-5.497,2.326c0.502,0.496,0.799,0.894,0.799,1.137c0,0.398-0.297,0.744-0.848,1.091
				c-0.551,0.346-0.853,0.692-0.899,1.041v6.185c0,0.393-0.4,0.692-1.152,0.889c0.553,0.3,1.199,0.739,2,1.235
				c1.6,1.088,2.45,1.882,2.45,2.326c0,0.398-0.248,0.744-0.749,1.094c-0.502,0.349-0.75,0.689-0.802,1.041v6.926
				c0,0.546-0.848,0.94-2.496,1.232c-0.755,0.099-1.3,0.147-1.6,0.147c-0.899,0-1.35-0.491-1.35-1.38v-1.339h-19.142v1.339
				c0,0.595-0.854,1.086-2.502,1.438c-0.744,0.095-1.297,0.149-1.6,0.149c-1.096,0-1.6-0.548-1.6-1.587
				c0.104-1.734,0.199-3.411,0.199-5.199v-13.162c0-1.486-0.047-2.918-0.147-4.353c-0.3,0.587-0.603,1.037-0.951,1.331
				c-0.796,0.744-1.802,1.091-2.995,1.091c-0.654,0-1.202-0.196-1.603-0.641c-0.403-0.45-0.553-0.943-0.553-1.483
				c0-0.298,0.653-1.24,2.003-2.822c1.253-1.783,1.951-4.058,2.101-6.833l0.796-0.196c0.649,1.385,1.104,2.574,1.403,3.664h11.493
				v-1.336c0-1.281-0.147-2.675-0.401-4.057c1.05,0.095,2.102,0.245,3.2,0.344c0.85-1.438,1.501-2.822,2-4.109
				c0.551-1.582,1.049-3.515,1.447-5.737C580.195,343.682,581.691,344.129,583.145,344.523z M582.744,363.531
				c0.55-0.695,1.049-1.336,1.501-1.837c0.396-0.439,0.799-0.688,1.248-0.688c0.548,0,1.548,0.543,2.998,1.535
				c0.152,0.093,0.3,0.196,0.45,0.294c0.599-1.085,1.149-2.228,1.597-3.369h-29.34c0,0.397,0.054,0.697,0.054,0.943
				c0,0.395-0.054,0.741-0.054,0.989c2.003,0.595,4.003,1.29,6.003,2.132H582.744z M583.692,370.851v-5.988h-17.341v5.988H583.692z
				 M584.289,376.448c0.553-0.747,1.055-1.394,1.502-1.931l0.051-0.052c-0.349,0.052-0.6,0.052-0.749,0.052
				c-0.951,0-1.4-0.45-1.4-1.339v-0.992h-17.341v4.262H584.289z M585.493,384.018v-6.192h-19.142v6.192H585.493z"/>
			<path fill="#4C4948" d="M616.379,348.24h4.499c0.101,0,0.501-0.496,1.3-1.442c0.899-1.085,1.45-1.633,1.648-1.633
				c0.453,0,1.199,0.548,2.301,1.633c1.049,1.094,1.602,1.783,1.602,2.031c0,0.496-0.302,0.739-0.804,0.739h-5.444v11.438
				c0.101-0.05,0.496-0.496,1.196-1.287c0.853-0.94,1.352-1.437,1.553-1.437c0.396,0,1.099,0.496,2.047,1.485
				c0.948,0.99,1.452,1.631,1.452,1.827c0,0.491-0.201,0.744-0.602,0.744h-5.646v11.035c2.444-0.594,4.796-1.339,6.995-2.124
				l0.202,0.589c-4.5,3.861-9.203,6.684-14.196,8.42c-0.548,0.093-0.801,0.292-0.801,0.639c-0.099,0.193-0.15,0.447-0.15,0.689
				c-0.101,0.502-0.245,0.693-0.446,0.693c-0.701,0-1.502-1.135-2.401-3.464c-0.297-0.594-0.695-1.633-1.3-3.116
				c2.3-0.295,4.603-0.646,6.8-1.086V362.34c-2.45,0-4.197,0.102-5.247,0.202l-0.801-1.934c1.447,0.248,3.447,0.398,6.048,0.398
				v-11.438c-2.753,0-4.698,0.106-5.849,0.204l-0.752-1.931C611.133,348.137,613.381,348.24,616.379,348.24z M633.973,347.644
				h10.944c0.7-0.742,1.352-1.383,2.001-1.931c0.452-0.491,0.901-0.739,1.297-0.739c0.403,0,1.3,0.439,2.752,1.287
				c1.649,1.188,2.502,1.979,2.502,2.372c0,0.444-0.354,0.889-1,1.339c-0.502,0.393-0.752,0.889-0.752,1.38v10.596
				c0,1.535,0.052,3.613,0.196,6.182c0,0.644-0.843,1.143-2.497,1.432c-0.749,0.106-1.299,0.155-1.597,0.155
				c-0.901,0-1.352-0.496-1.352-1.587v-0.543h-4.096v7.125h3.096c0.101-0.046,0.651-0.644,1.553-1.78
				c1.097-1.388,1.799-2.08,1.998-2.08c0.551,0,1.447,0.692,2.75,2.033c1.245,1.337,1.896,2.13,1.896,2.419
				c0,0.543-0.251,0.794-0.749,0.794h-10.544v8.662h4.298c0.098-0.103,0.648-0.741,1.597-1.977c1.199-1.488,1.902-2.279,2.099-2.279
				c0.602,0,1.602,0.739,2.998,2.176c1.4,1.437,2.104,2.328,2.104,2.672c0,0.491-0.352,0.794-1.003,0.794h-25.988
				c-2.845,0-4.848,0.049-6.047,0.199l-0.752-1.931c1.55,0.193,3.802,0.346,6.799,0.346h8.599v-8.662h-2.502
				c-2.897,0-4.897,0.049-6.097,0.152l-0.747-1.933c1.546,0.299,3.849,0.395,6.844,0.395h2.502v-7.125h-3.701v0.941
				c0,0.641-0.749,1.14-2.251,1.432c-0.697,0.104-1.145,0.104-1.447,0.104c-1.049,0-1.548-0.502-1.548-1.535
				c0.098-1.533,0.199-3.07,0.199-4.652v-11.779c0-2.274-0.15-4.452-0.398-6.579C629.926,346.059,631.975,346.752,633.973,347.644z
				 M637.074,357.34v-8.309h-3.701v8.309H637.074z M637.074,366.201v-7.525h-3.701v7.525H637.074z M642.372,357.34h4.096v-8.309
				h-4.096V357.34z M642.372,366.201h4.096v-7.525h-4.096V366.201z"/>
		</g>
	</g>
	<g>
		<g>
			<path fill="#8B6E4A" d="M346.356,318.021v-36.764h8.549v14.247h26.722v-14.247h8.616v36.764h-8.616v-15.814h-26.722v15.814
				H346.356z"/>
			<path fill="#8B6E4A" d="M405.568,318.021l20.799-36.764h8.265l21.09,36.764h-9.616l-4.422-8.049h-23.3l-4.277,8.049H405.568z
				 M422.02,303.344h16.103l-7.908-14.959L422.02,303.344z"/>
			<path fill="#8B6E4A" d="M471.109,318.021v-36.764h31.492c5.51,0,8.262,2.375,8.262,7.127v8.192c0,4.75-2.752,7.121-8.262,7.121
				h-23.086v14.323H471.109z M498.753,287.521h-19.237v9.909h19.237c1.334,0,2.257-0.142,2.781-0.437
				c0.711-0.433,1.067-1.275,1.067-2.526v-3.975c0-1.254-0.356-2.097-1.067-2.532C501.01,287.673,500.087,287.521,498.753,287.521z"
				/>
			<path fill="#8B6E4A" d="M527.612,318.021v-36.764h31.49c5.51,0,8.265,2.375,8.265,7.127v8.192c0,4.75-2.755,7.121-8.265,7.121
				H536.02v14.323H527.612z M555.254,287.521H536.02v9.909h19.234c1.331,0,2.257-0.142,2.778-0.437
				c0.711-0.433,1.07-1.275,1.07-2.526v-3.975c0-1.254-0.359-2.097-1.07-2.532C557.511,287.673,556.585,287.521,555.254,287.521z"/>
			<path fill="#8B6E4A" d="M594.368,318.021V301.56l-19.093-20.302h11.401l12.606,14.105l12.687-14.105h10.043l-19.023,20.087
				v16.677H594.368z"/>
		</g>
		<polygon fill="#8B6E4A" points="647.91,264.985 638.542,264.985 638.602,255.636 631.45,255.588 631.389,264.985 621.977,264.985 
			621.977,272.128 631.342,272.128 631.279,281.476 638.434,281.521 638.495,272.128 647.91,272.128 		"/>
	</g>
</g>
</svg>
