<?xml version="1.0" encoding="utf-8"?>
<!-- Generator: Adobe Illustrator 16.0.0, SVG Export Plug-In . SVG Version: 6.00 Build 0)  -->
<!DOCTYPE svg PUBLIC "-//W3C//DTD SVG 1.1//EN" "http://www.w3.org/Graphics/SVG/1.1/DTD/svg11.dtd">
<svg version="1.1" id="圖層_1" xmlns="http://www.w3.org/2000/svg" xmlns:xlink="http://www.w3.org/1999/xlink" x="0px" y="0px"
	 width="1044.5px" height="276px" viewBox="0 130.5 1044.5 276" enable-background="new 0 130.5 1044.5 276" xml:space="preserve">
<g>
	<path fill="#B73021" d="M144.315,175.21c0-5.053-3.368-8.421-8.421-8.421c-4.21,0-8.421,3.368-8.421,8.421v50.526
		c0,32.842-33.684,33.684-33.684,33.684v-84.21c0-23.579,18.526-42.105,42.105-42.105c22.737,0,42.105,18.526,42.105,42.105H144.315
		z"/>
	<path fill="#B73021" d="M135.895,216.474h81.684c0,0-0.842-33.684-33.684-33.684h-48V216.474L135.895,216.474z"/>
	<path fill="#B73021" d="M44.105,258.579c-5.052,0-8.421,3.368-8.421,8.421c0,4.211,3.369,8.421,8.421,8.421h50.526
		c32.842,0,33.684,33.686,33.684,33.686h-84.21C20.526,309.105,2,290.579,2,267c0-22.737,18.526-42.105,42.105-42.105V258.579z"/>
	<path fill="#B73021" d="M86.21,267v-81.684c0,0-33.684,0.842-33.684,33.684v48H86.21z"/>
	<path fill="#B73021" d="M228.526,276.264c4.21,0,8.421-3.369,8.421-8.422s-3.369-8.421-8.421-8.421H178
		c-32.842,0-33.685-33.684-33.685-33.684h84.211c22.737,0,42.104,18.526,42.104,42.105c0,22.737-18.525,42.105-42.104,42.105
		V276.264z"/>
	<path fill="#B73021" d="M186.421,267.842v81.686c0,0,33.685-0.843,33.685-33.686v-48H186.421z"/>
	<path fill="#B73021" d="M127.474,358.789c0,4.211,3.368,8.422,8.421,8.422c4.21,0,8.421-3.369,8.421-8.422v-50.526
		c0-32.842,33.685-33.684,33.685-33.684v84.21c0,23.579-18.526,42.104-42.105,42.104c-22.737,0-42.105-18.525-42.105-42.104H127.474
		z"/>
	<path fill="#B73021" d="M135.895,317.526H54.21c0,0,0.842,33.685,33.684,33.685h48L135.895,317.526L135.895,317.526z"/>
	<path fill="#231714" d="M401.158,242.579H434c1.685-1.685,3.368-3.369,4.21-5.053c0.843-1.684,2.526-1.684,3.369-1.684
		c1.684,0,4.21,1.684,8.421,5.052c5.053,3.369,7.579,5.053,7.579,6.737c0,0.842-0.842,1.685-2.526,3.369
		c-1.685,0.842-2.525,2.526-3.368,3.368v14.315c0,1.685-1.685,2.526-4.211,3.368c2.526,1.685,5.896,3.368,8.421,5.054
		c3.368,2.524,5.054,4.211,5.054,5.053s-0.842,1.684-1.686,1.684L452.526,283c-3.368,1.685-7.579,3.368-12.633,5.053
		c0.843,0,0.843,0,1.686,0.842c5.895,2.526,10.947,5.896,13.474,8.422c2.527,2.525,4.21,5.053,4.21,8.422
		c0,1.684-0.842,3.368-1.684,5.052c-0.843,1.685-2.526,2.526-4.211,2.526c-2.526,0-6.736-3.368-12.632-10.947
		c-6.736-6.736-15.157-12.631-25.263-17.685l0.842-2.525c7.579,1.684,14.316,3.368,19.369,5.053c1.685-1.685,2.525-3.369,4.21-5.053
		c2.526-2.526,4.212-5.896,5.896-9.265c-1.684,0-3.368,0-4.21,0c-2.526,0-4.211-0.842-4.211-3.367V267h-12.632
		c-5.896,5.895-10.947,10.947-15.158,13.475v16.842c5.053-0.843,10.948-1.685,15.158-3.368l0.843,2.525
		c-10.105,7.579-21.053,13.475-32.001,16.843c-0.842,0-1.684,0.843-1.684,1.685s-0.842,0.842-0.842,1.685v0.843
		c8.421,0.842,19.368,0.842,32.842,0.842c12.633,0,27.79-0.842,43.79-2.526l0.843,2.526c-3.368,0.843-6.737,4.211-9.265,10.104
		c-0.842,2.526-0.842,4.211-2.525,4.211h-37.052c-8.421,0-19.369-0.843-32.001-1.685c-12.631-2.526-21.895-8.421-27.789-17.685
		c-0.842,0-0.842,0.843-0.842,0.843c-3.369,5.895-6.736,10.947-11.789,15.157c0,4.211-0.843,5.896-2.527,5.896
		c-0.842,0-1.684-0.843-2.525-3.369c-2.527-5.053-5.053-10.104-8.422-17.684c6.737-0.843,11.79-1.686,15.158-2.526V274.58
		c-5.895,0-10.105,0.842-13.474,0.842l-1.685-9.263c4.211,0.842,7.579,1.685,12.632,1.685c1.685-1.685,3.368-3.369,5.053-5.054
		c1.685-2.526,3.368-3.368,4.21-3.368c1.685,0,4.211,1.685,7.58,5.053c4.21,3.369,5.895,5.895,5.895,6.737
		c0,1.685-0.843,2.524-2.527,4.21s-2.525,2.526-2.525,4.21v26.105c4.21,5.053,9.263,8.422,16,8.422c1.684,0,4.211,0.842,7.578,0.842
		c-1.684-1.685-2.525-4.211-4.21-7.579c-0.843-1.685-1.685-4.21-3.368-7.579c5.053-0.842,9.263-0.842,14.315-1.684v-11.79
		c-0.842,0.843-1.685,0.843-2.526,1.685c-5.895,2.526-13.474,4.21-20.211,5.896l-0.842-2.526
		c7.579-2.525,14.316-6.735,20.211-11.789c5.895-4.211,10.947-9.263,14.315-15.158h-5.895V267c0,1.684-2.526,3.369-6.737,4.211
		c-1.684,0-3.368,0.842-4.21,0.842c-3.368,0-5.053-1.684-5.053-4.211c0-2.525,0.843-5.895,0.843-9.263v-10.947
		c0-3.369-0.843-7.579-0.843-11.79C388.526,237.526,394.421,240.053,401.158,242.579 M358.211,235.842
		c3.368,2.526,5.053,5.052,5.053,7.579c0,2.527-0.843,5.053-3.369,7.579c-1.684,1.684-3.368,2.526-6.736,2.526
		c-2.527,0-4.211-1.684-5.895-5.895c-2.527-5.052-5.896-10.947-11.79-16l0.842-2.526C347.264,231.631,354,234.158,358.211,235.842
		 M363.264,209.737c3.367,1.684,5.052,4.21,5.052,6.737s-0.842,5.053-3.368,7.579c-1.684,1.684-3.369,2.526-5.895,2.526
		c-2.526,0-4.211-1.685-5.895-5.895c-1.685-5.053-5.895-10.105-10.947-15.158l0.842-1.684
		C352.315,206.368,359.053,208.053,363.264,209.737 M398.631,213.105h10.105v-2.526c0-4.211-0.842-8.421-0.842-12.632
		c6.736,0.842,12.632,1.684,18.526,2.526c3.368,0,5.896,0.842,5.896,2.526c0,0.842-0.843,1.684-3.368,2.526
		c-2.526,0.842-3.368,2.526-3.368,4.21v2.526H434c0,0,1.685-1.684,4.21-5.053c3.369-3.368,5.053-5.053,5.896-5.053
		c1.684,0,4.21,1.685,6.735,5.053c3.368,3.369,5.054,5.895,5.054,6.737c0,1.684-0.843,2.526-2.526,2.526H425.58v12.632h17.684
		c0,0,1.686-1.685,4.211-5.053c2.526-4.21,5.054-5.895,5.054-5.895c1.684,0,4.21,1.685,7.579,5.895
		c3.367,4.21,5.053,5.895,5.053,6.737c0,1.684-0.843,2.526-2.526,2.526h-67.368c-8.422,0-14.316,0-17.686,0.842l-2.525-5.052
		c4.211,0.842,10.947,0.842,20.211,0.842h13.473v-12.631h-10.105c-8.42,0-14.315,0-17.684,0.842l-2.526-5.896
		C382.631,213.105,389.368,213.105,398.631,213.105 M436.526,246.79h-37.053v15.158h37.053V246.79z"/>
	<path fill="#231714" d="M547.053,216.474h34.526c0-6.737,0-12.631-0.843-18.526c5.054,0.842,10.947,1.684,17.686,2.526
		c5.053,0.842,7.579,1.684,7.579,3.369c0,1.684-1.686,2.526-5.053,3.368c-2.526,0.842-3.369,1.684-3.369,3.369v5.895h29.474
		c0,0,1.686-1.684,5.053-5.895c4.211-4.211,6.737-6.737,6.737-6.737c1.685,0,5.053,2.526,9.263,6.737
		c4.211,4.21,5.896,6.737,5.896,8.421s-0.842,2.526-2.525,2.526H597.58v15.158h19.369c2.525-2.526,4.21-5.053,6.735-6.737
		c1.686-1.684,2.526-2.526,4.211-2.526c0.843,0,4.21,1.685,8.421,4.21c5.054,3.369,8.422,5.895,8.422,7.579s-0.843,2.526-3.368,4.21
		c-1.686,1.685-2.526,2.526-2.526,4.21v18.527c0,5.053,0,10.947,0.842,18.525c0,1.685-2.525,3.368-7.579,4.21
		c-2.525,0-4.21,0.843-5.053,0.843c-2.524,0-4.21-1.685-4.21-4.21v-5.896h-21.895c8.421,7.58,17.684,14.316,26.104,17.686
		c10.105,4.211,21.053,7.579,31.158,9.264l-0.842,4.21c-4.211,1.685-6.737,4.211-8.421,8.422c-0.844,3.368-2.526,5.052-3.369,5.052
		c-1.685,0-6.736-2.524-13.475-6.735c-7.577-4.211-14.314-10.105-21.053-16.843c-5.052-5.896-10.104-10.946-13.474-16.843v17.686
		c0,8.421,0,17.685,0.843,26.104c0,1.685-2.526,3.368-7.579,4.21c-2.525,0-4.211,0.843-5.053,0.843
		c-3.368,0-5.053-1.685-5.053-5.053c0.842-9.264,0.842-18.525,0.842-26.104v-9.265c-3.368,4.211-6.736,7.579-10.104,10.105
		c-5.895,5.053-13.474,9.264-21.053,13.474c-8.421,4.211-16.843,6.737-26.104,10.105l-1.686-2.526
		c10.105-5.053,19.368-10.947,28.632-18.526c8.421-7.578,16-16,21.896-25.264h-15.157v4.211c0,1.686-2.526,3.369-7.579,4.211
		c-2.525,0-4.211,0.842-5.053,0.842c-3.369,0-4.211-1.684-4.211-4.21c0-5.054,0-10.104,0-15.157V251c0-7.579,0-14.316-0.842-21.053
		c6.735,1.685,13.474,4.21,20.211,7.579h21.052v-16.842h-34.526c-8.421,0-14.314,0-17.684,0.842l-2.526-5.895
		C531.896,216.474,538.632,216.474,547.053,216.474 M581.579,240.053h-24.421v16h24.421V240.053z M581.579,259.421h-24.421v16
		h24.421V259.421z M597.579,255.21h24.422v-16h-24.422V255.21z M597.579,275.421h24.422v-16h-24.422V275.421z"/>
	<path fill="#231714" d="M788.944,200.474c3.368,0,5.054,0.842,5.054,2.526c0,0.842-0.843,1.684-3.369,2.526
		c-2.526,0.842-3.368,2.526-3.368,4.21v5.895h32c0,0,1.686-2.526,5.053-5.895c3.368-5.053,5.896-6.737,6.736-6.737
		c1.685,0,5.053,2.526,9.264,6.737c4.211,4.211,5.896,7.579,5.896,8.421c0,1.685-0.842,2.526-2.526,2.526h-40.421
		c1.685,0.842,3.368,0.842,5.053,1.684c4.211,0.842,5.896,2.526,5.896,4.211c0,1.684-0.842,2.526-3.368,2.526
		s-3.368,0.842-4.211,1.684c-1.685,4.21-4.21,6.737-5.896,9.263c-1.685,1.684-2.525,2.526-4.211,4.21h21.896
		c1.684-1.684,2.525-2.526,3.368-3.369c2.525-2.526,5.053-3.368,5.895-3.368c1.686,0,4.211,1.684,9.263,5.053
		c4.212,3.368,6.737,5.895,6.737,6.737c0,0.842-0.842,2.526-3.368,4.21c-2.525,1.684-4.211,3.368-4.211,5.053v59.789
		c0,5.053-2.525,8.421-8.421,10.947c-4.21,1.685-8.421,3.368-10.947,3.368c-0.842,0-1.685-1.685-2.525-5.053
		c-0.842-4.211-5.896-7.579-13.475-10.947v-0.843c-1.685,0-3.367,0.843-4.211,0.843c-2.525,0-4.21-1.685-4.21-4.211v-2.525h-26.104
		V315c0,1.685-2.526,3.368-6.736,4.211c-1.685,0-3.369,0.842-4.211,0.842c-3.368,0-5.053-1.685-5.053-4.211
		c0-4.21,0.842-9.263,0.842-13.474v-6.736c0-5.895,0-11.79-0.842-16.843c-2.526,0.843-5.053,1.686-6.736,1.686l-1.685-1.686
		c2.525-0.842,5.053-2.525,7.579-5.053c2.525-1.684,4.21-4.211,5.053-6.736c0.842-3.368,1.684-7.579,1.684-11.79v-5.895h-16.842
		v80.842c0,1.684-2.526,3.368-6.737,4.21c-1.684,0-3.367,0.843-4.21,0.843c-3.369,0-5.053-1.685-5.053-5.053
		c0.842-10.105,0.842-19.369,0.842-27.79v-38.736c0-6.737-0.842-15.158-0.842-25.263c5.896,1.684,11.789,3.368,17.685,6.737h16.843
		c-0.843-1.685-1.686-4.211-2.526-7.579c-1.685-5.895-4.211-10.105-6.737-15.158v-0.842h-15.156c-8.422,0-14.316,0-17.686,0.842
		l-2.525-5.895c5.053,0.842,10.946,0.842,20.211,0.842h38.735v-6.737c0-4.211-0.842-8.421-0.842-11.79
		C776.313,198.79,783.05,199.631,788.944,200.474 M786.419,280.475c1.684-1.686,4.21-4.211,5.895-5.054
		c1.685-1.685,2.526-1.685,4.211-1.685c0.843,0,4.211,1.685,8.422,4.211c5.052,3.369,7.578,5.895,7.578,6.736
		c0,1.685-0.843,2.526-2.526,3.368c-1.685,1.685-2.525,2.526-2.525,4.21v2.526c0,4.211,0,9.264,0.842,16.843
		c0,0.842-0.842,1.685-1.685,2.526C810.84,315,814.208,315,816.735,315c2.526,0,4.211-1.685,4.211-5.053v-39.579
		c-4.211,0.843-8.422,0.843-15.158,0.843h-7.579c-2.526,0-5.053,0-6.736-0.843c-4.211-0.843-5.896-3.368-5.896-7.579v-16.842
		h-14.315v5.895c0,5.052-0.842,9.263-3.368,12.631c-1.685,2.526-5.053,5.052-9.264,7.579c-1.684,0.843-2.526,1.685-4.21,1.685
		c5.053,1.685,9.263,3.369,14.315,5.053h17.685L786.419,280.475L786.419,280.475z M789.787,243.421
		c0.842-4.21,1.685-7.579,2.525-10.947c0.843-3.368,0.843-7.579,1.686-11.79h-36.211c1.685,0.842,2.525,1.684,3.368,1.684
		c3.368,1.685,5.053,4.211,5.895,5.895c0.843,1.684,1.686,3.368,1.686,5.053c0,2.526-0.843,5.895-3.368,7.579
		c-0.843,0.842-1.686,1.685-1.686,1.685h26.105V243.421z M791.472,283.842h-26.104v21.053h26.104V283.842z M798.208,256.053
		c0,2.526,0.842,4.21,1.685,4.21c0.842,0,3.368,0.842,5.896,0.842c1.685,0,3.368-0.842,4.21-1.685c0-0.842,0.843-4.21,1.685-10.105
		h2.526l0.842,6.737c0,1.684,1.685,2.526,4.211,3.368h0.842v-12.63h-21.895L798.208,256.053L798.208,256.053z"/>
	<path fill="#231714" d="M939.896,201.316c5.053,1.684,7.578,2.526,7.578,3.368c0,1.684-1.685,1.684-4.211,2.526
		c-2.525,0.842-4.21,0.842-4.21,1.684c8.421,2.526,14.315,5.053,18.526,7.579c4.21,3.369,6.736,7.579,6.736,11.79
		c0,1.684-0.843,3.368-2.526,5.053c-0.842,0.842-2.526,1.684-4.21,1.684c-3.369,0-6.737-2.526-9.264-6.737
		c-2.526-5.053-6.736-10.105-11.789-14.316c-4.211,5.895-7.579,11.79-11.79,15.158c-2.526,3.368-5.896,5.895-9.264,9.263
		c4.211,0.842,9.264,0.842,16,0.842h5.896c0,0,1.685-1.684,3.368-4.21c2.525-3.369,4.211-5.053,4.211-5.053
		c1.685,0,3.368,1.684,6.736,5.053c3.368,3.368,4.21,5.053,4.21,5.895c0,1.685-0.842,2.526-1.685,2.526h-15.157v19.368h4.21
		c0,0,1.686-1.684,3.369-4.21c2.526-3.369,4.21-5.053,4.21-5.053c1.686,0,3.368,1.684,6.737,5.053
		c2.526,3.368,4.21,5.052,4.21,5.895c0,1.685-0.842,2.526-1.684,2.526h-21.054v37.895c7.579-1.684,15.158-2.525,21.896-5.053
		l0.842,2.526c-14.314,10.947-28.631,17.685-43.789,22.737c-1.685,0-2.525,0.842-2.525,1.684c0,0.843-0.843,0.843-0.843,1.685
		c0,0.843-0.843,1.686-1.685,1.686c-2.526,0-5.053-3.369-7.579-10.947c-0.842-1.685-2.526-5.053-4.21-10.104
		c7.579-0.844,15.157-1.686,22.736-2.526V266.16h-1.686c-8.421,0-14.314,0-17.684,0.842L902,261.105
		c5.053,0.842,10.947,0.842,20.21,0.842h1.686v-19.368c-5.054,0-8.422,0-10.947,0.842l-0.842-3.368
		c-3.368,2.526-6.737,5.053-10.105,6.737l-0.842-2.526c4.21-5.053,9.263-11.79,15.157-20.21c4.211-6.737,8.422-16,11.79-26.105
		C931.474,199.631,936.526,200.474,939.896,201.316 M918,283c2.526,3.368,3.368,7.579,3.368,10.947s-0.842,5.895-1.685,7.579
		c-1.685,1.685-4.211,3.367-5.896,3.367s-2.526-0.842-3.368-2.525c-0.842-0.842-1.684-4.21-1.684-9.263
		c0-5.896-0.844-11.789-1.686-19.369l1.686-0.842C912.947,275.421,915.474,278.789,918,283 M958.421,274.579
		c4.211,1.685,5.896,3.368,5.896,5.052c0,0.844-0.843,1.686-3.368,1.686c-1.686,0-3.368,0.843-3.368,0.843
		c-4.211,6.735-9.264,12.631-15.158,18.525L940.736,299c1.685-8.421,3.369-17.684,4.211-27.789
		C950,271.211,954.21,272.895,958.421,274.579 M982.842,208.895h21.896c1.685-2.526,4.211-5.052,5.896-6.737
		c1.685-1.684,2.525-2.526,4.21-2.526c0.844,0,4.211,1.685,8.421,4.211c5.054,3.368,7.579,5.895,7.579,7.579
		c0,1.685-0.842,2.526-3.368,4.21c-1.685,1.685-2.525,2.526-2.525,4.211v26.105c0,5.053,0,10.947,0.842,18.526
		c0,1.685-1.684,2.526-5.896,4.209c4.212,2.527,7.579,4.211,10.947,6.737c4.211,2.526,5.896,5.054,5.896,5.896
		c0,1.685-0.842,2.525-2.526,2.525l-8.423-0.842c-4.21,3.368-10.104,6.736-16.842,10.105c0.842,0.842,0.842,1.684,1.685,2.525
		c2.525,4.21,6.736,7.579,10.947,10.947c4.21,2.525,9.263,5.895,15.157,7.579l-0.843,3.368c-4.21,0.842-7.578,3.367-10.104,8.421
		c-1.684,3.368-2.526,5.053-3.368,5.053s-3.368-1.685-6.736-5.053s-6.736-8.421-10.104-14.315c-0.843-1.685-1.685-2.525-1.685-4.211
		c-10.947,8.421-21.896,14.315-33.686,17.686c-1.684,0-2.525,0.842-2.525,1.684c0,0.843-0.843,1.685-0.843,2.526
		C966,330.158,966,331,965.158,331c-2.526,0-5.053-3.368-7.579-10.947c-0.843-1.685-2.526-5.053-4.211-10.104
		c4.211,0,8.421-0.842,11.79-1.686v-79.157c0-12.632-0.843-21.895-1.686-27.79C969.368,203.842,975.263,205.526,982.842,208.895
		 M1008.947,213.105H982v21.052h26.947V213.105z M1008.947,237.526H982v21.053h26.947V237.526z M998,289.736
		c-1.685-6.736-3.368-16-5.053-27.79H982v44.632c6.737-0.843,13.474-2.526,19.368-4.211C999.685,299,998.842,294.789,998,289.736
		 M1001.368,277.105c1.685,4.211,3.369,8.421,5.053,10.946c1.686-1.685,2.526-4.211,4.211-6.735
		c2.526-4.211,4.21-8.422,5.896-12.633c-1.686,0-2.526,0-3.369,0c-2.525,0-4.21-1.685-4.21-4.21v-1.685h-11.79
		C998,267,998.842,272.053,1001.368,277.105"/>
</g>
</svg>
