<?xml version="1.0" encoding="utf-8"?>
<!-- Generator: Adobe Illustrator 28.1.0, SVG Export Plug-In . SVG Version: 6.00 Build 0)  -->
<svg version="1.1" id="圖層_1" xmlns="http://www.w3.org/2000/svg" xmlns:xlink="http://www.w3.org/1999/xlink" x="0px" y="0px"
	 viewBox="0 0 648 83" style="enable-background:new 0 0 648 83;" xml:space="preserve">
<style type="text/css">
	.st0{fill:#28294C;}
	.st1{fill:none;stroke:#28294C;stroke-miterlimit:10;}
	.st2{fill:none;}
</style>
<g id="XMLID_13762_">
	<path id="XMLID_13763_" class="st0" d="M212.3,43c-1.7-1.3-5.4-3.4-8.1-4.7l2.7-3.9c2.6,1.1,6.3,2.9,8.2,4.2L212.3,43z M217.4,48.4
		c-2.3,4.5-5,9.5-7.7,13.7l-4.3-3.5c2.3-3.3,5.6-8.7,8.2-13.6L217.4,48.4z M214.7,31c-1.7-1.4-5.4-3.5-8.1-4.8l2.9-3.8
		c2.6,1.1,6.3,3,8.2,4.4L214.7,31z M244.5,56.3v4.9h-28.1v-4.9h11.8v-8.8h-8.7v-4.9h8.7v-7.6h-10.5V30h11.5c-0.5-1.8-1.8-4.5-3-6.6
		l4.8-1.6c1.3,2,2.8,4.9,3.4,6.7l-4.2,1.5h13.2v4.9h-9.8v7.6h8.3v4.9h-8.3v8.8H244.5z"/>
	<path id="XMLID_13768_" class="st0" d="M252,58.8c2.3-1.9,4.2-4.8,5.4-7.4l4.3,1.9c-1.3,2.7-3.1,5.9-5.4,8L252,58.8z M290.7,35.4
		h-37.5v-4h9.1c-0.2-0.8-0.6-1.7-0.9-2.4l3.2-0.6h-9.3v-4h14c-0.2-0.7-0.5-1.4-0.7-2l5-0.9c0.5,0.9,0.9,2,1.3,2.9h13.5v4h-8.9
		L283,29c-0.5,0.9-1,1.7-1.4,2.4h9.1L290.7,35.4L290.7,35.4z M286,50.1h-13.3c1.7,0.9,3.5,2,4.5,2.9l-3.2,3.2
		c-1.4-1.3-4.4-3.2-6.8-4.3l1.8-1.7h-11V36.9H286V50.1z M276,57.8c1.6,0,1.9-0.5,2.1-3.5c1,0.7,3,1.3,4.4,1.6c-0.6,4.8-2,6-6,6h-7
		c-5.5,0-6.8-1.3-6.8-5.3v-4.5h5v4.5c0,1.1,0.3,1.3,2.3,1.3L276,57.8L276,57.8z M280.9,40.1H263V42h17.9V40.1z M280.9,45H263v1.9
		h17.9V45z M266.3,28.4c0.5,1,1,2.1,1.2,3h8.8c0.4-1,0.9-2.1,1.2-3H266.3z M285.9,51.1c2.1,2.3,4.3,5.5,5.3,7.7l-4.5,2
		c-0.8-2.1-2.9-5.4-5-7.8L285.9,51.1z"/>
	<path id="XMLID_13777_" class="st0" d="M339.5,50.4H335v7.5h-5.2v-1.8H322v1.3c0,2.6-0.6,3.6-2.3,4.3c-1.6,0.7-4,0.7-7.7,0.7
		c-0.3-1.2-1-3-1.7-4.1c2.1,0.1,4.6,0.1,5.3,0.1c0.8,0,1.1-0.3,1.1-1.1v-1.3h-13.2v-3.7h13.2v-2h-17.1v-3.9h17.1v-1.9h-12.8v-3.5
		h12.8v-1.9H305v-8.6h11.7v-1.8h-16.2v-4.1h16.2V22h5.2v2.8h16.5v4.1H322v1.8h12.3v8.6H322v1.9h13v5.3h4.5V50.4z M316.8,35.9v-2.1
		H310v2.1H316.8z M322,33.9v2.1h7v-2.1H322z M322,46.4h7.8v-1.9H322V46.4z M329.8,50.4H322v2h7.8V50.4z"/>
	<path id="XMLID_13783_" class="st0" d="M363.7,49.1c-5.2,2-10.9,4-15.2,5.6l-2.1-4.9c1.6-0.5,3.7-1.1,6-1.8V31.3h-4.8v-4.8h14.8
		v4.8h-4.8v15l5.3-1.7L363.7,49.1z M369.5,53.9l4,2.8c-2.9,2.2-7.4,4.5-11.2,5.7c-0.7-1-2.1-2.6-3.1-3.5c3.5-1.1,7.8-3.2,10-5h-4.4
		V31h6.8c0.2-1,0.4-2,0.6-3H363v-4.3h24.5V28h-9.6c-0.3,1-0.7,2-1.1,3h9.1v22.9H369.5z M369.5,37.5h11.3v-2.7h-11.3V37.5z
		 M369.5,43.8h11.3V41h-11.3V43.8z M369.5,50.1h11.3v-2.8h-11.3V50.1z M379.6,54c2.7,1.5,6.6,3.8,8.6,5.4l-4.1,3
		c-1.8-1.6-5.5-4.1-8.4-5.7L379.6,54z"/>
</g>
<g id="XMLID_1821_">
	<path id="XMLID_1826_" class="st0" d="M438.2,43.5h-11.8v11.8h-4V43.5h-11.8v-4h11.8V27.7h4v11.8h11.8V43.5z"/>
</g>
<path id="XMLID_1818_" class="st1" d="M444.7,41.5c0,11.2-9.1,20.3-20.3,20.3c-11.2,0-20.3-9.1-20.3-20.3c0-11.2,9.1-20.3,20.3-20.3
	C435.6,21.2,444.7,30.3,444.7,41.5z"/>
<g>
	<line class="st2" x1="3.1" y1="40.6" x2="187.7" y2="40.6"/>
	<rect x="3.1" y="39.1" width="184.6" height="3"/>
</g>
<g>
	<line class="st2" x1="463.4" y1="40.6" x2="648" y2="40.6"/>
	<rect x="463.4" y="39.1" width="184.6" height="3"/>
</g>
</svg>
